<?xml version="1.0" encoding="utf-8"?><svg version="1.1" id="Layer_1" xmlns="http://www.w3.org/2000/svg" xmlns:xlink="http://www.w3.org/1999/xlink" x="0px" y="0px" viewBox="0 0 122.88 122.17" style="enable-background:new 0 0 122.88 122.17" xml:space="preserve" fill="#dc4d04"><g><path d="M34.77,20.04c-0.2,0.69-0.78,1.22-1.53,1.33c-2.46,2.16-4.85,4.38-7.13,6.75c10.45,2.77,20.87,4.56,31.25,5.28 c8.02,0.56,16.03,0.48,24.02-0.26c3.68-0.43,7.52-0.99,11.6-1.71c0.28-0.05,0.54-0.1,0.79-0.15c0.07-0.14,0.09-0.34,0.05-0.63 c-0.29-1.95-1.78-3.37-3.32-4.8l-0.11-0.09l-0.48-0.45l0,0l0,0c-0.65-0.61-1.32-1.23-2.01-1.85l-0.24-0.04 c-0.83-0.12-1.45-0.78-1.56-1.57l-0.7-0.61c-1.53-1.33-3.12-2.66-4.77-3.98l-0.83-0.67C75.06,12.78,64.31,4.1,60.19,3.75 c-5.35-0.46-10.76,4.06-15.93,8.39c-0.36,0.3-0.65,0.54-1.73,1.43l-1.2,0.99C39.11,16.39,36.91,18.2,34.77,20.04L34.77,20.04z M100.19,88.48c-0.11-1.02,0.62-1.93,1.64-2.05c1.02-0.11,1.93,0.62,2.05,1.64c0.25,2.2,0.53,5.58,0.51,8.6 c-0.01,2.24-0.2,4.31-0.69,5.64c-0.35,0.96-1.42,1.46-2.38,1.1c-0.96-0.35-1.46-1.42-1.1-2.38c0.34-0.91,0.46-2.54,0.48-4.38 C100.7,93.85,100.42,90.61,100.19,88.48L100.19,88.48z M17.23,91.8c0.11-1.02,1.03-1.75,2.05-1.64c1.02,0.11,1.75,1.03,1.64,2.05 c-0.19,1.72-0.24,3.34-0.12,4.85c0.11,1.45,0.38,2.79,0.83,3.99c0.35,0.96-0.14,2.03-1.1,2.38c-0.96,0.35-2.03-0.14-2.38-1.1 c-0.56-1.53-0.9-3.2-1.04-4.98C16.96,95.61,17.01,93.75,17.23,91.8L17.23,91.8z M105.07,57.41c-5.07,1.18-9.9,2.22-14.54,3.1 c-3.34,0.88-6.73,1.59-10.16,2.16c-3.74,0.61-7.51,1.03-11.29,1.26c-4.29,0.26-8.7,0.27-13.14,0.04 c-13.62-0.24-26.16-2.8-39.36-8.18c-1.75,5.31-3.17,11.17-4.11,17.68c-1.06,7.31-1.52,15.43-1.21,24.5 c0.04,1.17,0.15,2.06,0.24,2.73c0.46,3.63,0.5,3.93-4.1,5.17c-1.67,0.45-2.9,1.09-3.4,2.18c-0.5,1.1-0.45,2.76,0.36,5.25 c1.68,0.12,3.57,0,5.49-0.13c2.6-0.17,5.25-0.34,7.81,0.02c3.53,0.5,7.34,1.13,11.29,1.78c4.9,0.81,10.03,1.66,15.1,2.34 c10.34,1.38,19.76,1.44,29.4,0.6c9.72-0.85,19.63-2.62,30.91-4.92c0.13-0.03,0.26-0.04,0.38-0.04l14.05,0.19 c0.42-1.9,0.49-3.34,0.16-4.43c-0.35-1.15-1.27-2-2.84-2.71l-0.22-0.1c-2.82-1.29-3.95-1.8-4.55-3.23 c-0.39-0.92-0.33-1.74-0.23-3.1c0.07-0.97,0.18-2.3,0.13-4.1c-0.19-7.46-0.97-15.85-2.28-23.31l-0.01-0.06 C107.97,66.28,106.65,61.08,105.07,57.41L105.07,57.41z M57.02,60.28c9.99,0.09,20.64-1.11,32.65-3.38 c0.29-0.08,0.58-0.15,0.87-0.23l0.19-0.04l15.56-3.81c1.59-0.47,2.69-1.38,3.4-2.62c0.79-1.39,1.16-3.25,1.2-5.45 c0.04-2.44-0.67-6.27-1.87-9.85c-1-2.96-2.3-5.68-3.75-7.13c-0.11-0.11-0.23-0.22-0.35-0.32c-1.77,0.99-2.52,2.02-3.22,2.97 c-1.16,1.59-2.21,3.02-5.33,4.01c-0.69,0.48-1.65,0.7-2.75,0.86l-0.72,0.1c-0.37,0.05-0.76,0.1-0.98,0.13 c-3.31,0.54-6.62,0.97-9.93,1.28c-1.93,0.23-3.83,0.42-5.68,0.57c-5.38,0.44-10.51,0.56-15.65,0.37c-5.93-0.21-14.15-1-21.92-2.37 c-6.21-1.1-12.19-2.58-16.62-4.48c-2.01-0.86-3.57-1.79-4.66-2.78c-0.3-0.28-0.58-0.56-0.81-0.85c-1.95,3.02-4.58,7.81-5.93,12.35 c-0.9,3.01-1.23,5.84-0.38,7.78c0.67,1.53,3.06,2.98,5.96,4.26c0.55,0.23,1.1,0.46,1.64,0.68c3.7,1.46,7.83,2.63,10.22,3.3 l0.47,0.13c6.4,1.81,13.22,3.13,20.1,3.9c2.52,0.28,5.05,0.48,7.57,0.61L57.02,60.28L57.02,60.28z M108.47,55.96 c1.7,3.97,3.1,9.45,4.16,15.5l0.01,0.07c1.33,7.6,2.13,16.19,2.32,23.87c0.05,2.07-0.05,3.45-0.13,4.46 c-0.06,0.8-0.1,1.29-0.06,1.37c0.05,0.11,0.8,0.45,2.68,1.31l0.22,0.1c2.59,1.18,4.15,2.75,4.84,5.01 c0.63,2.07,0.42,4.59-0.48,7.87c-0.22,0.79-0.95,1.37-1.81,1.36l-15.32-0.21c-11.39,2.31-21.38,4.1-31.12,4.95 c-9.87,0.87-19.54,0.79-30.2-0.63c-5.21-0.69-10.33-1.54-15.22-2.35c-3.9-0.65-7.66-1.27-11.21-1.77 c-2.18-0.31-4.65-0.15-7.07,0.01c-2.55,0.17-5.05,0.33-7.35-0.02l0,0c-0.65-0.1-1.22-0.53-1.47-1.19 c-1.54-4.11-1.61-7.02-0.63-9.15c1.04-2.29,3.12-3.51,5.8-4.23c1.48-0.4,1.47-0.45,1.38-1.12c-0.1-0.76-0.22-1.75-0.27-3.08 c-0.32-9.32,0.16-17.65,1.24-25.14c1-6.91,2.52-13.12,4.4-18.75c-2.95-1.5-5.38-3.28-6.28-5.31c-1.26-2.86-0.91-6.57,0.22-10.34 c1.51-5.07,4.44-10.35,6.54-13.55c1.09-1.67,2.39-3.17,4.06-4.32c1.69-1.16,3.7-1.92,6.17-2.05c1.39-0.18,2.91-0.35,4.42-0.5 c1.07-0.11,2.23-0.22,3.37-0.32c2.37-2.05,4.8-4.06,7.27-6.09l1.2-0.99l1.7-1.42c5.75-4.81,11.76-9.84,18.63-9.25 c5.24,0.45,16.61,9.62,21.61,13.66l0.83,0.67c1.65,1.33,3.28,2.69,4.87,4.07c0.57,0.49,1.14,1,1.71,1.51 c2.96,0.46,6.24,0.96,9.21,1.54l0,0l1.04,0.2c2.17,0.42,4.09,0.8,5.84,1.75c0.38,0.09,0.73,0.31,0.99,0.62 c0.44,0.31,0.87,0.68,1.29,1.1c1.87,1.88,3.47,5.12,4.63,8.56c1.32,3.95,2.11,8.26,2.06,11.08c-0.05,2.81-0.56,5.26-1.67,7.22 C111.91,53.78,110.46,55.12,108.47,55.96L108.47,55.96z M19.12,24.27c0.12,0.34,0.4,0.71,0.82,1.1c0.55,0.5,1.31,1,2.26,1.49 c1.58-1.7,3.2-3.32,4.86-4.88c-0.96,0.1-1.89,0.21-2.75,0.33l-0.14,0.01c-1.77,0.09-3.17,0.61-4.33,1.41 C19.59,23.89,19.35,24.07,19.12,24.27L19.12,24.27z M97.42,29.73c0.54-0.46,0.91-0.96,1.29-1.49c0.59-0.81,1.22-1.67,2.21-2.53 c-0.59-0.13-1.2-0.25-1.84-0.38l-1.03-0.21l0,0c-1.15-0.22-2.38-0.44-3.63-0.65C95.8,25.9,96.99,27.47,97.42,29.73L97.42,29.73z M77.39,29.11c0.51,0,0.92,0.41,0.92,0.92c0,0.51-0.41,0.92-0.92,0.92c-0.51,0-0.92-0.41-0.92-0.92 C76.47,29.52,76.88,29.11,77.39,29.11L77.39,29.11z M55,11.13c0.48,0,0.87,0.39,0.87,0.87c0,0.48-0.39,0.87-0.87,0.87 c-0.48,0-0.87-0.39-0.87-0.87C54.13,11.52,54.52,11.13,55,11.13L55,11.13z M65.75,20.15c0.48,0,0.87,0.39,0.87,0.87 c0,0.48-0.39,0.87-0.87,0.87c-0.48,0-0.87-0.39-0.87-0.87C64.88,20.54,65.27,20.15,65.75,20.15L65.75,20.15z M56.76,25.24 c0.7,0,1.27,0.57,1.27,1.27s-0.57,1.27-1.27,1.27S55.5,27.2,55.5,26.5S56.06,25.24,56.76,25.24L56.76,25.24z M56.3,17.03 c0.48,0,0.87,0.39,0.87,0.87c0,0.48-0.39,0.87-0.87,0.87c-0.48,0-0.87-0.39-0.87-0.87C55.43,17.42,55.82,17.03,56.3,17.03 L56.3,17.03z M49.63,20.07c0.7,0,1.27,0.57,1.27,1.27c0,0.7-0.57,1.27-1.27,1.27c-0.7,0-1.27-0.57-1.27-1.27 C48.36,20.64,48.93,20.07,49.63,20.07L49.63,20.07z M34.4,26.33c0.37,0,0.68,0.3,0.68,0.68c0,0.37-0.3,0.68-0.68,0.68 c-0.37,0-0.68-0.3-0.68-0.68C33.72,26.64,34.03,26.33,34.4,26.33L34.4,26.33z M39.83,25.49c0.7,0,1.27,0.57,1.27,1.27 c0,0.7-0.57,1.27-1.27,1.27c-0.7,0-1.27-0.57-1.27-1.27C38.57,26.06,39.13,25.49,39.83,25.49L39.83,25.49z M46.7,28.01 c0.48,0,0.87,0.39,0.87,0.87c0,0.48-0.39,0.87-0.87,0.87c-0.48,0-0.87-0.39-0.87-0.87C45.83,28.4,46.22,28.01,46.7,28.01 L46.7,28.01z M42.55,19.24c0.54,0,0.98,0.44,0.98,0.98c0,0.54-0.44,0.98-0.98,0.98c-0.54,0-0.98-0.44-0.98-0.98 C41.56,19.68,42,19.24,42.55,19.24L42.55,19.24z M63.83,10.78c0.42,0,0.76,0.34,0.76,0.76c0,0.42-0.34,0.76-0.76,0.76 c-0.42,0-0.76-0.34-0.76-0.76C63.07,11.12,63.41,10.78,63.83,10.78L63.83,10.78z M65.65,28.63c0.37,0,0.68,0.3,0.68,0.68 c0,0.37-0.3,0.68-0.68,0.68c-0.37,0-0.68-0.3-0.68-0.68C64.97,28.93,65.27,28.63,65.65,28.63L65.65,28.63z M77.59,18.09 c0.37,0,0.68,0.3,0.68,0.68s-0.3,0.68-0.68,0.68s-0.68-0.3-0.68-0.68S77.22,18.09,77.59,18.09L77.59,18.09z M70.83,24.46 c0.58,0,1.04,0.47,1.04,1.04c0,0.58-0.47,1.04-1.04,1.04c-0.58,0-1.04-0.47-1.04-1.04C69.78,24.92,70.25,24.46,70.83,24.46 L70.83,24.46z M76.16,23.33c0.61,0,1.11,0.49,1.11,1.11c0,0.61-0.49,1.11-1.11,1.11c-0.61,0-1.11-0.49-1.11-1.11 C75.06,23.83,75.55,23.33,76.16,23.33L76.16,23.33z M82.89,26.62c0.46,0,0.83,0.37,0.83,0.83c0,0.46-0.37,0.83-0.83,0.83 c-0.46,0-0.83-0.37-0.83-0.83C82.06,27,82.43,26.62,82.89,26.62L82.89,26.62z M81.67,21.68c0.51,0,0.92,0.41,0.92,0.92 c0,0.51-0.41,0.92-0.92,0.92c-0.51,0-0.92-0.41-0.92-0.92C80.75,22.09,81.16,21.68,81.67,21.68L81.67,21.68z"/></g></svg>