<svg width="553" height="590" viewBox="0 0 553 590" fill="none" xmlns="http://www.w3.org/2000/svg">
<g clip-path="url(#clip0_14_462)">
<path d="M337.971 124.773L402.115 122.878L404.156 124.918L408.384 124.384L408.821 120.789L413.535 119.477L414.507 115.055L416.548 115.735L419.123 113.014L417.714 106.066L419.949 106.164L414.507 101.305L399.54 76.5737L399.491 73.5613C396.09 71.4234 393.368 68.3624 391.716 64.6698L391.57 62.3861L389.286 60.7342L389.87 57.0901L396.576 66.0302C397.159 66.7104 396.478 67.1963 397.062 67.9737C398.811 70.4031 401.824 72.8325 403.622 74.2901C404.545 73.9986 405.614 74.1929 406.051 72.3466L407.801 60.6856L399.929 44.6516C394.632 48.3929 389.286 49.8505 383.99 44.3115L377.575 44.8946C376.118 45.5262 374.514 46.498 373.639 44.9432L363.143 51.0652L345.795 47.1782C343.171 46.6437 340.401 45.7692 338.263 46.1579C336.076 47.5183 334.472 46.4494 332.917 45.429C332.043 46.9838 331.071 48.5387 331.946 49.4618L332.626 55.7782C331.071 58.2562 329.662 60.7827 334.521 66.6133L337.971 124.773Z" stroke="#282828" stroke-linecap="round"/>
<path d="M228.538 296.433L215.369 297.065L212.745 295.316L216.681 287.736L228.441 287.59L228.538 296.433Z" stroke="#282828" stroke-linecap="round"/>
<path d="M192.141 303.333C192.141 304.11 191.509 304.742 190.731 304.742C189.954 304.742 189.322 304.11 189.322 303.333C189.322 302.555 189.954 301.924 190.731 301.924C191.509 301.924 192.141 302.555 192.141 303.333Z" stroke="#282828" stroke-linecap="round"/>
<path d="M197.681 292.012C197.681 292.644 197.195 293.13 196.563 293.13C195.931 293.13 195.445 292.644 195.445 292.012C195.445 291.38 195.931 290.895 196.563 290.895C197.146 290.895 197.681 291.38 197.681 292.012Z" stroke="#282828" stroke-linecap="round"/>
<path d="M529.237 236.233L505.815 262.956L496.679 262.81C495.562 263.15 491.334 265.726 488.904 267.863C486.912 269.613 483.85 270.633 480.692 272.091C478.845 272.091 476.561 272.771 475.249 271.848C472.188 268.884 468.689 270.341 465.19 271.41C464.024 273.5 462.469 275.2 459.894 275.88L447.356 273.937C444.392 271.362 441.088 269.175 437.54 267.523L430.591 267.037V261.401L425.1 259.409L421.164 250.372L415.479 245.853C416.548 244.153 413.778 242.744 412.369 241.237C410.425 241.675 408.53 241.286 406.586 240.266L408.287 238.225L408.19 235.601L413.195 235.698C414.264 235.018 415.479 234.727 416.305 232.978L416.159 218.304L418.54 214.563L421.018 214.66L422.136 208.392C425.149 204.699 426.218 200.181 431.175 197.314L432.487 186.479L436.471 186.382L437.006 185.119L438.95 185.167L440.602 187.888L442.983 181.572C444.538 182.592 446.627 182.641 447.502 184.827L451.487 184.05L452.167 182.786L452.896 182.641L453.868 184.341C455.131 183.564 456.686 182.786 458.727 184.098C459.31 184.341 459.991 184.487 461.546 183.612C463.149 184.487 464.121 186.236 466.405 186.139C471.508 190.609 476.513 195.273 480.886 200.57C480.497 200.958 480.303 202.367 480.011 205.574L478.116 208.975C476.561 211.502 478.456 213.688 481.372 212.668L483.948 211.696L486.523 212.765C483.413 216.361 490.799 222.58 497.457 228.799L521.462 236.476L529.237 236.233Z" stroke="#282828" stroke-linecap="round"/>
<path d="M82.6097 63.0182L90.3848 59.1312L91.9884 59.7142L94.661 57.382L99.1317 57.7707L99.3747 55.6814C108.656 56.1187 110.551 53.6408 112.203 51.1628L119.979 47.956L122.846 48.0532L121.388 46.1097L121.777 44.5549L121.728 41.9797C124.789 41.591 128.482 42.0769 128.531 38.9187L141.068 39.1131L142.818 35.5176C140.388 34.643 139.999 31.1447 140.291 27.452C140.534 24.6825 140.291 18.4633 140.291 18.4633C139.465 17.443 138.444 16.5198 138.201 15.0622C138.882 14.7706 142.04 15.3051 143.935 12.73C144.907 11.4181 146.171 8.74576 147.823 9.28023C149.767 9.86328 153.411 10.252 153.654 9.03729C153.897 7.72542 157.445 4.85875 162.595 4.85875C172.023 4.85875 184.22 1.26326 188.205 2.42937C192.189 3.59547 197.389 0.87456 199.673 1.02032C201.957 1.16609 202.686 3.69265 205.844 1.55479C207.01 0.728798 211.287 4.08135 215.369 2.91524C215.369 2.91524 212.939 3.98417 212.793 6.46214C212.599 10.3006 212.21 22.2531 212.21 22.2531C211.821 21.6215 208.906 22.1074 208.468 24.0509C207.837 26.7232 204.872 25.9944 204.629 27.3548C204.143 30.0272 206.524 32.5051 209.294 34.9345C210.023 35.5662 209.051 38.9673 209.732 39.5989C211.87 41.4938 215.66 42.8057 215.66 42.8057C216.146 47.8102 216.924 52.7662 218.09 57.6735C214.057 57.9651 216.195 61.6577 218.916 65.6419L219.11 88.4781C219.11 88.4781 215.466 89.2069 215.709 90.1301C216.292 92.2194 216.389 93.7742 219.062 96.155C220.763 97.6612 220.811 100.236 220.665 101.937C220.471 103.88 222.463 104.755 222.949 104.755C226.934 104.658 230.287 102.714 234.077 113.112L186.309 144.5C179.215 147.561 167.552 149.358 167.115 149.213C164.442 148.047 167.552 145.131 166.629 143.139C165.705 141.147 164.636 139.69 161.624 140.03C160.02 140.224 159.145 138.135 158.514 138.232C155.938 138.669 155.258 135.705 154.675 135.219C152.391 133.13 150.155 132.547 150.69 130.652L80.9575 77.4487L82.6097 63.0182Z" stroke="#282828" stroke-linecap="round"/>
<path d="M232.377 446.812C234.126 446.326 236.021 444.042 237.576 445.889C239.131 443.945 243.456 440.155 250.405 447.298L285.49 446.812L289.232 450.067L311.342 452.934L325.337 449.776L315.861 441.37L316.59 411.489L333.452 411.974L331.606 410.031L333.598 394.24C333.355 394.289 333.112 394.191 332.869 394.24C328.787 395.698 324.462 395.357 320.137 395.455L318.631 398.418L315.861 396.135L318.923 392.005L314.744 383.599L314.112 364.699L306.92 365.185V361.783L303.713 361.298L302.887 362.804L297.007 362.512L294.771 371.064C291.856 370.529 289.135 369.8 284.761 372.035C280.874 370.772 277.375 373.687 271.932 354.301L269.843 353.086L247.684 352.746L237.625 356.196C240.152 363.435 245.497 367.565 245.303 378.303L243.553 379.955C244.963 384.814 246.275 389.867 249.433 392.199C249.773 393.56 249.044 394.531 248.947 395.552C248.607 399.293 246.663 409.837 245.789 407.99C245.789 407.99 242.241 408.768 241.901 411.634C241.755 413.043 240.006 413.238 239.374 414.938C237.576 419.748 235.73 427.328 234.369 434.276C234.223 435.102 233.154 434.713 233.057 435.491C232.668 437.677 233.106 439.281 232.96 441.613C232.911 442.293 232.037 441.127 231.842 442.002C231.696 443.022 232.571 446.083 232.377 446.812Z" stroke="#282828" stroke-linecap="round"/>
<path d="M234.904 346.818L238.791 344.438C240.444 340.599 241.756 341.717 243.068 343.417C241.415 344.923 239.666 346.381 239.52 349.053C239.909 352.746 238.208 352.455 236.993 353.086C236.459 352.066 235.681 351.143 235.973 349.977C235.876 348.859 235.924 347.742 234.904 346.818Z" stroke="#282828" stroke-linecap="round"/>
<path d="M159.583 253.239L152.148 254.21L148.309 224.086C147.823 221.802 145.539 220.782 143.79 219.373L144.713 214.466L149.524 210.676L154.529 210.87L158.222 204.942L166.532 206.254L166.58 212.862C168.961 215.389 168.524 218.79 166.726 219.859C166.872 223.017 166.289 225.641 164.199 225.592C162.936 229.042 161.818 233.123 160.02 234.581L159.583 253.239Z" fill="#DC4D04" fill-opacity="0.85" stroke="#282828" stroke-linecap="round"/>
<path d="M339.672 450.504L334.521 453.42C329.419 453.468 329.127 456.432 327.183 458.035L325.725 454.003L306.434 455.703L305.316 485.585L297.444 485.39L296.909 506.963C299.047 509.587 302.012 512.502 303.469 514.446C304.927 516.389 304.004 519.985 302.595 523.434C306.142 524.941 310.078 525.232 313.82 524.163C314.354 522.706 315.132 521.637 316.104 521.102C317.707 520.179 319.019 519.013 319.505 517.118L324.316 513.085C327.28 513.328 329.564 514.543 331.897 516.195C336.805 516.244 339.721 515.369 341.761 514.349L342.733 509.83L370.966 487.285C367.419 484.71 365.621 485.293 363.629 484.807C361.636 484.321 359.061 480.677 359.741 474.458C357.797 474.069 356.534 473 355.465 471.689C354.25 469.648 352.647 469.842 351.189 468.968C349.002 465.955 344.92 461.971 344.629 459.59C344.483 458.424 343.851 458.521 343.025 457.209C341.956 455.752 340.595 452.302 339.672 450.504Z" stroke="#282828" stroke-linecap="round"/>
<path d="M375.486 327.286L376.652 326.169L378.061 326.266L378.79 328.258L382.775 327.481L382.969 324.954L387.975 324.663C386.322 327.529 388.801 329.133 389.821 330.59C386.468 338.413 383.601 341.182 381.026 341.328C377.575 341.328 378.013 342.591 377.673 343.709C377.478 340.502 377.527 337.295 377.818 334.137C378.159 330.59 376.992 328.015 375.486 327.286Z" stroke="#282828" stroke-linecap="round"/>
<path d="M116.043 226.71C114.488 226.515 113.953 224.426 112.69 223.211C110.211 220.831 105.498 222.628 101.707 224.912C97.1395 222.628 96.5077 220.588 95.6816 218.644C96.6049 216.166 95.9732 212.911 97.2367 210.336C98.3543 208.003 100.249 205.817 103.651 203.971L107.782 195.322C111.329 194.156 114.536 193.719 117.306 192.747C119.979 191.824 122.36 190.269 123.818 188.325C129.114 185.07 135.675 180.892 139.708 181.912C139.659 183.224 139.659 184.584 140.485 185.702C141.846 186.625 141.554 188.18 141.263 189.735L149.427 200.715L152.537 201.736C152.974 201.201 155.209 198.48 156.327 204.505L158.174 204.894L154.578 210.919L149.524 210.627L144.664 214.417L137.327 213.542C133.099 213.494 132.71 214.271 130.912 214.806L114.633 214.32L116.043 226.71Z" stroke="#282828" stroke-linecap="round"/>
<path d="M290.106 275.978C288.697 280.205 286.996 283.217 285.247 287.833C282.915 293.858 283.449 303.187 282.234 311.447C276.111 314.216 274.168 318.686 271.009 322.671L268.579 334.38C264.157 338.705 260.027 344.292 254.681 344.972C254.341 338.413 248.704 341.571 248.073 344.146C245.4 345.944 244.477 344.098 242.97 343.515C241.026 344.924 239.617 346.576 239.569 348.957C239.86 352.746 238.111 352.552 236.896 353.281L237.625 356.148L247.732 352.698L269.891 353.086L271.932 354.301C276.986 372.959 281.068 371.113 284.664 372.036C290.301 369.703 291.807 370.967 294.771 370.967L296.958 362.464L302.887 362.804L303.616 361.249L306.92 361.735L306.969 365.185L314.112 364.65L314.841 383.454L318.923 391.908L315.813 396.135L318.631 398.516L320.138 395.504L329.468 395.358L332.869 394.24L335.785 394.192L336.854 398.37L342.296 396.572C342.491 397.641 343.074 398.662 343.851 399.439C345.601 401.091 348.905 403.375 351.869 403.423C353.959 403.472 355.611 401.334 357.458 401.723C359.936 405.172 362.9 406.144 365.962 406.436C368.246 409.983 369.801 414.307 376.312 413.627L378.839 415.424L378.645 406.339C374.126 407.796 371.356 405.707 369.023 402.792C369.509 399.196 370.918 395.941 372.571 392.734C372.668 389.09 372.23 385.494 371.307 381.948C371.113 381.122 372.182 378.109 373.494 376.36L388.266 372.667C386.76 364.456 381.415 362.804 379.86 356.974C377.819 349.151 377.187 341.037 378.062 333.02C377.77 329.133 376.021 327.044 373.445 325.975L377.819 319.707L381.366 315.82L381.901 302.215L386.857 294.684L394.875 287.493L390.064 284.335V275.735L380.103 267.232C379.228 267.329 378.791 268.204 378.159 268.738C376.166 269.37 374.271 268.398 372.376 268.155C371.356 270.487 367.079 269.273 366.593 267.912C366.448 267.524 366.788 266.746 366.205 266.552C365.087 265.094 363.824 263.782 362.414 262.616L358.235 262.811L356.875 264.365L355.32 263.102L354.348 264.608L352.355 262.033L343.365 262.811V264.268L339.381 264.997L338.749 263.442L328.544 267.038C325.677 264.948 324.657 266.115 322.956 266.017L321.158 269.904C312.703 269.564 309.155 269.564 307.795 267.718C305.122 270.682 304.442 267.038 302.838 266.6C301.915 262.276 299.437 263.588 297.736 262.13C295.209 263.782 293.071 265.969 291.37 268.495C291.418 271.022 291.03 273.597 290.106 275.978Z" stroke="#282828" stroke-linecap="round"/>
<path d="M485.405 197.071L480.643 200.618C479.817 203.048 480.255 204.991 479.574 206.109C476.804 210.724 477.193 211.113 478.019 212.133C479.185 213.543 482.198 212.522 483.753 211.599L486.28 212.668L489.05 208.441C487.349 206.983 485.6 207.761 483.899 207.663C484.385 205.574 486.717 205.088 488.37 204.019C489.342 201.298 488.078 198.286 485.405 197.071Z" stroke="#282828" stroke-linecap="round"/>
<path d="M74.7376 268.835L77.8477 269.127L102.582 262.13L111.426 263.102L112.738 257.855C112.447 253.627 108.899 249.352 113.71 245.319C114.147 242.258 113.904 238.905 117.209 236.962L116.091 226.613C114.731 226.661 114.147 225.252 113.467 223.989C111.863 221.268 106.567 221.608 101.659 224.961C99.3262 223.309 96.6049 222.191 95.6817 218.644C92.4259 217.43 89.8504 218.11 87.7608 219.908L88.1496 216.361C87.6151 215 85.7685 215.389 83.6303 216.215C83.0958 216.263 83.4846 217.138 84.0677 218.207C83.2902 218.45 82.5127 218.596 81.6866 218.693C81.1521 219.47 80.326 220.005 79.4513 220.296C77.2159 216.409 75.9525 217.138 73.2798 219.276C72.3565 220.005 71.7734 221.754 71.4332 223.309C70.9959 225.058 71.7734 226.758 73.6686 226.467L73.4742 228.848C74.8348 229.431 74.5433 229.722 73.2798 231.034C72.6967 231.617 74.8834 234.387 74.6405 235.018L70.4614 234.192C70.3642 234.873 70.2184 235.796 70.1212 236.525L72.065 237.351L70.5586 241.432C70.7529 241.723 68.712 241.529 68.1774 241.626L68.226 244.201C70.3642 244.784 69.1979 249.789 67.2056 250.566L70.1212 252.413C70.7529 251.927 72.5995 252.364 73.7658 255.571C73.7658 255.571 76.6814 257.417 76.6328 259.701C76.5842 261.547 75.3694 261.839 75.0292 263.248L74.7376 268.835Z" stroke="#282828" stroke-linecap="round"/>
<path d="M442.934 181.572C444.441 182.592 445.899 182.447 447.405 184.779L451.39 184.001L452.167 182.738L452.799 182.544L453.674 184.196C455.666 183.127 457.464 183.078 458.776 184.098C459.553 184.73 460.671 183.856 461.546 183.564C463.101 184.827 464.607 186.188 466.308 186.139C471.556 190.512 476.367 195.322 480.789 200.521L485.503 197.217C484.822 195.419 483.948 193.767 480.74 193.67C480.595 192.213 479.963 190.949 477.922 190.172C477.485 188.423 475.978 188.471 474.812 187.986C473.84 185.216 471.41 183.71 469.418 181.815C467.183 182.349 466.162 180.843 465.093 179.434L463.392 179.094L462.178 179.823C460.914 178.754 460.574 177.345 460.185 175.887L458.339 175.401L458.825 177.928C457.707 178.608 457.124 176.762 456.541 174.818L452.799 169.425C450.369 158.153 448.28 156.744 446.093 153.683C445.51 155.092 445.413 156.792 444.392 157.57L438.901 160.436C438.026 161.991 436.666 162.428 435.208 162.428C433.167 172.195 432.098 178.511 432.195 186.431H436.423L436.811 185.07L438.755 185.167L440.359 187.694L442.934 181.572Z" stroke="#282828" stroke-linecap="round"/>
<path d="M226.788 336.275L212.161 321.116L208.663 312.224L211.87 309.163L212.793 304.158L216.924 305.033C217.167 304.79 217.507 304.596 217.312 304.158L213.716 302.312L214.834 297.21L228.538 296.53L228.586 287.736H245.545L244.233 289.582L244.088 295.316C245.594 295.899 246.663 294.635 247.635 292.838C250.259 292.449 255.021 294.781 253.709 299.3C251.523 301.729 250.551 304.013 251.328 306.102C252.057 307.803 252.64 309.6 253.029 311.398L251.717 323.399L248.996 325.391C247.781 323.351 245.497 322.622 242.338 323.059C241.366 321.844 240.394 320.29 238.548 322.719L231.453 327.092L232.085 332.922L226.788 336.275Z" stroke="#282828" stroke-linecap="round"/>
<path d="M5.10214 188.569H13.9948C15.9386 185.994 18.7571 186.868 21.9643 189.152L27.1152 189.54L28.2329 190.998L24.4912 192.31C22.0129 191.776 19.6803 190.852 17.5422 189.492C15.9386 190.464 14.0434 190.901 12.1969 190.707L11.225 192.31L3.49854 192.65L5.10214 188.569Z" stroke="#282828" stroke-linecap="round"/>
<path d="M146.268 255.862C145.49 256.883 145.393 259.069 143.255 257.806C132.564 259.118 128.337 263.636 120.902 266.552L111.475 263.102L112.738 257.854C112.447 253.676 108.899 249.352 113.71 245.319C114.147 242.258 113.904 238.905 117.209 236.962L114.682 214.368L130.961 214.854C133.148 213.688 135.432 213.542 137.764 213.542C136.501 216.118 137.181 218.547 140.242 220.831C142.721 231.034 142.429 240.849 143.207 250.809L146.268 255.862Z" fill="#F05305" fill-opacity="0.3" stroke="#282828" stroke-linecap="round"/>
<path d="M15.8904 212.085C15.5988 212.959 15.696 213.397 16.8137 213.397C17.251 213.931 18.9032 210.044 18.6603 213.98L20.1181 214.126C19.6321 216.312 21.09 218.984 22.5478 219.47C24.3458 220.102 25.3662 222.191 26.3867 223.114L28.865 227.682C30.5658 228.848 32.8983 228.022 36.5914 223.066C36.2027 221.414 38.4866 220.539 45.2412 220.976C50.7809 224.961 52.4817 229.674 50.3921 234.97C52.8704 234.387 54.2797 232.686 58.4102 233.755C60.4511 236.379 61.7631 239.245 60.0138 243.132C62.2977 244.007 63.1238 246.485 66.331 242.258C66.1366 241.286 66.9141 240.946 67.886 241.675C68.5177 242.112 69.5382 241.432 70.4615 241.675L72.1623 237.302L70.0727 236.476L70.4129 234.192L74.6406 235.067C74.3004 233.512 72.2109 231.471 73.7659 230.402C74.4462 229.674 74.1546 229.139 73.4257 228.605L73.5229 226.613C69.441 226.127 71.7735 221.559 73.1827 219.276L70.6558 216.992L70.3643 211.939L68.2747 213.445L67.4972 212.279L70.2671 209.753L66.5254 206.886C67.1571 204.894 66.331 202.513 65.6507 200.035L63.0266 199.452C63.0752 200.57 62.6864 201.444 61.5202 201.833C60.5483 201.541 59.9652 202.173 59.7222 203.728L55.0572 201.784L51.364 204.457C51.85 203.242 50.6351 202.513 49.8576 201.639L47.8167 203.048C46.2131 203.582 46.0187 202.707 46.0187 201.639C46.3588 201.298 46.7476 201.007 46.8934 200.472C41.1107 199.598 35.085 199.938 29.7883 196.78H28.1847L27.4558 205.72L22.9365 205.817C18.5631 207.42 16.4249 211.55 15.8904 212.085Z" stroke="#282828" stroke-linecap="round"/>
<path d="M3.15869 199.015L3.69323 200.521C4.81089 201.298 6.94903 199.792 6.80324 203.436C7.82372 203.971 9.08716 202.902 9.81607 205.38C11.0795 206.011 14.2867 200.084 13.1205 208.927L15.9389 212.036C17.6397 209.413 20.1666 206.789 22.7421 205.866L27.3585 205.769L28.136 196.828L16.2791 196.78C13.8494 197.946 11.3711 198.626 8.69841 198.043C6.90043 198.675 5.05386 199.015 3.15869 199.015Z" stroke="#282828" stroke-linecap="round"/>
<path d="M268.239 291.963C266.052 290.991 263.477 288.854 261.922 289.68L256.43 287.736L245.448 287.59H228.197L216.486 287.736L217.701 278.747L214.591 274.763L215.757 273.354L214.98 272.188L212.939 272.82C210.412 272.48 209.489 270.73 208.905 268.641C207.545 268.107 205.601 268.301 205.601 266.017C208.468 261.013 209.1 254.211 214.737 251.441L214.931 249.255L222.998 248.866C226.011 250.809 225.039 252.996 230.141 252.364C233.688 245.999 236.215 234.29 240.832 233.755C243.602 226.856 244.428 217.138 249.19 213.154C251.522 212.328 253.515 211.308 254.389 209.801C254.875 208.927 255.021 206.06 254.584 204.797C254.292 203.874 253.709 204.603 252.786 203.388L251.425 198.14L252.543 197.217L256.819 200.813C257.402 203.777 258.909 206.498 258.617 209.656C258.326 214.272 256.43 214.903 260.998 220.199C261.727 221.414 262.019 222.872 261.776 224.329L253.175 223.503C252.203 225.835 250.113 231.131 258.52 233.026L262.505 244.979L255.118 257.32L256.139 266.309C259.249 272.091 262.893 278.067 267.947 282.78L268.239 291.963Z" fill="#DC4D04" fill-opacity="0.85" stroke="#282828" stroke-linecap="round"/>
<path d="M478.457 318.881C477.387 320.533 476.221 322.087 473.889 322.136C473.014 324.468 471.896 326.557 468.981 327.286C465.773 333.068 463.344 339.725 459.359 344.584L448.182 337.101L446.433 330.59L412.369 309.212L423.594 292.06L423.837 282.44L419.998 279.282C419.512 275.589 418.637 272.236 415.624 270.876L419.609 267.426L430.689 266.94L437.589 267.523C439.97 268.738 441.234 268.787 447.454 273.986L459.991 275.881C462.323 275.2 464.219 273.548 465.239 271.362C468.252 270.925 471.508 268.301 475.444 272.042C476.756 272.479 478.797 272.285 480.838 271.994C478.505 275.735 476.027 278.747 473.597 281.857L473.792 313.002L478.554 318.832L478.457 318.881Z" stroke="#282828" stroke-linecap="round"/>
<path d="M233.008 34.3511C233.008 34.3511 234.223 39.0641 230.578 41.6392C228.732 42.9511 222.803 47.324 222.803 47.324C223.289 49.9963 223.921 56.7014 218.138 57.576C214.154 58.2076 216.243 61.4144 218.916 65.7873L219.11 88.5263C219.11 88.5263 215.563 89.2066 215.806 90.1783C216.389 92.2676 216.389 93.7738 219.062 96.1546C220.762 97.6608 220.811 100.43 220.665 102.082C220.471 104.026 222.658 104.852 223.192 104.852C227.177 104.755 230.335 102.86 234.126 113.257L252.883 113.84C255.07 114.278 257.354 117.63 257.354 117.63L268.093 114.569L331.265 145.811L331.168 140.709C338.166 141.293 338.943 140.467 338.943 140.467L334.667 66.6133C332.14 63.115 329.613 59.7138 332.675 55.8754C332.675 55.8754 332.675 51.794 331.946 49.4618C331.168 47.0325 333.306 45.3805 333.306 45.3805C333.258 42.2709 327.281 42.4652 324.122 42.3195C319.991 42.1251 317.173 41.542 317.902 38.4324C317.902 38.4324 307.065 34.5454 302.838 37.1206C300.602 38.481 295.889 40.6675 295.063 43.4856C294.48 45.3805 295.014 46.6438 296.132 48.5387C298.076 51.8912 291.467 63.3579 283.886 54.1748C283.886 54.1748 273.924 51.4539 268.336 50.1907C262.845 48.976 259.055 44.1658 261.338 41.2505C261.581 40.959 246.42 36.5861 246.42 36.5861C239.325 37.7522 234.223 35.7115 233.008 34.3511Z" stroke="#282828" stroke-linecap="round"/>
<path d="M74.6889 268.787L67.7399 266.357L43.2485 246.242L51.0236 239.731L50.8778 237.399L54.6681 233.706C55.7858 232.929 57.195 233.464 58.4585 233.609C61.7143 238.371 60.8396 240.606 59.9649 243.035C61.8115 243.521 63.2207 246.582 66.2821 242.209C66.1849 240.995 66.9624 240.995 68.2259 241.723V244.056C69.2463 244.493 69.9752 246.485 69.0034 248.283C68.4688 249.255 68.1287 250.226 67.011 250.421L70.2182 252.364C71.1415 252.218 71.919 251.538 73.8142 255.571C74.2029 256.154 79.0137 258.146 75.029 262.908L74.6889 268.738V268.787Z" stroke="#282828" stroke-linecap="round"/>
<path d="M504.892 520.179L528.217 470.571C530.015 464.984 531.036 459.396 533.708 453.76C535.506 451.379 537.742 449.193 536.332 445.694L536.818 440.884C537.061 439.426 537.887 439.475 539.102 440.641L539.831 443.556C540.706 443.265 541.532 442.973 541.483 441.564L539.102 415.861L534.632 411.051L532.056 413.189L531.376 419.797L529.869 421.109C529.092 420.866 527.926 419.7 528.266 422.372L526.03 424.802C523.504 420.137 523.163 424.267 523.844 426.308C523.795 427.182 524.038 428.689 522.823 427.328L521.025 430.243L523.601 432.138H522.094L518.79 434.519L519.276 431.604L515.972 434.908L516.749 438.941L514.514 439.038L514.951 437.24C512.91 435.88 511.209 438.746 509.411 439.718L511.452 443.022L508.925 443.265L507.905 440.252L503.823 440.933C503.969 442.39 502.317 442.779 500.81 443.313L500.567 441.273L498.283 443.556L494.299 443.751L493.521 447.152L488.127 454.926C492.258 458.521 490.557 466.684 491.674 472.66C490.168 477.471 487.204 481.163 484.58 485.05C481.518 487.091 480.109 489.083 479.623 491.124C479.186 493.067 478.214 496.906 478.797 498.849C479.477 501.133 480.741 500.355 480.789 502.639L481.518 506.38C477.777 520.859 487.107 520.616 489.148 524.163C490.071 523.726 491.237 524.455 492.112 523.969C494.104 522.9 496.631 520.228 499.304 521.151C501.539 521.783 503.24 520.957 504.892 520.179Z" stroke="#282828" stroke-linecap="round"/>
<path d="M105.886 96.3491L93.495 96.6892L94.0781 168.162L97.3339 169.328L95.05 176.324L58.5559 174.284L54.3282 177.199L52.0443 176.373L50.4407 171.66L48.3511 171.077C44.2692 180.066 43.5889 178.997 42.0825 180.552C42.3255 181.475 41.7423 182.349 42.0339 183.175C42.9572 185.799 43.5403 188.471 42.1311 189.637C44.0263 191.338 46.5046 192.698 47.1849 195.128C47.3307 198.237 47.1363 200.618 46.3102 201.493C45.4841 202.367 46.456 204.262 48.2054 202.805L49.8575 201.784C50.3921 202.659 51.6069 203.145 51.4612 204.457L55.1543 201.93L59.6735 203.825C60.1109 203.145 59.5764 202.076 61.3257 201.833C62.249 201.833 62.8807 201.201 63.1723 199.598L65.6506 200.181C66.3309 202.513 67.1084 204.845 66.7197 207.032L70.3642 209.801L67.5458 212.376L68.3233 213.543L70.3642 212.182L70.6558 217.089L73.2313 219.47C74.3003 218.45 75.9525 217.089 77.2646 217.77C78.4794 218.401 79.014 220.831 80.1316 220.053C81.2493 219.276 81.5409 218.499 83.3874 218.499C84.7967 218.499 82.2212 216.118 83.922 216.166C84.6995 216.166 85.9629 215.243 87.3721 215.632C88.7814 216.021 87.032 220.928 88.0039 219.859C90.4336 217.235 95.1958 218.256 95.6817 218.839C97.0423 214.028 94.4183 209.607 103.603 204.019L107.684 195.468C113.127 193.184 118.91 194.253 123.915 188.326C130.183 184.147 136.452 180.989 139.854 181.912H146.171L149.718 178.9L166.726 179.094C167.164 178.268 167.406 177.636 169.739 176.47C169.739 174.429 171.586 174.284 172.898 173.652L173.578 148.435L167.212 149.358C164.685 147.706 166.823 147.172 166.823 143.528C165.366 140.272 163.568 139.786 161.77 140.127C160.215 140.418 159.486 138.183 158.66 138.329C157.25 138.62 155.695 137.26 154.723 135.219C154.383 134.539 153.509 134.247 152.925 133.81C151.613 132.887 150.399 132.207 150.739 130.798C150.69 130.749 120.319 107.524 105.886 96.3491Z" fill="#DC4D04" fill-opacity="0.85" stroke="#282828" stroke-linecap="round"/>
<path d="M413.924 385.737L418.783 401.674L417.374 415.813C420.241 418.388 423.108 420.526 427.141 427.231C427.822 428.689 428.113 430.292 428.016 431.896L426.267 439.378L421.893 441.273L422.233 447.832L419.901 447.881C421.116 444.82 419.949 445.354 419.415 445.209C416.256 443.216 415.042 440.253 414.458 437.58C417.034 433.596 416.888 430.389 416.596 427.28L412.32 426.502C409.016 427.328 408.336 426.114 408.044 424.996C406.246 420.769 405.42 422.421 404.74 422.129L402.164 418.583L406.683 410.225L410.182 409.837L407.801 406.727L409.891 395.892L411.883 394.434L406.149 383.065C407.752 384.523 409.599 385.008 413.924 385.737Z" stroke="#282828" stroke-linecap="round"/>
<path d="M81.638 72.6868L82.9015 63.0665L90.4335 59.1794L92.1343 59.6653L94.807 57.4789L99.2291 57.819L99.472 55.7297C108.753 56.167 110.6 53.689 112.252 51.2111L120.027 48.0529H122.943L121.485 46.1094L121.971 44.3116L121.728 41.9794C124.79 41.5907 128.531 42.0766 128.531 38.9184L141.117 39.1127L142.818 35.2257C140.388 34.3511 139.999 30.8528 140.291 27.1602C140.534 24.3907 140.291 18.1715 140.291 18.1715C139.465 17.1511 138.444 16.2279 138.201 14.7703C136.161 14.3816 133.682 14.333 132.856 13.1183C130.086 12.5839 127.219 12.4381 124.401 12.6325C119.59 13.1183 117.598 11.3692 115.654 6.85053C111.037 6.559 106.129 16.4709 102.582 21.4268C93.9323 23.8076 87.7123 27.7432 83.436 32.8449C84.0191 34.9342 82.9987 35.7116 80.9091 37.1206C79.5485 37.9952 74.7863 45.6235 76.3899 49.8506C76.3899 53.1546 73.8144 58.6936 66.3795 62.3862C63.7554 64.6213 60.7426 66.3218 57.4382 67.3908C55.1057 68.1682 49.7603 68.7512 48.1567 70.2574L81.638 72.6868Z" stroke="#282828" stroke-linecap="round"/>
<path d="M41.5967 123.801C42.5685 116.659 38.1465 106.601 52.0444 106.358L54.96 84.785L79.6944 86.9714L81.055 77.2539L105.984 96.3974L93.5437 96.689L94.1754 168.21L97.334 169.328L95.1959 176.276L58.6046 174.283L54.4255 177.247L52.1902 176.518L50.5866 171.66L48.3512 171.125C48.3512 171.125 44.3179 181.086 41.7424 180.065C41.7424 180.065 40.6248 178.851 39.3127 177.49C38.1951 176.324 36.9316 175.158 36.0569 173.506C34.8421 171.174 33.9674 167.481 32.3152 167.773C28.7192 168.356 25.998 163.594 25.998 163.594C25.998 163.594 21.8189 162.428 18.8061 163.254C14.9185 164.323 10.5451 163.205 9.76758 163.74L13.3149 153.828L13.6551 142.313L11.4684 138.863C12.6346 136.822 16.182 134.927 13.8495 128.805C13.6065 128.125 12.3431 128.465 12.3431 128.465L10.8366 123.947L12.6832 122.1L41.5967 123.801Z" stroke="#282828" stroke-linecap="round"/>
<path d="M380.151 430.098L381.852 434.568L381.706 436.803L387.634 437.24L401.581 442.682C402.99 450.456 402.115 456.967 399.831 462.749C399.783 463.866 399.394 464.935 399.54 466.004C399.783 467.948 400.755 470.62 399.686 472.855C396.867 478.588 394.292 484.322 393.611 484.71C391.279 485.974 388.412 489.715 388.363 492.727L389.772 527.079L395.021 527.419L396.43 522.56L394.34 523.338C394.68 521.394 394.243 519.499 396.236 517.556L413.146 510.899C415.236 509.344 416.548 507.012 418.006 504.874L416.013 504.194L419.512 490.978L417.714 490.347L416.256 479.22C411.494 476.305 414.215 471.738 416.159 470.669L426.364 462.02L427.19 463.769L430.98 459.591L430.154 458.279L432.632 457.841L433.361 455.704L445.899 449.533L449.009 449.582C451.39 447.784 453.285 445.84 456.735 444.383L456.492 442.536L460.671 439.33C461.692 438.309 462.518 436.803 463.83 436.852L464.024 434.762L463.247 433.888L465.531 430.487L466.114 428.203L465.725 426.697L464.316 424.559L464.802 416.202C463.733 415.181 464.316 414.453 464.899 413.772L464.607 404.541L467.96 398.905C468.057 397.35 468.155 395.795 467.62 394.24C462.469 397.301 453.868 402.646 449.495 399.925C447.599 400.168 445.461 400.168 443.615 402.549C442.06 402.403 440.65 402.111 438.755 402.257L432.584 403.326C431.466 401.966 430.349 400.654 427.724 402.111L418.735 401.82L417.325 415.862C421.796 419.409 425.683 424.024 427.627 428.737C428.794 431.604 426.655 435.734 426.267 439.378L421.796 441.322L422.039 447.589L419.852 447.93C420.387 446.618 420.97 445.306 419.075 445.111C416.645 443.071 414.798 440.739 414.555 437.678C416.451 434.617 417.18 430.972 416.645 427.377L412.32 426.6C410.619 426.988 408.676 426.988 408.238 425.628C407.072 422.081 405.954 421.887 404.594 422.227L380.151 430.098Z" stroke="#282828" stroke-linecap="round"/>
<path d="M232.376 446.812C232.717 451.331 233.154 455.849 237.284 459.056L254.438 489.569L254.875 503.611L257.937 510.073C258.083 512.6 257.159 515.126 258.714 517.653L260.853 529.605L270.134 540.003C275.917 533.784 278.006 538.788 279.464 542.773C283.011 542.432 286.559 542.092 290.106 542.724C291.758 541.218 293.459 539.76 296.083 538.643L297.444 485.439L305.316 485.682L306.434 455.704L325.677 454.003L327.135 458.036C328.495 456.529 330.439 453.711 333.258 453.566C335.833 453.468 337.048 451.768 339.575 450.456L337.728 447.784L325.337 449.824L311.488 453.031L289.134 450.019L285.393 446.861L250.162 447.249C248.461 445.014 242.095 439.961 237.479 445.937C235.972 444.14 234.077 446.472 232.376 446.812Z" stroke="#282828" stroke-linecap="round"/>
<path d="M173.578 148.435L172.898 173.701C171.78 174.332 170.225 173.701 169.788 176.422C168.573 177.151 167.018 177.636 166.726 179.094L149.67 178.948L146.22 181.864L139.757 181.912C139.562 183.321 139.611 185.022 140.728 185.896C141.7 186.674 141.554 188.277 141.312 189.686L149.475 200.57L152.44 201.687C154.092 200.23 155.598 199.841 156.327 204.651L166.435 206.109C167.164 204.505 166.969 202.27 168.816 201.444C171.586 199.89 171.1 197.169 172.12 194.982C174.355 193.913 172.946 192.407 184.803 192.504C187.865 194.448 190.829 195.079 194.085 198.966L196.466 199.064C196.514 198.238 198.944 196.586 200.402 196.294C202.005 195.42 204.824 196.926 208.566 200.23L215.272 200.813L221.735 196.197L233.008 195.905C234.709 196.586 235.973 198.092 238.451 197.46C240.249 195.42 243.699 193.476 247.635 191.824C247.004 190.026 246.323 188.277 246.906 185.994C247.878 185.168 249.044 185.07 249.19 182.058L262.797 166.947L265.323 142.848L267.267 137.989C263.38 136.386 260.707 134.879 259.881 129.535C259.395 126.619 260.075 122.83 259.784 117.388L257.354 117.825C256.042 116.27 254.73 114.57 253.029 113.987L233.932 113.258L185.581 145.131L173.578 148.435Z" stroke="#282828" stroke-linecap="round"/>
<path d="M205.552 266.163L203.9 266.066L203.366 268.932C200.499 269.03 197.68 268.641 194.959 267.669C188.253 271.848 182.956 271.167 180.235 261.547C178.145 256.202 174.792 254.453 171.245 253.239L159.583 253.287L160.068 234.727C161.915 232.394 163.081 229.09 164.102 225.641C167.212 224.863 166.531 222.142 166.677 219.81C169.787 217.77 167.746 214.514 166.483 212.328L166.677 206.254C166.92 204.554 166.531 202.707 169.01 201.104C169.982 199.938 170.905 200.521 171.877 194.739C173.578 193.427 175.376 192.115 184.56 192.407C187.767 194.107 191.849 195.468 194.084 198.918L196.174 198.82C197.534 197.897 197.923 196.197 200.353 196.148C201.762 196.099 201.811 194.788 208.371 199.938L215.223 200.57L221.588 196.002L233.008 195.759C234.66 196.44 236.021 197.946 238.208 197.314C241.075 194.496 244.525 192.99 247.781 191.629C249.044 193.67 250.648 195.516 252.494 197.023L251.425 197.897L252.786 203.436C253.418 203.922 254.584 204.068 254.632 204.942C255.847 210.336 252.834 212.036 249.239 213.202C244.671 216.749 243.504 226.515 240.929 233.561C235.827 235.067 234.126 244.493 230.238 252.267C226.496 252.996 225.525 251.149 223.144 248.623L214.931 249.157L214.737 251.344C209.489 254.162 208.274 260.381 205.552 266.163Z" fill="#DC4D04" fill-opacity="0.85" stroke="#282828" stroke-linecap="round"/>
<path d="M234.904 346.819L226.74 336.275L232.182 332.825L231.551 326.898L238.257 322.865C239.423 321.99 240.249 319.804 242.29 323.011C245.837 322.573 247.927 323.497 249.044 325.246L251.863 323.302L253.029 311.544C252.981 307.511 248.413 304.839 253.855 299.057C254.779 295.267 251.377 292.643 247.635 292.838C246.712 294.004 246.372 295.899 244.088 295.413L244.185 289.777L245.546 287.736L256.479 287.882L261.776 289.777C263.72 288.756 266.392 291.769 268.19 292.06L267.899 283.023C272.029 277.727 275.091 276.172 278.492 275.346L283.692 277.727L290.106 275.929C288.551 280.156 286.802 283.606 285.198 287.785C282.477 294.878 283.352 303.527 282.137 311.495C276.208 314.119 274.022 318.686 270.96 322.768L268.385 334.526C262.797 340.502 257.84 345.312 254.681 345.069C254.681 341.717 250.988 338.704 248.024 344.243C245.934 345.604 244.428 344.924 242.873 343.369C240.54 340.308 239.812 342.883 238.742 344.438L234.904 346.819Z" stroke="#282828" stroke-linecap="round"/>
<path d="M386.954 313.876L383.358 316.743H382.143L381.414 315.722C378.256 318.88 375.875 322.476 373.445 325.974C374.271 326.169 375 326.606 375.534 327.286L376.701 326.169L378.061 326.266L378.742 328.112L382.872 327.286L383.066 324.808L388.169 324.517C388.898 323.399 389.772 322.379 390.696 321.456L386.954 313.876Z" fill="#F05305" fill-opacity="0.3" stroke="#282828" stroke-linecap="round"/>
<path d="M388.315 372.716L373.494 376.36C372.522 378.109 371.842 379.129 371.453 381.122C371.356 381.656 371.793 382.676 371.939 384.134C372.23 387.001 373.202 392.054 372.328 393.414C370.238 396.621 368.877 402.5 368.975 402.646C370.141 404.346 372.571 406.047 373.98 406.436C375.924 406.922 378.11 406.679 378.596 405.95L378.839 415.279C378.062 414.647 376.993 414.21 376.458 413.529C373.348 413.287 370.53 414.939 366.01 406.29C362.998 406.047 360.033 405.172 357.506 401.577C356.243 401.237 354.202 402.937 352.307 403.375C346.962 402.84 345.406 400.314 344.046 399.536C343.171 398.759 342.539 397.69 342.345 396.524L336.854 398.37L335.882 394.094L333.598 394.192L331.654 410.128L333.452 411.926L316.639 411.44L315.861 441.322L325.191 449.582L337.874 447.589L339.721 450.359L340.547 452.254L350.46 452.351L351.821 453.566L353.667 453.08C359.013 446.083 363.872 444.285 368.829 441.953L369.023 437.289C372.911 434.859 377.09 433.548 381.949 434.471L380.103 429.855L404.74 422.129L402.116 418.291L406.538 410.031L409.988 409.642L407.753 406.63L409.794 395.698L411.835 394.289L407.801 386.418L405.955 382.773L396.527 379.615C393.32 375.048 392.543 375.923 391.571 376.166L388.315 372.716Z" stroke="#282828" stroke-linecap="round"/>
<path d="M9.81593 163.351C8.35811 165.829 7.38623 167.141 7.33764 169.182C7.24045 173.798 2.62402 175.304 0.291504 178.657C2.42964 181.815 4.76215 184.876 5.15091 188.568H14.0922C16.036 185.993 18.8544 186.819 22.0616 189.152L27.2126 189.54L28.3303 190.998L24.5885 192.31C22.1102 191.775 19.7777 190.804 17.6396 189.492C16.036 190.463 14.1408 190.901 12.2942 190.706L11.3223 192.31L3.5473 192.65C3.10996 194.739 2.67261 196.877 3.06136 198.966C4.95653 198.772 6.75451 199.063 8.74686 197.994C11.4195 198.675 13.9464 198.092 16.3761 196.683L29.8367 196.828C34.8904 199.744 41.2077 200.035 47.039 200.375C47.3305 197.314 49.0313 194.302 42.3739 189.686C43.3944 188.374 43.0056 185.362 42.131 183.175C41.645 181.961 42.6169 181.572 42.131 180.26C41.4992 179.92 40.7217 178.9 39.7013 177.928C38.4378 176.567 37.223 175.11 36.1053 173.603C34.6961 169.376 32.8495 167.627 32.8495 167.627C28.5246 168.356 25.852 163.449 25.852 163.449C22.1588 162.428 20.2151 163.206 18.6115 163.254C14.3838 163.497 13.5577 163.983 9.81593 163.351Z" stroke="#282828" stroke-linecap="round"/>
<path d="M43.2002 246.291L36.8344 243.035C36.1055 241.043 34.1617 239.974 32.1694 238.954C32.3638 236.184 30.5172 235.553 29.2538 234.532L28.8164 227.876C31.6349 228.945 34.1132 226.127 36.5429 223.017C35.9597 220.539 41.4994 220.782 45.1926 220.879C48.8857 224.086 52.7733 227.196 50.3922 235.018C51.9472 234.338 53.5508 233.755 55.203 233.318L50.8295 237.448L50.9753 239.78L43.2002 246.291Z" stroke="#282828" stroke-linecap="round"/>
<path d="M340.498 452.4L342.976 457.355C343.802 458.279 344.823 459.153 344.774 460.708C346.718 464.012 349.099 466.344 351.286 469.065C352.987 469.6 354.445 470.328 355.465 471.689C356.485 472.952 357.652 474.167 359.741 474.507C358.867 479.56 361.15 483.933 363.532 484.856C366.35 485.002 369.023 485.488 371.015 487.431C376.749 488.111 377.429 488.889 378.79 489.715C383.504 488.16 385.69 490.784 388.363 492.582C388.995 488.743 391.279 486.605 393.806 484.613C395.798 481.698 397.693 477.082 399.588 473.244C400.998 470.863 399.88 468.336 399.54 465.858L399.929 462.7C403.379 454.003 402.358 448.804 401.775 442.682L387.683 437.24L381.754 436.803L381.949 434.811C376.944 433.207 372.862 435.394 369.12 437.435L368.974 442.05C357.457 447.201 356.826 449.97 353.667 453.226L351.918 453.76L350.508 452.545L340.498 452.4Z" stroke="#282828" stroke-linecap="round"/>
<path d="M489.099 208.295L486.232 212.765C483.462 216.749 491.043 222.871 497.311 228.702L521.511 236.476L529.286 236.136L505.815 263.005L496.339 262.81C493.327 264.511 490.362 266.26 488.224 268.447C485.746 270.001 482.976 270.924 480.352 272.188C478.748 275.735 476.027 278.65 473.549 281.711L473.646 312.904L478.408 318.88L489.342 306.588L507.662 289.291L509.751 289.048L517.429 281.76L517.721 280.302C521.948 277.095 527.197 271.702 528.509 269.078C530.841 264.365 533.805 260.43 537.158 256.591L544.399 235.747C545.857 234.241 546.974 232.443 547.752 230.5C548.141 228.313 549.404 227.536 550.425 226.321L551.251 215.875C553.583 216.215 552.466 211.599 552.611 208.781C551.688 207.955 550.716 206.643 552.563 205.574V202.95C550.862 203.096 549.161 201.153 547.509 202.464C545.322 204.554 542.455 205.817 539.442 206.109C535.895 206.4 533.028 208.441 531.522 207.955C529.14 209.947 526.079 210.627 522.094 209.461C519.47 211.793 517.721 214.854 509.217 212.716L503.823 216.603C495.465 218.887 493.278 212.085 489.099 208.295Z" stroke="#282828" stroke-linecap="round"/>
<path d="M416.11 228.168L412.369 229.577V223.843L410.182 219.713L406.537 218.304L403.622 202.027L400.463 200.764V203.534H394.875L397.742 205.672L398.228 212.425L389.87 223.114L381.997 217.964L376.798 219.859V222.629L372.279 224.086L372.182 221.22L362.268 220.928V224.475H352.792L349.634 224.766L347.447 220.588H340.887L333.841 234.435V234.581C333.938 234.581 334.035 234.63 334.084 234.678C335.104 236.087 335.542 237.837 340.255 237.302L342.976 239.78C342.393 243.91 348.516 246.194 352.064 249.157L355.368 255.717C358.235 257.126 361.685 257.709 362.074 262.519C363.969 263.588 364.747 265.191 366.107 266.6C366.739 267.232 366.156 267.864 366.788 268.35C368.586 269.759 371.89 270.099 372.327 268.058C372.327 268.058 375.34 269.224 377.527 268.933C378.887 268.787 378.742 267.475 380.102 267.184L389.821 275.686L391.571 274.423C398.228 275.978 404.934 275.103 411.591 274.132L419.561 267.329L430.592 266.941L430.689 261.207L425.003 259.264L421.067 250.615L415.382 245.805C416.353 244.299 413.681 242.744 412.369 241.238C410.571 241.724 408.627 241.335 406.586 240.266L408.044 238.42L407.995 235.747L413.195 235.65C414.215 235.018 415.284 234.727 416.062 233.172L416.11 228.168Z" stroke="#282828" stroke-linecap="round"/>
<path d="M419.366 113.015L416.742 115.687L414.555 115.201L413.535 119.574L408.821 120.789L408.384 124.336L404.253 124.821L402.261 122.781L338.068 124.724L338.846 140.807C336.27 141.05 333.646 141.001 331.071 140.71L331.168 145.811L331.897 176.227L323.199 176.713L323.296 179.968L318.339 186.285L318.679 190.755L317.027 191.532C316.881 194.35 316.541 196.78 315.375 197.557L315.424 201.201L319.068 200.424C319.797 204.505 319.991 208.781 323.393 211.891L323.83 214.611L322.227 214.854C324.997 218.256 328.155 221.462 329.905 225.349C326.843 234.775 331.168 233.463 333.841 234.63V234.484L340.887 220.636H347.447L349.634 224.815L352.792 224.523H362.317V220.928L372.23 221.219L372.327 224.086L376.846 222.628V219.859L382.046 217.964L389.918 223.114L398.276 212.425L397.79 205.671L394.923 203.533H400.415V200.764L403.573 202.027L406.489 218.304L410.133 219.713L412.32 223.843V229.576L416.062 228.167L415.965 218.256L418.394 214.611L420.873 214.66L422.087 208.392C425.003 204.797 426.169 200.181 430.883 197.557L432.389 185.702C431.515 177.345 434.09 170.105 435.305 162.428C436.52 161.942 437.881 162.866 438.901 160.533L444.344 157.812C445.413 157.084 445.801 155.432 446.093 153.731C445.364 152.079 444.295 152.371 443.323 152.176C441.719 149.115 439.047 148.824 436.763 147.658L433.556 128.174L431.029 125.453C431.612 118.408 423.351 117.193 419.366 113.015Z" stroke="#282828" stroke-linecap="round"/>
<path d="M270.183 539.954L283.206 566.192L283.352 572.168C282.671 573.625 281.602 573.674 280.387 573.431C279.901 574.111 279.415 574.986 280.533 575.666C282.137 578.533 283.303 582.031 285.393 584.509C287.093 586.55 289.572 587.57 291.564 589.319L296.764 589.708C297.833 588.979 296.861 587.959 300.748 587.57L308.329 587.521C310.71 586.598 308.037 584.218 315.861 584.801C317.124 584.946 317.708 586.355 319.7 585.286C323.344 584.703 326.795 586.064 330.342 586.598C331.411 585.772 330.974 584.315 336.902 585.481L337.485 583.197L344.386 583.294L385.253 545.299C391.716 542.627 393.174 534.755 394.972 527.321L389.821 526.981C389.773 526.35 384.913 529.848 384.281 529.897C381.657 530.188 380.151 529.313 380.491 524.698C380.783 521.248 384.476 518.527 385.448 517.895C386.76 517.021 388.023 520.228 389.335 519.402C389.335 519.402 388.898 504.777 388.315 492.533C385.545 490.881 383.601 487.965 378.693 489.617C376.118 487.674 373.542 487.917 370.967 487.285L342.685 509.733L341.664 514.397C338.457 516.098 335.25 515.855 332.043 516.195C329.759 514.397 327.038 513.28 324.122 513.085L319.408 517.215C318.971 519.499 317.659 519.693 316.638 520.665C315.278 521.394 314.257 522.657 313.869 524.115C309.106 525.281 305.753 524.503 302.692 523.434C303.275 520.665 305.073 518.867 303.567 514.348L297.007 507.012L296.132 538.594C293.897 539.565 291.904 540.975 290.155 542.675C286.85 542.384 284.08 541.946 279.464 542.772C278.784 539.323 275.577 533.541 270.183 539.954Z" fill="#F05305" fill-opacity="0.3" stroke="#282828" stroke-linecap="round"/>
<path d="M389.384 519.742L389.773 526.884C387.635 527.953 386.031 529.022 384.233 530.091C382.241 530.043 380.977 529.508 380.637 527.905C380.151 525.378 380.394 523.629 381.852 521.491C382.872 519.936 384.719 517.993 385.982 517.75C386.614 517.653 387.586 518.625 388.121 519.402L389.384 519.742Z" stroke="#282828" stroke-linecap="round"/>
<path d="M412.32 309.163L409.356 313.536L387.003 313.925L390.647 321.456C384.865 327.286 388.558 328.404 389.919 330.639C387.392 335.352 385.448 341.085 380.394 341.328C379.131 341.668 378.207 341.328 377.964 342.883C377.381 346.527 379.033 354.155 380.491 358.528C381.998 361.929 384.67 364.213 386.128 367.031C387.489 368.975 387.78 370.967 388.412 372.91L391.522 376.408C392.834 376.02 394.292 376.36 396.333 379.761L405.663 382.822C407.655 384.668 410.863 385.203 413.973 385.737L418.832 401.82L427.968 402.063C429.523 401.091 431.126 401.14 432.681 403.18C436.083 402.646 439.096 401.723 443.566 402.306C445.073 400.556 447.357 399.633 449.641 399.876C453.139 402.646 463.15 397.01 467.426 394.191C466.357 392.297 464.462 391.276 462.664 390.11C462.81 387.972 461.935 385.591 461.157 383.259C460.234 381.85 459.554 380.441 460.137 379.421L458.047 374.805L459.359 374.368C459.019 370.869 459.019 367.517 461.157 365.33C459.7 362.367 454.792 359.986 455.083 356.439L459.262 344.632L448.134 337.247L446.288 330.687L412.32 309.163Z" fill="#F05305" fill-opacity="0.3" stroke="#282828" stroke-linecap="round"/>
<path d="M146.219 255.863L152.002 254.211L148.163 224.086C147.677 221.803 145.393 220.782 143.644 219.373L144.567 214.466L137.715 213.591C136.452 216.118 137.132 218.596 140.194 220.879C142.672 231.083 142.38 240.898 143.158 250.858L146.219 255.863Z" fill="#DC4D04" fill-opacity="0.85" stroke="#282828" stroke-linecap="round"/>
<path d="M225.768 1.11729C224.31 1.16588 218.576 -1.84656 215.32 2.86644C215.32 2.86644 212.891 3.93537 212.745 6.41334C212.55 10.2518 212.162 22.2043 212.162 22.2043C211.773 21.5727 208.857 22.0586 208.42 24.0021C207.788 26.6744 204.824 25.9456 204.581 27.306C204.095 29.9784 206.476 32.4563 209.246 34.8857C209.975 35.5174 209.003 38.9185 209.683 39.5501C211.821 41.4451 215.612 42.7569 215.612 42.7569C216.098 47.7614 216.875 52.7174 218.041 57.6247C218.625 57.9649 224.747 55.8756 222.658 47.2756C222.415 46.2552 235.244 42.1253 232.911 34.1083C232.668 33.2823 230.579 34.2541 230.239 32.7479C229.461 29.3467 229.558 28.5207 228.295 27.9863C227.663 27.7433 224.942 30.3185 224.407 29.9784C223.192 29.2495 221.686 27.549 222.318 26.6744C223.484 25.2168 231.648 20.1637 231.745 17.3456C231.842 13.167 230.336 12.7783 228.295 11.6608C227.129 11.0292 227.566 9.03708 227.906 7.91956C228.149 7.23933 232.523 5.73312 232.037 4.12972C231.696 3.06079 231.065 2.86644 230.822 2.04045C230.627 1.40881 227.323 4.90713 227.129 4.37266C226.594 3.01221 226.448 2.13763 225.768 1.11729Z" stroke="#282828" stroke-linecap="round"/>
<path d="M331.12 145.714L267.85 114.569L259.492 117.096C260.075 122.052 259.638 125.89 259.735 128.903C259.881 133.324 262.942 136.434 267.17 137.94L265.323 142.507L262.651 166.947L249.433 181.475C248.996 182.252 248.801 183.078 248.85 183.953C248.558 184.681 248.024 185.264 247.343 185.556C246.42 186.139 246.857 187.111 246.76 187.791C245.983 192.941 256.771 200.569 256.771 200.569C257.305 202.902 258.131 204.942 258.569 207.42C259.006 210.044 257.694 213.251 258.083 215.535C258.617 218.887 262.31 219.179 261.824 224.28L253.321 223.503C250.842 228.41 252.592 231.617 258.617 233.026L262.602 244.93C269.016 243.472 273.536 244.25 281.894 240.46L289.523 239.731C290.932 237.35 293.897 236.038 292.876 231.957L303.421 230.791C304.247 230.014 304.636 228.848 305.996 228.556C308.037 228.507 308.669 227.147 309.204 225.738C310.176 223.454 312.605 222.628 314.403 221.219C314.743 213.688 320.429 215.826 323.879 214.417L323.49 211.793C321.498 209.607 319.797 207.177 319.165 200.278L315.472 200.958L315.375 197.751C316.493 196.537 317.319 193.67 317.027 191.629L318.728 190.803L318.291 186.43L323.393 179.92L323.247 176.713L332.043 176.227L331.12 145.714Z" stroke="#282828" stroke-linecap="round"/>
<path d="M390.064 275.589L391.668 274.374C398.131 276.026 404.837 275.103 411.591 274.131L415.625 270.779C417.909 272.139 419.609 274.423 419.95 279.282L423.837 282.391V291.817L409.405 313.536L386.906 313.925L383.456 316.694L382.095 316.743L381.317 315.722L381.852 302.312L386.906 294.684L394.924 287.493L390.064 284.432V275.589Z" fill="#F05305" fill-opacity="0.3" stroke="#282828" stroke-linecap="round"/>
<path d="M41.5965 123.898C42.5684 116.756 38.1463 106.698 52.0442 106.455L54.9598 84.8822L79.6942 87.0687L81.5894 72.4924L48.4968 70.063C45.4354 74.776 43.6374 78.7602 39.021 80.6065C34.6475 82.3557 32.9468 87.7489 31.6833 92.4133L18.6601 107.33C18.1742 110.731 16.2304 112.966 13.6063 114.715C11.3224 117.776 9.86459 121.372 9.42725 125.113L12.7316 122.1L41.5965 123.898Z" stroke="#282828" stroke-linecap="round"/>
<path d="M262.602 244.93L255.119 257.223L256.139 266.114C259.346 272.382 263.039 278.164 268.045 282.877C271.106 279.427 272.467 276.804 278.59 275.2L283.886 277.532L289.863 275.832C291.321 274.131 291.224 271.41 291.321 268.835C293.362 265.483 295.597 263.733 297.784 262.13C299.436 263.393 302.352 262.422 302.546 266.211C304.49 268.398 306.337 269.71 307.746 267.669C309.398 270.098 316.396 269.321 321.207 269.855C321.644 268.495 322.276 267.183 323.005 265.968C324.608 265.726 326.066 265.094 328.544 266.892L338.749 263.345L339.429 264.851L343.511 264.219L343.414 262.713L352.404 261.984L354.396 264.559L355.32 263.15L356.875 264.268L358.187 262.762L362.366 262.616C361.491 260.235 361.88 257.417 355.514 255.911L352.258 249.254C349.002 246.096 343.171 244.687 342.782 239.634L340.255 237.205C338.117 237.302 336.271 238.225 333.89 234.386C330.051 233.803 327.475 233.22 330.002 225.446C328.058 220.685 325.045 218.45 322.421 214.806C316.93 215.875 314.744 215.583 314.549 221.268C312.8 222.677 310.224 223.357 309.447 225.544C308.766 227.147 308.183 228.41 305.754 228.605C304.83 229.236 304.053 230.014 303.324 230.84L292.925 231.909C293.459 233.852 293.265 235.65 291.03 237.836C290.447 238.419 290.009 239.148 289.426 239.78L281.845 240.509C273.196 244.347 268.822 243.521 262.602 244.93Z" stroke="#282828" stroke-linecap="round"/>
<path d="M363.046 553.705C362.269 553.802 361.442 553.948 360.714 554.239C360.179 554.434 359.693 554.725 359.256 555.065C358.964 555.405 358.818 555.843 358.721 556.329C358.624 556.766 357.701 557.349 357.361 557.446C356.777 557.495 356.243 557.495 355.66 557.446C354.785 557.543 353.959 557.155 353.522 556.377C352.793 555.405 351.821 554.628 351.189 553.511C350.703 552.879 350.314 552.15 350.023 551.421C349.877 550.79 349.829 550.109 349.877 549.478C349.829 548.652 350.266 547.923 350.995 547.534L351.238 547.388C352.112 546.951 352.307 545.979 352.939 545.348C353.57 544.716 354.542 544.036 355.271 543.404C355.806 543.016 356.34 542.627 356.972 542.335C357.749 541.947 358.575 541.655 359.45 541.509C360.082 541.364 360.859 541.121 361.394 540.975C361.491 540.926 361.637 540.926 361.734 540.926L362.074 540.878C362.9 540.732 363.678 541.024 364.212 541.655C364.795 542.433 365.476 543.113 366.059 543.89C366.35 544.279 366.302 545.202 366.593 545.736C366.982 546.368 367.322 547.048 367.663 547.777C367.905 548.555 367.565 549.381 367.225 550.061C366.836 550.79 366.302 551.421 365.67 551.956C365.184 552.442 364.65 552.879 364.115 553.268C363.726 553.365 363.386 553.511 363.046 553.705Z" stroke="#282828" stroke-linecap="round"/>
</g>
<defs>
<clipPath id="clip0_14_462">
<rect width="553" height="590" fill="white"/>
</clipPath>
</defs>
</svg>
