<svg width="550" height="587" viewBox="0 0 550 587" fill="none" xmlns="http://www.w3.org/2000/svg">
<g clip-path="url(#clip0_5_24)">
<path d="M336.138 124.139L399.934 122.253L401.964 124.284L406.169 123.752L406.604 120.175L411.292 118.87L412.258 114.471L414.288 115.147L416.85 112.44L415.448 105.528L417.671 105.624L412.258 100.79L397.373 76.1848L397.324 73.1877C393.941 71.0607 391.235 68.0152 389.591 64.3414L389.446 62.0693L387.175 60.4258L387.755 56.8002L394.424 65.6949C395.004 66.3717 394.328 66.8551 394.908 67.6285C396.648 70.0455 399.644 72.4626 401.432 73.9128C402.351 73.6227 403.414 73.8161 403.849 71.9792L405.589 60.3774L397.759 44.425C392.491 48.1473 387.175 49.5975 381.907 44.0866L375.527 44.6667C374.077 45.2952 372.482 46.262 371.612 44.7151L361.173 50.806L343.919 46.9387C341.309 46.407 338.554 45.5369 336.428 45.9236C334.253 47.2771 332.658 46.2136 331.112 45.1985C330.242 46.7454 329.275 48.2923 330.145 49.2107L330.822 55.495C329.275 57.9604 327.873 60.4741 332.707 66.275L336.138 124.139Z" stroke="black" stroke-linecap="round"/>
<path d="M227.298 294.926L214.2 295.554L211.591 293.814L215.505 286.273L227.201 286.128L227.298 294.926Z" stroke="black" stroke-linecap="round"/>
<path d="M191.098 301.79C191.098 302.564 190.47 303.192 189.697 303.192C188.924 303.192 188.295 302.564 188.295 301.79C188.295 301.017 188.924 300.389 189.697 300.389C190.47 300.389 191.098 301.017 191.098 301.79Z" stroke="black" stroke-linecap="round"/>
<path d="M196.608 290.527C196.608 291.155 196.125 291.639 195.496 291.639C194.868 291.639 194.385 291.155 194.385 290.527C194.385 289.899 194.868 289.415 195.496 289.415C196.076 289.415 196.608 289.899 196.608 290.527Z" stroke="black" stroke-linecap="round"/>
<path d="M526.366 235.032L503.071 261.619L493.985 261.474C492.873 261.813 488.669 264.375 486.252 266.502C484.271 268.242 481.226 269.257 478.084 270.707C476.248 270.707 473.976 271.384 472.671 270.466C469.627 267.517 466.147 268.967 462.667 270.031C461.507 272.109 459.96 273.801 457.399 274.478L444.93 272.544C441.982 269.982 438.695 267.807 435.167 266.163L428.256 265.68V260.072L422.794 258.091L418.88 249.099L413.225 244.603C414.288 242.912 411.533 241.51 410.132 240.011C408.199 240.446 406.314 240.059 404.38 239.044L406.072 237.014L405.975 234.404L410.953 234.5C412.017 233.824 413.225 233.533 414.047 231.793L413.902 217.194L416.27 213.472L418.735 213.569L419.846 207.333C422.843 203.659 423.906 199.163 428.836 196.311L430.141 185.531L434.104 185.435L434.635 184.178L436.569 184.226L438.212 186.933L440.58 180.649C442.127 181.664 444.205 181.712 445.075 183.888L449.038 183.114L449.714 181.857L450.439 181.712L451.406 183.404C452.663 182.631 454.209 181.857 456.239 183.163C456.819 183.404 457.496 183.549 459.042 182.679C460.637 183.549 461.604 185.29 463.875 185.193C468.95 189.64 473.928 194.281 478.278 199.55C477.891 199.937 477.698 201.339 477.408 204.529L475.523 207.913C473.976 210.427 475.861 212.602 478.761 211.587L481.323 210.62L483.884 211.684C480.791 215.261 488.137 221.448 494.758 227.636L518.634 235.274L526.366 235.032Z" stroke="black" stroke-linecap="round"/>
<path d="M82.1617 62.6978L89.8945 58.8305L91.4894 59.4106L94.1476 57.0903L98.594 57.477L98.8357 55.3983C108.067 55.8334 109.952 53.368 111.595 50.9027L119.328 47.7122L122.179 47.8089L120.729 45.8752L121.116 44.3283L121.068 41.7663C124.112 41.3796 127.786 41.863 127.834 38.7208L140.303 38.9142L142.043 35.337C139.627 34.4669 139.24 30.9863 139.53 27.3125C139.772 24.557 139.53 18.3694 139.53 18.3694C138.708 17.3543 137.693 16.4358 137.452 14.9856C138.128 14.6956 141.27 15.2273 143.155 12.6653C144.121 11.3601 145.378 8.70132 147.021 9.23307C148.954 9.81316 152.579 10.1999 152.821 8.99137C153.062 7.68617 156.59 4.83408 161.714 4.83408C171.09 4.83408 183.221 1.25687 187.184 2.41705C191.147 3.57722 196.318 0.870146 198.59 1.01517C200.861 1.16019 201.586 3.6739 204.728 1.54691C205.888 0.725124 210.141 4.06063 214.2 2.90045C214.2 2.90045 211.784 3.96394 211.639 6.42932C211.445 10.2482 211.059 22.14 211.059 22.14C210.672 21.5116 207.772 21.995 207.337 23.9286C206.709 26.5873 203.761 25.8622 203.519 27.2158C203.036 29.8745 205.404 32.3399 208.159 34.7569C208.884 35.3853 207.917 38.7692 208.594 39.3976C210.721 41.2829 214.49 42.5881 214.49 42.5881C214.974 47.5672 215.747 52.4979 216.907 57.3803C212.895 57.6704 215.022 61.3442 217.728 65.3082L217.922 88.0283C217.922 88.0283 214.297 88.7534 214.539 89.6718C215.119 91.7505 215.215 93.2974 217.873 95.6661C219.565 97.1646 219.613 99.7267 219.468 101.419C219.275 103.352 221.257 104.222 221.74 104.222C225.703 104.126 229.038 102.192 232.808 112.537L185.299 143.765C178.243 146.81 166.643 148.599 166.208 148.454C163.55 147.294 166.643 144.393 165.725 142.411C164.807 140.429 163.743 138.979 160.747 139.318C159.152 139.511 158.282 137.432 157.654 137.529C155.092 137.964 154.416 135.015 153.836 134.532C151.564 132.453 149.341 131.873 149.873 129.988L80.5184 77.0549L82.1617 62.6978Z" stroke="black" stroke-linecap="round"/>
<path d="M231.116 444.54C232.856 444.057 234.741 441.785 236.287 443.622C237.834 441.688 242.135 437.918 249.047 445.024L283.941 444.54L287.663 447.779L309.653 450.631L323.572 447.489L314.148 439.126L314.873 409.397L331.643 409.88L329.807 407.946L331.788 392.236C331.547 392.284 331.305 392.187 331.063 392.236C327.004 393.686 322.702 393.348 318.401 393.444L316.902 396.393L314.148 394.121L317.192 390.012L313.036 381.649L312.408 362.845L305.255 363.328V359.944L302.065 359.461L301.243 360.959L295.395 360.669L293.172 369.177C290.272 368.645 287.566 367.92 283.216 370.144C279.35 368.887 275.87 371.788 270.457 352.5L268.379 351.291L246.34 350.953L236.336 354.385C238.849 361.588 244.165 365.697 243.972 376.38L242.232 378.024C243.634 382.858 244.939 387.885 248.08 390.205C248.418 391.559 247.693 392.526 247.597 393.541C247.258 397.263 245.325 407.753 244.455 405.916C244.455 405.916 240.927 406.69 240.589 409.542C240.444 410.944 238.704 411.137 238.076 412.829C236.287 417.615 234.451 425.156 233.098 432.068C232.953 432.89 231.889 432.503 231.793 433.277C231.406 435.452 231.841 437.047 231.696 439.368C231.648 440.045 230.778 438.884 230.584 439.755C230.439 440.77 231.309 443.815 231.116 444.54Z" stroke="black" stroke-linecap="round"/>
<path d="M233.629 345.055L237.496 342.687C239.139 338.868 240.444 339.98 241.749 341.671C240.105 343.17 238.366 344.62 238.221 347.279C238.607 350.953 236.916 350.663 235.707 351.291C235.176 350.276 234.403 349.358 234.692 348.197C234.596 347.086 234.644 345.974 233.629 345.055Z" stroke="black" stroke-linecap="round"/>
<path d="M158.717 251.951L151.322 252.918L147.504 222.947C147.021 220.675 144.75 219.66 143.01 218.258L143.928 213.375L148.713 209.605L153.691 209.798L157.364 203.901L165.628 205.206L165.677 211.78C168.045 214.294 167.61 217.678 165.822 218.741C165.967 221.883 165.387 224.494 163.308 224.445C162.052 227.878 160.94 231.938 159.152 233.388L158.717 251.951Z" stroke="black" stroke-linecap="round"/>
<path d="M337.83 448.214L332.707 451.115C327.632 451.163 327.342 454.112 325.409 455.707L323.959 451.695L304.772 453.387L303.66 483.116L295.83 482.923L295.299 504.386C297.425 506.996 300.373 509.897 301.823 511.83C303.273 513.764 302.355 517.341 300.953 520.773C304.482 522.272 308.396 522.562 312.118 521.498C312.649 520.048 313.423 518.985 314.389 518.453C315.984 517.535 317.289 516.374 317.772 514.489L322.557 510.477C325.505 510.719 327.777 511.927 330.097 513.571C334.978 513.619 337.878 512.749 339.908 511.734L340.874 507.238L368.954 484.808C365.426 482.246 363.638 482.826 361.656 482.343C359.675 481.859 357.113 478.234 357.79 472.046C355.857 471.659 354.6 470.596 353.537 469.291C352.329 467.26 350.734 467.454 349.284 466.584C347.109 463.586 343.049 459.622 342.759 457.254C342.614 456.094 341.986 456.19 341.164 454.885C340.101 453.435 338.748 450.003 337.83 448.214Z" stroke="black" stroke-linecap="round"/>
<path d="M373.449 325.622L374.609 324.511L376.011 324.607L376.735 326.589L380.699 325.816L380.892 323.302L385.87 323.012C384.227 325.864 386.692 327.459 387.707 328.91C384.372 336.692 381.52 339.448 378.959 339.593C375.527 339.593 375.962 340.85 375.624 341.961C375.431 338.771 375.479 335.581 375.769 332.438C376.107 328.91 374.947 326.347 373.449 325.622Z" stroke="black" stroke-linecap="round"/>
<path d="M115.413 225.557C113.866 225.364 113.335 223.285 112.078 222.077C109.613 219.708 104.925 221.497 101.156 223.769C96.6125 221.497 95.9842 219.466 95.1625 217.533C96.0808 215.067 95.4525 211.829 96.7091 209.266C97.8207 206.946 99.7056 204.771 103.089 202.934L107.197 194.329C110.725 193.169 113.915 192.734 116.67 191.767C119.328 190.849 121.696 189.302 123.146 187.368C128.414 184.129 134.938 179.972 138.95 180.987C138.902 182.292 138.902 183.646 139.723 184.758C141.076 185.676 140.786 187.223 140.496 188.77L148.616 199.695L151.709 200.71C152.144 200.178 154.367 197.471 155.479 203.466L157.315 203.852L153.739 209.847L148.713 209.557L143.88 213.327L136.582 212.457C132.377 212.409 131.99 213.182 130.202 213.714L114.011 213.23L115.413 225.557Z" stroke="black" stroke-linecap="round"/>
<path d="M288.533 274.575C287.131 278.78 285.439 281.777 283.699 286.37C281.38 292.364 281.911 301.645 280.703 309.863C274.613 312.619 272.68 317.066 269.539 321.03L267.122 332.68C262.724 336.982 258.616 342.542 253.3 343.218C252.961 336.692 247.355 339.835 246.727 342.397C244.069 344.185 243.15 342.348 241.652 341.768C239.719 343.17 238.317 344.814 238.269 347.182C238.559 350.953 236.819 350.759 235.611 351.485L236.336 354.337L246.388 350.905L268.427 351.291L270.457 352.5C275.483 371.063 279.543 369.226 283.12 370.144C288.726 367.824 290.224 369.081 293.172 369.081L295.347 360.621L301.243 360.959L301.968 359.412L305.255 359.896L305.303 363.328L312.408 362.796L313.133 381.504L317.192 389.915L314.099 394.121L316.902 396.49L318.401 393.493L327.68 393.348L331.063 392.236L333.963 392.187L335.026 396.345L340.439 394.556C340.633 395.62 341.213 396.635 341.986 397.408C343.726 399.052 347.012 401.324 349.96 401.372C352.039 401.42 353.682 399.293 355.518 399.68C357.983 403.112 360.931 404.079 363.976 404.369C366.248 407.898 367.794 412.2 374.271 411.524L376.784 413.312L376.591 404.273C372.096 405.723 369.341 403.644 367.021 400.744C367.504 397.166 368.906 393.928 370.549 390.737C370.646 387.112 370.211 383.534 369.293 380.006C369.099 379.184 370.163 376.187 371.467 374.446L386.16 370.772C384.662 362.603 379.345 360.959 377.799 355.158C375.769 347.376 375.141 339.303 376.011 331.327C375.721 327.459 373.981 325.381 371.419 324.317L375.769 318.081L379.297 314.214L379.829 300.679L384.758 293.186L392.733 286.031L387.948 282.889V274.333L378.04 265.873C377.17 265.97 376.736 266.84 376.107 267.372C374.126 268 372.241 267.034 370.356 266.792C369.341 269.112 365.088 267.904 364.605 266.55C364.46 266.163 364.798 265.39 364.218 265.197C363.106 263.746 361.85 262.441 360.448 261.281L356.292 261.474L354.939 263.021L353.392 261.764L352.425 263.263L350.444 260.701L341.503 261.474V262.925L337.54 263.65L336.911 262.103L326.762 265.68C323.91 263.601 322.895 264.762 321.204 264.665L319.416 268.532C311.006 268.194 307.478 268.194 306.125 266.357C303.467 269.306 302.79 265.68 301.195 265.245C300.277 260.943 297.812 262.248 296.12 260.798C293.607 262.441 291.481 264.617 289.789 267.13C289.837 269.644 289.451 272.206 288.533 274.575Z" stroke="black" stroke-linecap="round"/>
<path d="M482.772 196.07L478.036 199.598C477.214 202.015 477.649 203.949 476.973 205.061C474.218 209.653 474.605 210.04 475.426 211.055C476.586 212.457 479.583 211.442 481.129 210.523L483.642 211.587L486.397 207.381C484.706 205.931 482.966 206.704 481.274 206.608C481.757 204.529 484.077 204.046 485.721 202.982C486.687 200.275 485.431 197.278 482.772 196.07Z" stroke="black" stroke-linecap="round"/>
<path d="M74.3322 267.469L77.4253 267.759L102.025 260.798L110.822 261.764L112.127 256.544C111.837 252.338 108.308 248.084 113.093 244.072C113.528 241.026 113.286 237.691 116.573 235.757L115.461 225.461C114.108 225.509 113.528 224.107 112.851 222.85C111.257 220.143 105.989 220.482 101.107 223.817C98.7873 222.173 96.0808 221.062 95.1626 217.533C91.9244 216.324 89.3629 217.001 87.2847 218.79L87.6713 215.261C87.1397 213.907 85.3032 214.294 83.1766 215.116C82.645 215.164 83.0316 216.034 83.6116 217.098C82.8383 217.339 82.065 217.484 81.2434 217.581C80.7118 218.355 79.8902 218.886 79.0202 219.176C76.797 215.309 75.5404 216.034 72.8822 218.161C71.964 218.886 71.384 220.627 71.0457 222.173C70.6107 223.914 71.384 225.606 73.2689 225.316L73.0756 227.684C74.4288 228.264 74.1388 228.554 72.8822 229.86C72.3023 230.44 74.4771 233.195 74.2355 233.824L70.0791 233.002C69.9824 233.679 69.8374 234.597 69.7408 235.322L71.674 236.144L70.1757 240.204C70.3691 240.495 68.3392 240.301 67.8076 240.398L67.8559 242.96C69.9824 243.54 68.8225 248.519 66.8409 249.293L69.7408 251.129C70.3691 250.646 72.2056 251.081 73.3655 254.272C73.3655 254.272 76.2654 256.109 76.217 258.381C76.1687 260.218 74.9604 260.508 74.6221 261.909L74.3322 267.469Z" stroke="black" stroke-linecap="round"/>
<path d="M440.532 180.649C442.03 181.664 443.48 181.519 444.978 183.839L448.941 183.066L449.714 181.809L450.343 181.616L451.213 183.259C453.194 182.196 454.982 182.147 456.287 183.163C457.061 183.791 458.172 182.921 459.042 182.631C460.589 183.888 462.087 185.241 463.779 185.193C468.998 189.544 473.783 194.329 478.181 199.502L482.869 196.215C482.192 194.426 481.323 192.782 478.133 192.686C477.988 191.235 477.359 189.979 475.33 189.205C474.895 187.465 473.396 187.513 472.236 187.03C471.27 184.274 468.853 182.776 466.872 180.891C464.649 181.422 463.634 179.924 462.57 178.522L460.879 178.184L459.67 178.909C458.414 177.845 458.076 176.443 457.689 174.993L455.852 174.51L456.336 177.023C455.224 177.7 454.644 175.863 454.064 173.93L450.343 168.564C447.926 157.349 445.848 155.947 443.673 152.901C443.093 154.303 442.997 155.995 441.982 156.769L436.52 159.621C435.65 161.168 434.297 161.603 432.847 161.603C430.817 171.319 429.754 177.603 429.851 185.483H434.055L434.442 184.129L436.375 184.226L437.97 186.74L440.532 180.649Z" stroke="black" stroke-linecap="round"/>
<path d="M225.558 334.565L211.011 319.483L207.531 310.637L210.721 307.591L211.639 302.612L215.747 303.482C215.989 303.241 216.327 303.047 216.134 302.612L212.557 300.775L213.669 295.699L227.298 295.023L227.346 286.273H244.214L242.909 288.11L242.764 293.814C244.262 294.394 245.325 293.137 246.292 291.349C248.902 290.962 253.638 293.282 252.333 297.778C250.158 300.195 249.192 302.467 249.965 304.546C250.69 306.238 251.27 308.026 251.656 309.815L250.352 321.755L247.645 323.737C246.437 321.707 244.165 320.982 241.024 321.417C240.057 320.208 239.091 318.661 237.254 321.078L230.198 325.429L230.826 331.23L225.558 334.565Z" stroke="black" stroke-linecap="round"/>
<path d="M5.0747 187.61H13.9192C15.8524 185.048 18.6555 185.918 21.8454 188.19L26.9684 188.577L28.08 190.027L24.3585 191.332C21.8937 190.8 19.5738 189.882 17.4473 188.528C15.8524 189.495 13.9675 189.93 12.1309 189.737L11.1643 191.332L3.4798 191.67L5.0747 187.61Z" stroke="black" stroke-linecap="round"/>
<path d="M145.474 254.562C144.701 255.577 144.605 257.752 142.478 256.495C131.845 257.8 127.641 262.296 120.246 265.197L110.87 261.764L112.127 256.544C111.837 252.386 108.308 248.084 113.093 244.072C113.528 241.026 113.286 237.691 116.573 235.757L114.06 213.279L130.25 213.762C132.425 212.602 134.697 212.457 137.017 212.457C135.76 215.019 136.437 217.436 139.482 219.708C141.946 229.86 141.656 239.624 142.43 249.534L145.474 254.562Z" stroke="black" stroke-linecap="round"/>
<path d="M15.8041 211.007C15.5141 211.877 15.6107 212.312 16.7223 212.312C17.1573 212.844 18.8005 208.976 18.5589 212.892L20.0088 213.037C19.5255 215.212 20.9754 217.871 22.4253 218.354C24.2135 218.983 25.2285 221.062 26.2434 221.98L28.7083 226.524C30.3998 227.684 32.7197 226.862 36.3928 221.932C36.0062 220.288 38.2777 219.418 44.9956 219.853C50.5053 223.817 52.1969 228.506 50.1186 233.775C52.5835 233.195 53.9851 231.503 58.0932 232.567C60.123 235.177 61.428 238.029 59.6881 241.896C61.9596 242.766 62.7812 245.232 65.971 241.026C65.7777 240.059 66.551 239.721 67.5176 240.446C68.1459 240.881 69.1608 240.204 70.0791 240.446L71.7707 236.095L69.6925 235.274L70.0308 233.002L74.2355 233.872C73.8972 232.325 71.819 230.295 73.3656 229.231C74.0422 228.506 73.7522 227.974 73.0273 227.443L73.1239 225.461C69.0642 224.977 71.384 220.433 72.7856 218.161L70.2724 215.889L69.9824 210.862L67.9042 212.36L67.1309 211.2L69.8858 208.686L66.1643 205.834C66.7926 203.852 65.971 201.484 65.2944 199.018L62.6845 198.438C62.7329 199.55 62.3462 200.42 61.1863 200.807C60.2197 200.517 59.6397 201.145 59.3981 202.692L54.7584 200.758L51.0853 203.417C51.5686 202.209 50.3603 201.484 49.587 200.613L47.5571 202.015C45.9622 202.547 45.7689 201.677 45.7689 200.613C46.1072 200.275 46.4939 199.985 46.6389 199.453C40.8875 198.583 34.8946 198.922 29.6266 195.779H28.0317L27.3067 204.674L22.812 204.771C18.4622 206.366 16.3357 210.475 15.8041 211.007Z" stroke="black" stroke-linecap="round"/>
<path d="M3.14148 198.003L3.67311 199.502C4.78471 200.275 6.91125 198.777 6.76626 202.402C7.7812 202.934 9.03779 201.87 9.76275 204.336C11.0193 204.964 14.2091 199.067 13.0492 207.865L15.8524 210.958C17.5439 208.348 20.0571 205.738 22.6186 204.819L27.21 204.722L27.9833 195.828L16.1907 195.779C13.7742 196.94 11.3093 197.616 8.65115 197.036C6.86292 197.665 5.02637 198.003 3.14148 198.003Z" stroke="black" stroke-linecap="round"/>
<path d="M266.784 290.479C264.609 289.512 262.047 287.385 260.501 288.207L255.04 286.273L244.117 286.128H226.96L215.312 286.273L216.52 277.33L213.427 273.366L214.587 271.964L213.814 270.804L211.784 271.433C209.271 271.094 208.352 269.354 207.772 267.275C206.419 266.743 204.486 266.937 204.486 264.665C207.337 259.686 207.966 252.918 213.572 250.163L213.765 247.987L221.788 247.601C224.785 249.534 223.818 251.71 228.893 251.081C232.421 244.749 234.934 233.098 239.526 232.567C242.28 225.702 243.102 216.034 247.838 212.07C250.158 211.248 252.14 210.233 253.01 208.735C253.493 207.865 253.638 205.013 253.203 203.756C252.913 202.837 252.333 203.562 251.415 202.354L250.062 197.133L251.173 196.215L255.426 199.792C256.006 202.741 257.504 205.448 257.214 208.59C256.924 213.182 255.04 213.811 259.583 219.08C260.308 220.288 260.598 221.738 260.356 223.189L251.801 222.367C250.835 224.687 248.757 229.956 257.118 231.842L261.081 243.733L253.735 256.012L254.75 264.955C257.843 270.707 261.468 276.653 266.494 281.342L266.784 290.479Z" stroke="black" stroke-linecap="round"/>
<path d="M475.861 317.259C474.798 318.903 473.638 320.45 471.318 320.498C470.448 322.819 469.337 324.897 466.437 325.622C463.247 331.375 460.83 337.998 456.867 342.832L445.751 335.387L444.011 328.91L410.132 307.64L421.296 290.575L421.538 281.004L417.72 277.862C417.236 274.188 416.366 270.852 413.37 269.499L417.333 266.067L428.352 265.583L435.215 266.163C437.584 267.372 438.84 267.42 445.026 272.593L457.496 274.478C459.815 273.801 461.7 272.158 462.715 269.982C465.712 269.547 468.95 266.937 472.865 270.659C474.17 271.094 476.2 270.901 478.229 270.611C475.91 274.333 473.445 277.33 471.028 280.424L471.221 311.41L475.958 317.211L475.861 317.259Z" stroke="black" stroke-linecap="round"/>
<path d="M231.744 34.1768C231.744 34.1768 232.953 38.8659 229.328 41.4279C227.491 42.7331 221.595 47.0838 221.595 47.0838C222.078 49.7425 222.706 56.4135 216.955 57.2836C212.992 57.9121 215.07 61.1025 217.728 65.4532L217.922 88.0766C217.922 88.0766 214.394 88.7534 214.635 89.7202C215.215 91.7988 215.215 93.2974 217.873 95.6661C219.565 97.1646 219.613 99.92 219.468 101.564C219.275 103.497 221.45 104.319 221.981 104.319C225.945 104.222 229.086 102.337 232.856 112.682L251.511 113.262C253.686 113.697 255.958 117.033 255.958 117.033L266.639 113.987L329.468 145.07L329.372 139.994C336.331 140.574 337.105 139.753 337.105 139.753L332.851 66.275C330.338 62.7945 327.825 59.4106 330.87 55.5917C330.87 55.5917 330.87 51.5311 330.145 49.2108C329.372 46.7937 331.498 45.1501 331.498 45.1501C331.45 42.0563 325.505 42.2497 322.364 42.1047C318.256 41.9113 315.453 41.3312 316.177 38.2374C316.177 38.2374 305.4 34.3702 301.195 36.9322C298.972 38.2858 294.284 40.4611 293.462 43.2649C292.882 45.1501 293.414 46.407 294.525 48.2923C296.459 51.6278 289.886 63.0362 282.346 53.8998C282.346 53.8998 272.438 51.1927 266.88 49.9359C261.419 48.7273 257.649 43.9416 259.921 41.0412C260.163 40.7511 245.083 36.4005 245.083 36.4005C238.027 37.5607 232.953 35.5304 231.744 34.1768Z" stroke="black" stroke-linecap="round"/>
<path d="M74.2838 267.42L67.3726 265.003L43.014 244.99L50.7469 238.513L50.6019 236.192L54.3717 232.518C55.4833 231.745 56.8849 232.277 58.1415 232.422C61.3796 237.159 60.5096 239.383 59.6397 241.8C61.4763 242.283 62.8778 245.329 65.9226 240.978C65.826 239.769 66.5993 239.769 67.8559 240.495V242.815C68.8708 243.25 69.5958 245.232 68.6292 247.021C68.0975 247.987 67.7592 248.954 66.6476 249.148L69.8374 251.081C70.7557 250.936 71.529 250.259 73.4139 254.272C73.8005 254.852 78.5852 256.834 74.6221 261.571L74.2838 267.372V267.42Z" stroke="black" stroke-linecap="round"/>
<path d="M502.153 517.535L525.352 468.179C527.14 462.62 528.155 457.06 530.813 451.453C532.601 449.084 534.824 446.909 533.423 443.428L533.906 438.643C534.148 437.192 534.969 437.241 536.178 438.401L536.903 441.301C537.772 441.011 538.594 440.721 538.546 439.319L536.178 413.747L531.731 408.962L529.17 411.089L528.493 417.663L526.995 418.968C526.221 418.726 525.062 417.566 525.4 420.225L523.177 422.642C520.663 418.001 520.325 422.11 521.002 424.141C520.953 425.011 521.195 426.509 519.987 425.156L518.199 428.056L520.76 429.941H519.262L515.975 432.31L516.459 429.41L513.172 432.697L513.946 436.709L511.722 436.806L512.157 435.017C510.127 433.664 508.436 436.516 506.648 437.483L508.678 440.77L506.164 441.011L505.149 438.014L501.09 438.691C501.235 440.141 499.591 440.528 498.093 441.06L497.852 439.029L495.58 441.301L491.617 441.495L490.844 444.879L485.479 452.613C489.587 456.19 487.895 464.312 489.007 470.257C487.509 475.043 484.561 478.717 481.951 482.584C478.906 484.615 477.504 486.597 477.021 488.627C476.586 490.56 475.62 494.379 476.2 496.313C476.876 498.585 478.133 497.812 478.181 500.084L478.906 503.806C475.185 518.211 484.464 517.97 486.494 521.499C487.412 521.063 488.572 521.789 489.442 521.305C491.424 520.242 493.937 517.583 496.595 518.501C498.818 519.13 500.51 518.308 502.153 517.535Z" stroke="black" stroke-linecap="round"/>
<path d="M105.312 95.8594L92.9877 96.1978L93.5677 167.307L96.8058 168.467L94.5343 175.428L58.2381 173.398L54.0334 176.298L51.7619 175.476L50.167 170.787L48.0887 170.207C44.029 179.15 43.3524 178.087 41.8541 179.634C42.0958 180.552 41.5158 181.422 41.8058 182.244C42.7241 184.854 43.304 187.513 41.9025 188.673C43.7873 190.365 46.2522 191.719 46.9288 194.136C47.0738 197.23 46.8805 199.598 46.0589 200.469C45.2373 201.339 46.2039 203.224 47.9438 201.774L49.587 200.759C50.1186 201.629 51.3269 202.112 51.1819 203.417L54.855 200.904L59.3497 202.789C59.7847 202.112 59.2531 201.049 60.993 200.807C61.9112 200.807 62.5395 200.178 62.8295 198.583L65.2944 199.163C65.971 201.484 66.7443 203.804 66.3576 205.979L69.9824 208.735L67.1793 211.297L67.9525 212.457L69.9824 211.103L70.2724 215.986L72.8339 218.355C73.8972 217.339 75.5404 215.986 76.8453 216.663C78.0536 217.291 78.5852 219.708 79.6968 218.935C80.8084 218.161 81.0984 217.388 82.935 217.388C84.3366 217.388 81.775 215.019 83.4666 215.067C84.2399 215.067 85.4965 214.149 86.8981 214.536C88.2996 214.922 86.5598 219.805 87.5264 218.741C89.9429 216.131 94.6793 217.146 95.1626 217.726C96.5158 212.94 93.906 208.541 103.04 202.982L107.1 194.474C112.513 192.202 118.264 193.266 123.243 187.368C129.477 183.211 135.712 180.069 139.095 180.987H145.378L148.906 177.99L165.822 178.183C166.257 177.362 166.498 176.733 168.818 175.573C168.818 173.543 170.655 173.398 171.96 172.769L172.636 147.681L166.305 148.599C163.792 146.955 165.918 146.424 165.918 142.798C164.468 139.559 162.68 139.076 160.892 139.414C159.345 139.704 158.62 137.481 157.799 137.626C156.397 137.916 154.851 136.562 153.884 134.532C153.546 133.855 152.676 133.565 152.096 133.13C150.791 132.212 149.583 131.535 149.921 130.133C149.873 130.085 119.666 106.978 105.312 95.8594Z" stroke="black" stroke-linecap="round"/>
<path d="M411.678 383.776L416.511 399.632L415.11 413.699C417.961 416.261 420.813 418.388 424.824 425.059C425.501 426.509 425.791 428.104 425.694 429.7L423.954 437.144L419.605 439.029L419.943 445.555L417.623 445.604C418.831 442.558 417.671 443.09 417.14 442.945C413.998 440.963 412.79 438.014 412.21 435.355C414.772 431.392 414.627 428.201 414.337 425.107L410.083 424.334C406.797 425.156 406.12 423.947 405.83 422.835C404.042 418.63 403.221 420.273 402.544 419.983L399.982 416.454L404.477 408.14L407.957 407.753L405.589 404.659L407.667 393.879L409.649 392.429L403.946 381.117C405.54 382.568 407.377 383.051 411.678 383.776Z" stroke="black" stroke-linecap="round"/>
<path d="M81.1951 72.3176L82.4517 62.7461L89.9429 58.8789L91.6345 59.3623L94.2926 57.187L98.6907 57.5253L98.9324 55.4467C108.163 55.8818 110 53.4164 111.643 50.951L119.376 47.8089H122.276L120.826 45.8753L121.309 44.0866L121.068 41.7663C124.112 41.3796 127.834 41.863 127.834 38.7208L140.352 38.9142L142.043 35.047C139.627 34.1768 139.24 30.6963 139.53 27.0224C139.772 24.267 139.53 18.0794 139.53 18.0794C138.708 17.0643 137.693 16.1458 137.452 14.6956C135.422 14.3088 132.957 14.2605 132.135 13.052C129.381 12.5202 126.529 12.3752 123.726 12.5686C118.941 13.052 116.96 11.3117 115.026 6.81604C110.435 6.526 105.554 16.3875 102.026 21.3182C93.4227 23.6869 87.2364 27.6025 82.9833 32.6783C83.5633 34.7569 82.5483 35.5304 80.4701 36.9322C79.1169 37.8024 74.3805 45.3918 75.9754 49.5975C75.9754 52.8846 73.4139 58.3955 66.0194 62.0694C63.4095 64.293 60.413 65.9849 57.1266 67.0484C54.8067 67.8219 49.4904 68.402 47.8954 69.9005L81.1951 72.3176Z" stroke="black" stroke-linecap="round"/>
<path d="M41.3708 123.172C42.3374 116.066 37.9394 106.059 51.7619 105.818L54.6617 84.3544L79.2619 86.5297L80.6151 76.8616L105.409 95.9078L93.036 96.1978L93.6643 167.355L96.8058 168.467L94.6793 175.38L58.2865 173.398L54.1301 176.347L51.9069 175.621L50.312 170.787L48.0888 170.256C48.0888 170.256 44.0773 180.165 41.5158 179.15C41.5158 179.15 40.4042 177.942 39.0993 176.588C37.9877 175.428 36.7311 174.268 35.8612 172.624C34.6529 170.304 33.783 166.63 32.1397 166.92C28.5633 167.5 25.8568 162.763 25.8568 162.763C25.8568 162.763 21.7004 161.603 18.7039 162.424C14.8374 163.488 10.4877 162.376 9.71442 162.908L13.2425 153.046L13.5808 141.59L11.406 138.157C12.5659 136.127 16.094 134.242 13.7742 128.151C13.5325 127.474 12.2759 127.813 12.2759 127.813L10.7777 123.317L12.6142 121.48L41.3708 123.172Z" stroke="black" stroke-linecap="round"/>
<path d="M378.089 427.911L379.78 432.358L379.635 434.582L385.532 435.017L399.402 440.431C400.804 448.166 399.934 454.643 397.663 460.396C397.614 461.508 397.228 462.571 397.373 463.635C397.614 465.568 398.581 468.227 397.518 470.451C394.714 476.155 392.153 481.859 391.476 482.246C389.156 483.503 386.305 487.225 386.257 490.222L387.658 524.399L392.878 524.737L394.279 519.903L392.201 520.677C392.54 518.743 392.105 516.858 394.086 514.924L410.905 508.301C412.983 506.755 414.288 504.434 415.738 502.307L413.757 501.63L417.236 488.482L415.448 487.853L413.998 476.783C409.262 473.883 411.968 469.339 413.902 468.275L424.051 459.671L424.873 461.411L428.642 457.254L427.821 455.949L430.286 455.514L431.011 453.387L443.48 447.247L446.573 447.296C448.941 445.507 450.826 443.573 454.257 442.123L454.016 440.286L458.172 437.096C459.187 436.081 460.009 434.582 461.314 434.63L461.507 432.552L460.734 431.682L463.005 428.298L463.585 426.026L463.199 424.527L461.797 422.4L462.28 414.086C461.217 413.07 461.797 412.345 462.377 411.669L462.087 402.484L465.422 396.876C465.518 395.33 465.615 393.783 465.083 392.236C459.96 395.281 451.406 400.599 447.056 397.892C445.171 398.133 443.045 398.133 441.208 400.502C439.662 400.357 438.26 400.067 436.375 400.212L430.237 401.275C429.126 399.922 428.014 398.617 425.404 400.067L416.463 399.777L415.062 413.747C419.508 417.276 423.374 421.869 425.308 426.558C426.467 429.41 424.341 433.519 423.954 437.144L419.508 439.078L419.75 445.314L417.575 445.652C418.106 444.347 418.686 443.042 416.801 442.848C414.385 440.818 412.548 438.498 412.307 435.452C414.192 432.407 414.917 428.781 414.385 425.204L410.083 424.431C408.392 424.817 406.459 424.817 406.024 423.464C404.864 419.935 403.752 419.742 402.399 420.08L378.089 427.911Z" stroke="black" stroke-linecap="round"/>
<path d="M231.116 444.54C231.454 449.036 231.889 453.532 235.997 456.722L253.058 487.08L253.493 501.05L256.538 507.48C256.683 509.993 255.764 512.507 257.311 515.021L259.438 526.913L268.669 537.258C274.42 531.07 276.498 536.049 277.948 540.013C281.476 539.675 285.004 539.336 288.532 539.965C290.176 538.466 291.867 537.016 294.477 535.904L295.83 482.971L303.66 483.213L304.771 453.387L323.91 451.695L325.36 455.707C326.714 454.208 328.647 451.405 331.45 451.26C334.011 451.163 335.22 449.471 337.733 448.166L335.896 445.507L323.572 447.537L309.798 450.728L287.566 447.731L283.844 444.589L248.805 444.975C247.113 442.752 240.782 437.724 236.191 443.67C234.692 441.882 232.808 444.202 231.116 444.54Z" stroke="black" stroke-linecap="round"/>
<path d="M172.636 147.681L171.96 172.818C170.848 173.446 169.301 172.818 168.866 175.525C167.658 176.25 166.112 176.733 165.822 178.183L148.858 178.038L145.426 180.939L138.998 180.987C138.805 182.389 138.853 184.081 139.965 184.951C140.931 185.725 140.786 187.32 140.545 188.722L148.664 199.55L151.612 200.662C153.256 199.212 154.754 198.825 155.479 203.611L165.532 205.061C166.257 203.466 166.063 201.242 167.9 200.42C170.655 198.873 170.171 196.166 171.186 193.991C173.409 192.927 172.008 191.429 183.801 191.525C186.845 193.459 189.793 194.088 193.032 197.955L195.4 198.051C195.448 197.23 197.865 195.586 199.315 195.296C200.909 194.426 203.713 195.924 207.434 199.212L214.104 199.792L220.532 195.199L231.744 194.909C233.436 195.586 234.692 197.085 237.157 196.456C238.946 194.426 242.377 192.492 246.292 190.849C245.663 189.06 244.987 187.32 245.567 185.048C246.533 184.226 247.693 184.129 247.838 181.132L261.371 166.098L263.884 142.121L265.817 137.287C261.951 135.692 259.293 134.194 258.471 128.876C257.988 125.976 258.664 122.205 258.374 116.791L255.958 117.226C254.653 115.679 253.348 113.987 251.656 113.407L232.663 112.682L184.574 144.393L172.636 147.681Z" stroke="black" stroke-linecap="round"/>
<path d="M204.438 264.81L202.794 264.713L202.263 267.565C199.411 267.662 196.608 267.275 193.902 266.308C187.232 270.466 181.964 269.789 179.257 260.217C177.179 254.9 173.844 253.16 170.316 251.951L158.717 252L159.2 233.533C161.037 231.213 162.197 227.926 163.212 224.494C166.305 223.72 165.628 221.013 165.773 218.693C168.866 216.663 166.837 213.424 165.58 211.248L165.773 205.206C166.015 203.514 165.628 201.677 168.093 200.082C169.06 198.922 169.978 199.502 170.945 193.749C172.636 192.444 174.424 191.139 183.559 191.429C186.749 193.121 190.808 194.474 193.032 197.906L195.11 197.81C196.463 196.891 196.85 195.199 199.266 195.151C200.668 195.103 200.716 193.797 207.241 198.922L214.055 199.55L220.387 195.006L231.744 194.764C233.388 195.441 234.741 196.94 236.916 196.311C239.767 193.507 243.199 192.009 246.437 190.655C247.693 192.686 249.288 194.523 251.125 196.021L250.062 196.891L251.415 202.402C252.043 202.886 253.203 203.031 253.251 203.901C254.46 209.266 251.463 210.958 247.887 212.119C243.344 215.647 242.184 225.364 239.622 232.373C234.547 233.872 232.856 243.25 228.989 250.984C225.268 251.71 224.301 249.873 221.933 247.359L213.765 247.891L213.572 250.066C208.352 252.87 207.144 259.057 204.438 264.81Z" stroke="black" stroke-linecap="round"/>
<path d="M233.629 345.055L225.51 334.565L230.923 331.133L230.294 325.236L236.964 321.223C238.124 320.353 238.945 318.178 240.975 321.368C244.503 320.933 246.582 321.852 247.693 323.592L250.496 321.658L251.656 309.96C251.608 305.948 247.065 303.289 252.478 297.536C253.396 293.766 250.013 291.155 246.292 291.349C245.373 292.509 245.035 294.394 242.764 293.911L242.86 288.303L244.214 286.273L255.088 286.418L260.356 288.303C262.289 287.288 264.947 290.285 266.735 290.575L266.445 281.584C270.554 276.315 273.598 274.768 276.982 273.946L282.153 276.315L288.532 274.526C286.986 278.732 285.246 282.164 283.651 286.321C280.945 293.379 281.815 301.984 280.606 309.912C274.71 312.522 272.535 317.066 269.49 321.127L266.929 332.825C261.371 338.771 256.441 343.557 253.3 343.315C253.3 339.979 249.627 336.982 246.678 342.493C244.6 343.847 243.102 343.17 241.555 341.623C239.235 338.578 238.511 341.14 237.447 342.687L233.629 345.055Z" stroke="black" stroke-linecap="round"/>
<path d="M384.855 312.28L381.279 315.132H380.07L379.345 314.117C376.204 317.259 373.836 320.837 371.419 324.317C372.241 324.51 372.966 324.946 373.497 325.622L374.657 324.51L376.011 324.607L376.687 326.444L380.795 325.622L380.989 323.157L386.063 322.867C386.788 321.755 387.658 320.74 388.576 319.821L384.855 312.28Z" stroke="black" stroke-linecap="round"/>
<path d="M386.208 370.821L371.467 374.446C370.501 376.187 369.824 377.202 369.438 379.184C369.341 379.715 369.776 380.731 369.921 382.181C370.211 385.033 371.178 390.06 370.308 391.414C368.229 394.604 366.876 400.454 366.973 400.599C368.133 402.291 370.549 403.982 371.951 404.369C373.884 404.853 376.059 404.611 376.542 403.886L376.784 413.167C376.011 412.539 374.947 412.104 374.416 411.427C371.323 411.185 368.519 412.829 364.025 404.224C361.028 403.982 358.08 403.112 355.567 399.535C354.31 399.197 352.28 400.889 350.395 401.324C345.079 400.792 343.533 398.278 342.179 397.505C341.309 396.731 340.681 395.668 340.488 394.508L335.026 396.345L334.06 392.091L331.788 392.187L329.855 408.043L331.643 409.832L314.921 409.348L314.148 439.078L323.427 447.296L336.041 445.314L337.878 448.069L338.699 449.954L348.559 450.051L349.912 451.26L351.749 450.776C357.065 443.815 361.898 442.027 366.828 439.706L367.021 435.065C370.888 432.648 375.044 431.343 379.877 432.262L378.04 427.669L402.544 419.983L399.934 416.164L404.332 407.946L407.764 407.56L405.54 404.563L407.57 393.686L409.6 392.284L405.589 384.453L403.752 380.827L394.376 377.685C391.186 373.141 390.413 374.011 389.446 374.253L386.208 370.821Z" stroke="black" stroke-linecap="round"/>
<path d="M9.76274 162.521C8.31283 164.987 7.34622 166.292 7.29789 168.322C7.20123 172.914 2.60984 174.413 0.289978 177.748C2.41652 180.891 4.73638 183.936 5.12302 187.61H14.0158C15.949 185.048 18.7522 185.87 21.942 188.19L27.065 188.577L28.1766 190.027L24.4552 191.332C21.9903 190.8 19.6705 189.834 17.5439 188.528C15.949 189.495 14.0641 189.93 12.2276 189.737L11.261 191.332L3.52812 191.671C3.09314 193.749 2.65817 195.876 3.04481 197.955C4.9297 197.761 6.71792 198.051 8.69947 196.988C11.3576 197.665 13.8708 197.085 16.2873 195.683L29.6749 195.828C34.7012 198.728 40.9842 199.018 46.7838 199.357C47.0738 196.311 48.7654 193.314 42.1441 188.722C43.159 187.417 42.7724 184.419 41.9025 182.244C41.4191 181.036 42.3858 180.649 41.9025 179.344C41.2742 179.005 40.5009 177.99 39.4859 177.023C38.2293 175.67 37.0211 174.22 35.9095 172.721C34.5079 168.515 32.6713 166.775 32.6713 166.775C28.3699 167.5 25.7118 162.618 25.7118 162.618C22.0387 161.603 20.1054 162.376 18.5105 162.424C14.3058 162.666 13.4842 163.15 9.76274 162.521Z" stroke="black" stroke-linecap="round"/>
<path d="M42.9657 245.039L36.6344 241.8C35.9095 239.818 33.9763 238.754 31.9947 237.739C32.188 234.984 30.3515 234.355 29.0949 233.34L28.6599 226.717C31.4631 227.781 33.9279 224.977 36.3444 221.883C35.7645 219.418 41.2741 219.66 44.9473 219.756C48.6204 222.947 52.4868 226.041 50.1186 233.824C51.6652 233.147 53.2601 232.567 54.9033 232.132L50.5536 236.241L50.6986 238.561L42.9657 245.039Z" stroke="black" stroke-linecap="round"/>
<path d="M338.651 450.099L341.116 455.03C341.938 455.949 342.953 456.819 342.904 458.366C344.837 461.653 347.206 463.973 349.38 466.68C351.072 467.212 352.522 467.937 353.537 469.291C354.552 470.547 355.712 471.756 357.79 472.094C356.92 477.122 359.192 481.472 361.56 482.391C364.363 482.536 367.021 483.019 369.003 484.953C374.706 485.63 375.382 486.403 376.735 487.225C381.424 485.678 383.598 488.288 386.257 490.077C386.885 486.258 389.156 484.131 391.67 482.149C393.651 479.249 395.536 474.656 397.421 470.838C398.822 468.469 397.711 465.955 397.373 463.49L397.759 460.348C401.191 451.695 400.176 446.522 399.596 440.431L385.58 435.017L379.684 434.582L379.877 432.6C374.899 431.005 370.839 433.18 367.118 435.211L366.973 439.803C355.518 444.927 354.89 447.682 351.749 450.921L350.009 451.453L348.607 450.244L338.651 450.099Z" stroke="black" stroke-linecap="round"/>
<path d="M486.446 207.236L483.594 211.684C480.839 215.647 488.379 221.738 494.613 227.539L518.682 235.274L526.415 234.935L503.071 261.668L493.647 261.474C490.65 263.166 487.702 264.907 485.576 267.082C483.111 268.629 480.356 269.547 477.746 270.804C476.151 274.333 473.445 277.233 470.98 280.279L471.076 311.313L475.813 317.259L486.687 305.029L504.908 287.82L506.986 287.578L514.622 280.327L514.912 278.877C519.117 275.686 524.337 270.321 525.641 267.71C527.961 263.021 530.91 259.106 534.244 255.287L541.446 234.549C542.895 233.05 544.007 231.261 544.78 229.328C545.167 227.152 546.424 226.379 547.438 225.171L548.26 214.777C550.58 215.116 549.468 210.523 549.613 207.72C548.695 206.898 547.728 205.593 549.565 204.529V201.919C547.873 202.064 546.182 200.13 544.539 201.435C542.364 203.514 539.512 204.771 536.516 205.061C532.988 205.351 530.136 207.381 528.638 206.898C526.27 208.88 523.225 209.557 519.262 208.396C516.652 210.717 514.912 213.762 506.454 211.635L501.09 215.502C492.777 217.774 490.602 211.007 486.446 207.236Z" stroke="black" stroke-linecap="round"/>
<path d="M413.853 227.008L410.132 228.409V222.705L407.957 218.596L404.332 217.194L401.432 201L398.291 199.743V202.499H392.733L395.584 204.626L396.068 211.345L387.755 221.98L379.925 216.856L374.754 218.741V221.497L370.259 222.947L370.163 220.095L360.303 219.805V223.334H350.879L347.737 223.624L345.562 219.466H339.038L332.03 233.243V233.388C332.127 233.388 332.223 233.437 332.272 233.485C333.286 234.887 333.721 236.627 338.41 236.096L341.116 238.561C340.536 242.67 346.626 244.942 350.154 247.891L353.44 254.417C356.292 255.819 359.723 256.399 360.11 261.184C361.995 262.248 362.768 263.843 364.121 265.245C364.75 265.873 364.17 266.502 364.798 266.985C366.586 268.387 369.873 268.725 370.308 266.695C370.308 266.695 373.304 267.855 375.479 267.565C376.832 267.42 376.687 266.115 378.04 265.825L387.707 274.285L389.446 273.028C396.068 274.575 402.737 273.705 409.359 272.738L417.285 265.97L428.256 265.583L428.352 259.879L422.698 257.945L418.783 249.341L413.128 244.555C414.095 243.057 411.437 241.51 410.132 240.011C408.344 240.495 406.41 240.108 404.381 239.044L405.83 237.207L405.782 234.549L410.953 234.452C411.968 233.824 413.032 233.533 413.805 231.987L413.853 227.008Z" stroke="black" stroke-linecap="round"/>
<path d="M417.091 112.44L414.482 115.099L412.307 114.616L411.292 118.966L406.604 120.175L406.169 123.704L402.061 124.187L400.079 122.157L336.235 124.09L337.008 140.091C334.446 140.333 331.837 140.284 329.275 139.994L329.372 145.07L330.097 175.331L321.445 175.815L321.542 179.054L316.612 185.338L316.951 189.785L315.308 190.559C315.163 193.362 314.824 195.779 313.664 196.553L313.713 200.178L317.337 199.405C318.062 203.466 318.256 207.72 321.639 210.813L322.074 213.52L320.479 213.762C323.234 217.146 326.375 220.336 328.115 224.204C325.07 233.582 329.372 232.277 332.03 233.437V233.292L339.038 219.515H345.562L347.737 223.672L350.879 223.382H360.351V219.805L370.211 220.095L370.308 222.947L374.802 221.497V218.741L379.974 216.856L387.803 221.98L396.116 211.345L395.633 204.626L392.781 202.499H398.243V199.743L401.384 201L404.284 217.194L407.909 218.596L410.083 222.705V228.409L413.805 227.007L413.708 217.146L416.125 213.52L418.59 213.569L419.798 207.333C422.698 203.756 423.858 199.163 428.546 196.553L430.044 184.758C429.174 176.443 431.735 169.24 432.944 161.603C434.152 161.119 435.505 162.038 436.52 159.717L441.933 157.01C442.996 156.285 443.383 154.642 443.673 152.95C442.948 151.306 441.885 151.596 440.918 151.403C439.323 148.357 436.665 148.067 434.394 146.907L431.204 127.523L428.691 124.815C429.271 117.806 421.054 116.598 417.091 112.44Z" stroke="black" stroke-linecap="round"/>
<path d="M268.717 537.209L281.67 563.313L281.815 569.259C281.138 570.709 280.075 570.758 278.866 570.516C278.383 571.193 277.9 572.063 279.011 572.74C280.606 575.592 281.766 579.072 283.844 581.538C285.536 583.568 288.001 584.583 289.982 586.323L295.154 586.71C296.217 585.985 295.25 584.97 299.117 584.583L306.656 584.535C309.025 583.616 306.366 581.247 314.148 581.828C315.404 581.973 315.984 583.374 317.966 582.311C321.591 581.731 325.022 583.084 328.55 583.616C329.613 582.794 329.178 581.344 335.075 582.504L335.655 580.232L342.518 580.329L383.163 542.527C389.591 539.868 391.041 532.037 392.83 524.641L387.707 524.302C387.658 523.674 382.825 527.154 382.197 527.203C379.587 527.493 378.089 526.623 378.427 522.03C378.717 518.598 382.39 515.891 383.357 515.263C384.662 514.392 385.918 517.583 387.223 516.761C387.223 516.761 386.788 502.211 386.208 490.029C383.453 488.385 381.52 485.485 376.639 487.128C374.077 485.195 371.516 485.436 368.954 484.808L340.826 507.141L339.811 511.782C336.621 513.474 333.431 513.232 330.242 513.571C327.97 511.782 325.264 510.67 322.364 510.477L317.676 514.586C317.241 516.858 315.936 517.051 314.921 518.018C313.568 518.743 312.553 520 312.166 521.45C307.43 522.61 304.095 521.837 301.05 520.773C301.63 518.018 303.418 516.229 301.92 511.734L295.395 504.434L294.525 535.856C292.302 536.822 290.321 538.224 288.581 539.916C285.294 539.626 282.54 539.191 277.948 540.013C277.272 536.581 274.082 530.828 268.717 537.209Z" stroke="black" stroke-linecap="round"/>
<path d="M387.272 517.099L387.658 524.206C385.532 525.269 383.937 526.333 382.148 527.396C380.167 527.348 378.91 526.816 378.572 525.221C378.089 522.707 378.33 520.967 379.78 518.84C380.795 517.293 382.632 515.359 383.888 515.117C384.517 515.021 385.483 515.988 386.015 516.761L387.272 517.099Z" stroke="black" stroke-linecap="round"/>
<path d="M410.083 307.591L407.135 311.942L384.903 312.329L388.528 319.821C382.777 325.622 386.45 326.734 387.803 328.958C385.29 333.647 383.357 339.351 378.33 339.593C377.074 339.931 376.156 339.593 375.914 341.14C375.334 344.765 376.977 352.355 378.427 356.705C379.925 360.089 382.583 362.361 384.033 365.165C385.387 367.099 385.677 369.081 386.305 371.014L389.398 374.495C390.703 374.108 392.153 374.446 394.183 377.83L403.462 380.876C405.444 382.713 408.634 383.244 411.727 383.776L416.56 399.777L425.646 400.019C427.192 399.052 428.787 399.1 430.334 401.13C433.717 400.599 436.714 399.68 441.16 400.26C442.658 398.52 444.93 397.602 447.201 397.843C450.681 400.599 460.637 394.991 464.89 392.187C463.827 390.302 461.942 389.287 460.154 388.127C460.299 386 459.429 383.631 458.656 381.311C457.737 379.909 457.061 378.507 457.641 377.492L455.562 372.899L456.867 372.464C456.529 368.984 456.529 365.648 458.656 363.473C457.206 360.524 452.324 358.156 452.614 354.627L456.771 342.88L445.703 335.532L443.866 329.006L410.083 307.591Z" stroke="black" stroke-linecap="round"/>
<path d="M145.426 254.562L151.177 252.918L147.359 222.947C146.876 220.675 144.605 219.66 142.865 218.258L143.783 213.375L136.968 212.505C135.712 215.019 136.388 217.484 139.433 219.756C141.898 229.908 141.608 239.673 142.381 249.583L145.426 254.562Z" stroke="black" stroke-linecap="round"/>
<path d="M224.543 1.11184C223.093 1.16018 217.39 -1.83694 214.152 2.8521C214.152 2.8521 211.735 3.91559 211.59 6.38096C211.397 10.1999 211.011 22.0917 211.011 22.0917C210.624 21.4632 207.724 21.9466 207.289 23.8803C206.661 26.539 203.713 25.8139 203.471 27.1674C202.988 29.8262 205.356 32.2915 208.111 34.7086C208.836 35.337 207.869 38.7208 208.546 39.3493C210.672 41.2345 214.442 42.5397 214.442 42.5397C214.925 47.5188 215.699 52.4496 216.859 57.332C217.438 57.6703 223.528 55.5917 221.45 47.0354C221.208 46.0203 233.967 41.9113 231.648 33.9351C231.406 33.1133 229.328 34.0801 228.989 32.5816C228.216 29.1977 228.313 28.3759 227.056 27.8442C226.428 27.6025 223.721 30.1645 223.19 29.8262C221.982 29.101 220.483 27.4091 221.112 26.539C222.272 25.0888 230.391 20.0614 230.488 17.2576C230.584 13.1003 229.086 12.7136 227.056 11.6017C225.896 10.9733 226.331 8.99136 226.67 7.87952C226.911 7.20275 231.261 5.7042 230.778 4.10896C230.439 3.04546 229.811 2.8521 229.569 2.03031C229.376 1.40188 226.09 4.88241 225.896 4.35066C225.365 2.99712 225.22 2.12699 224.543 1.11184Z" stroke="black" stroke-linecap="round"/>
<path d="M329.323 144.973L266.397 113.987L258.084 116.501C258.664 121.432 258.229 125.251 258.326 128.248C258.471 132.647 261.516 135.74 265.721 137.239L263.884 141.783L261.226 166.098L248.08 180.552C247.645 181.326 247.452 182.147 247.5 183.018C247.21 183.743 246.678 184.323 246.002 184.613C245.083 185.193 245.518 186.16 245.422 186.836C244.648 191.961 255.378 199.55 255.378 199.55C255.909 201.87 256.731 203.901 257.166 206.366C257.601 208.976 256.296 212.167 256.683 214.439C257.214 217.774 260.888 218.064 260.404 223.14L251.946 222.367C249.482 227.249 251.221 230.44 257.214 231.842L261.178 243.685C267.557 242.235 272.052 243.008 280.365 239.238L287.953 238.513C289.354 236.144 292.302 234.839 291.287 230.778L301.775 229.618C302.597 228.844 302.983 227.684 304.337 227.394C306.366 227.346 306.995 225.992 307.526 224.59C308.493 222.318 310.909 221.497 312.698 220.095C313.036 212.602 318.691 214.729 322.122 213.327L321.735 210.717C319.754 208.541 318.062 206.124 317.434 199.26L313.761 199.937L313.664 196.746C314.776 195.538 315.598 192.686 315.308 190.655L316.999 189.834L316.564 185.483L321.639 179.005L321.494 175.815L330.242 175.331L329.323 144.973Z" stroke="black" stroke-linecap="round"/>
<path d="M387.948 274.188L389.543 272.979C395.971 274.623 402.641 273.705 409.358 272.738L413.37 269.402C415.641 270.756 417.333 273.028 417.671 277.862L421.538 280.956V290.334L407.184 311.942L384.807 312.329L381.375 315.084L380.022 315.132L379.249 314.117L379.78 300.775L384.807 293.186L392.781 286.031L387.948 282.986V274.188Z" stroke="black" stroke-linecap="round"/>
<path d="M41.3708 123.269C42.3374 116.162 37.9394 106.156 51.7619 105.914L54.6617 84.451L79.2619 86.6264L81.1468 72.1242L48.2337 69.7072C45.1889 74.3962 43.4007 78.3601 38.8093 80.1971C34.4596 81.9373 32.768 87.3031 31.5114 91.9438L18.5589 106.784C18.0756 110.168 16.1424 112.392 13.5325 114.132C11.261 117.178 9.81107 120.755 9.3761 124.477L12.6626 121.48L41.3708 123.269Z" stroke="black" stroke-linecap="round"/>
<path d="M261.178 243.685L253.735 255.915L254.75 264.761C257.939 270.997 261.612 276.75 266.59 281.439C269.635 278.007 270.989 275.396 277.078 273.801L282.346 276.122L288.291 274.43C289.741 272.738 289.644 270.031 289.741 267.469C291.771 264.133 293.994 262.393 296.169 260.798C297.812 262.054 300.712 261.088 300.905 264.858C302.838 267.034 304.675 268.339 306.076 266.308C307.72 268.725 314.679 267.952 319.464 268.484C319.899 267.13 320.527 265.825 321.252 264.616C322.847 264.375 324.297 263.746 326.762 265.535L336.911 262.006L337.588 263.505L341.648 262.876L341.551 261.378L350.492 260.653L352.474 263.215L353.392 261.813L354.938 262.925L356.243 261.426L360.4 261.281C359.53 258.912 359.917 256.109 353.585 254.61L350.347 247.987C347.109 244.845 341.309 243.443 340.923 238.416L338.409 235.999C336.283 236.096 334.446 237.014 332.078 233.195C328.26 232.615 325.699 232.035 328.212 224.3C326.279 219.563 323.282 217.339 320.672 213.714C315.211 214.777 313.036 214.487 312.843 220.143C311.103 221.545 308.541 222.222 307.768 224.397C307.091 225.992 306.511 227.249 304.095 227.443C303.177 228.071 302.403 228.844 301.678 229.666L291.336 230.73C291.867 232.663 291.674 234.452 289.451 236.627C288.871 237.207 288.436 237.932 287.856 238.561L280.316 239.286C271.714 243.105 267.364 242.283 261.178 243.685Z" stroke="black" stroke-linecap="round"/>
<path d="M361.076 550.89C360.303 550.986 359.482 551.131 358.757 551.421C358.225 551.615 357.742 551.905 357.307 552.243C357.017 552.582 356.872 553.017 356.775 553.5C356.678 553.935 355.76 554.515 355.422 554.612C354.842 554.66 354.31 554.66 353.73 554.612C352.86 554.709 352.039 554.322 351.604 553.548C350.879 552.582 349.912 551.808 349.284 550.696C348.801 550.068 348.414 549.343 348.124 548.618C347.979 547.989 347.931 547.312 347.979 546.684C347.931 545.862 348.366 545.137 349.091 544.75L349.332 544.605C350.202 544.17 350.395 543.203 351.024 542.575C351.652 541.947 352.619 541.27 353.344 540.641C353.875 540.255 354.407 539.868 355.035 539.578C355.808 539.191 356.63 538.901 357.5 538.756C358.128 538.611 358.902 538.369 359.433 538.224C359.53 538.176 359.675 538.176 359.772 538.176L360.11 538.128C360.931 537.983 361.705 538.273 362.236 538.901C362.816 539.675 363.493 540.351 364.073 541.125C364.363 541.512 364.315 542.43 364.605 542.962C364.991 543.59 365.33 544.267 365.668 544.992C365.91 545.766 365.571 546.587 365.233 547.264C364.846 547.989 364.315 548.618 363.686 549.149C363.203 549.633 362.671 550.068 362.14 550.455C361.753 550.551 361.415 550.696 361.076 550.89Z" stroke="black" stroke-linecap="round"/>
</g>
<defs>
<clipPath id="clip0_5_24">
<rect width="550" height="587" fill="white"/>
</clipPath>
</defs>
</svg>
