<svg width="41" height="42" viewBox="0 0 41 42" fill="none" xmlns="http://www.w3.org/2000/svg">
<g clip-path="url(#clip0_307_810)">
<path d="M0.312988 23.8979L10.3738 18.0227L20.4606 23.8979V35.7013L10.3738 41.603L0.312988 35.7013V23.8979Z" stroke="#DC4D04" stroke-miterlimit="10"/>
<path d="M0.312988 23.8979L10.3738 29.7996" stroke="#DC4D04" stroke-miterlimit="10"/>
<path d="M10.3735 29.7996L20.4604 23.8979" stroke="#DC4D04" stroke-miterlimit="10"/>
<path d="M10.3735 29.7996V41.8412" stroke="#DC4D04" stroke-miterlimit="10"/>
<path d="M20.4604 23.8979L30.5212 18.0227L40.582 23.8979V35.7013L30.5212 41.603L20.4604 35.7013V23.8979Z" stroke="#DC4D04" stroke-miterlimit="10"/>
<path d="M20.4604 23.8979L30.5212 29.7996" stroke="#DC4D04" stroke-miterlimit="10"/>
<path d="M30.521 29.7996L40.5818 23.8979" stroke="#DC4D04" stroke-miterlimit="10"/>
<path d="M30.521 29.7996V41.8412" stroke="#DC4D04" stroke-miterlimit="10"/>
<path d="M10.3735 6.27219L20.4604 0.370483L30.5212 6.27219V18.0756L20.4604 23.9773L10.3735 18.0756V6.27219Z" stroke="#DC4D04" stroke-miterlimit="10"/>
<path d="M10.3735 6.27216L20.4604 12.1739" stroke="#DC4D04" stroke-miterlimit="10"/>
<path d="M20.4604 12.1739L30.5212 6.27216" stroke="#DC4D04" stroke-miterlimit="10"/>
<path d="M20.4604 12.1739V24.2155" stroke="#DC4D04" stroke-miterlimit="10"/>
</g>
<defs>
<clipPath id="clip0_307_810">
<rect width="40.8947" height="42" fill="white"/>
</clipPath>
</defs>
</svg>
