<?xml version="1.0" encoding="UTF-8"?>
<!DOCTYPE svg PUBLIC "-//W3C//DTD SVG 1.1//EN" "http://www.w3.org/Graphics/SVG/1.1/DTD/svg11.dtd">
<!-- Creator: CorelDRAW 2021 (64-Bit) -->
<svg xmlns="http://www.w3.org/2000/svg" xml:space="preserve" width="5.76634in" height="6.15111in" version="1.1" style="shape-rendering:geometricPrecision; text-rendering:geometricPrecision; image-rendering:optimizeQuality; fill-rule:evenodd; clip-rule:evenodd"
viewBox="0 0 5765.7 6150.42"
 xmlns:xlink="http://www.w3.org/1999/xlink"
 xmlns:xodm="http://www.corel.com/coreldraw/odm/2003">
 <defs>
  <style type="text/css">
   <![CDATA[
    .str0 {stroke:#282828;stroke-width:10.42;stroke-linecap:round;stroke-miterlimit:2.61313}
    .fil4 {fill:none;fill-rule:nonzero}
    .fil7 {fill:#78BEF7}
    .fil3 {fill:#78BEF7}
    .fil0 {fill:#F05305}
    .fil5 {fill:#FB925D}
    .fil2 {fill:#FB925D}
    .fil6 {fill:#FDD037}
    .fil1 {fill:#F05305;fill-rule:nonzero}
   ]]>
  </style>
    <clipPath id="id0" style="clip-rule:nonzero">
     <path d="M1665.42 2640.6l-77.44 10.11 -39.98 -313.76c-5.06,-23.79 -28.85,-34.41 -47.07,-49.09l9.62 -51.11 50.11 -39.47 52.13 2.02 38.46 -61.74 86.55 13.66 0.5 68.83c24.8,26.32 20.25,61.74 1.52,72.87 1.52,32.89 -4.55,60.23 -26.32,59.71 -13.15,35.93 -24.8,78.44 -43.53,93.62l-4.55 194.33z"/>
    </clipPath>
    <clipPath id="id1" style="clip-rule:nonzero">
     <path d="M2797.13 3043.93c-22.78,-10.12 -49.6,-32.38 -65.8,-23.78l-57.2 -20.25 -114.38 -1.52 -179.68 0 -121.97 1.52 12.66 -93.63 -32.39 -41.5 12.14 -14.68 -8.09 -12.14 -21.26 6.58c-26.32,-3.54 -35.93,-21.77 -42.02,-43.53 -14.16,-5.56 -34.41,-3.54 -34.41,-27.33 29.86,-52.12 36.44,-122.97 95.15,-151.82l2.02 -22.77 84.02 -4.05c31.38,20.24 21.26,43.01 74.4,36.43 36.94,-66.29 63.26,-188.25 111.35,-193.82 28.85,-71.86 37.46,-173.08 87.05,-214.57 24.29,-8.6 45.05,-19.23 54.15,-34.92 5.06,-9.11 6.58,-38.96 2.03,-52.12 -3.04,-9.61 -9.11,-2.02 -18.73,-14.68l-14.18 -54.66 11.64 -9.62 44.53 37.46c6.07,30.87 21.77,59.21 18.73,92.1 -3.03,48.08 -22.78,54.65 24.8,109.81 7.59,12.66 10.64,27.84 8.11,43.01l-89.58 -8.6c-10.12,24.29 -31.89,79.45 55.67,99.19l41.51 124.5 -76.94 128.54 10.63 93.62c32.39,60.23 70.35,122.47 122.99,171.56l3.04 95.65z"/>
    </clipPath>
    <clipPath id="id2" style="clip-rule:nonzero">
     <path d="M2144.21 2775.21l-17.21 -1.01 -5.56 29.85c-29.86,1.02 -59.23,-3.03 -87.57,-13.15 -69.85,43.53 -125.02,36.43 -153.36,-63.76 -21.77,-55.67 -56.69,-73.89 -93.64,-86.53l-121.47 0.5 5.05 -193.31c19.24,-24.3 31.38,-58.71 42.02,-94.64 32.39,-8.11 25.3,-36.44 26.82,-60.73 32.39,-21.25 11.13,-55.16 -2.02,-77.93l2.02 -63.26c2.53,-17.71 -1.52,-36.94 24.3,-53.64 10.12,-12.14 19.74,-6.07 29.86,-66.3 17.72,-13.66 36.44,-27.33 132.1,-24.29 33.4,17.71 75.92,31.88 99.2,67.82l21.77 -1.02c14.16,-9.61 18.21,-27.32 43.53,-27.83 14.68,-0.51 15.18,-14.16 83.51,39.48l71.37 6.58 66.3 -47.58 118.94 -2.53c17.21,7.09 31.38,22.78 54.16,16.2 29.86,-29.35 65.79,-45.03 99.71,-59.21 13.16,21.26 29.86,40.48 49.09,56.18l-11.13 9.11 14.18 57.69c6.58,5.06 18.73,6.58 19.23,15.69 12.66,56.18 -18.73,73.89 -56.17,86.03 -47.58,36.94 -59.73,138.66 -86.55,212.05 -53.14,15.68 -70.86,113.86 -111.35,194.83 -38.97,7.59 -49.09,-11.64 -73.89,-37.96l-85.54 5.56 -2.02 22.78c-54.66,29.35 -67.32,94.13 -95.67,154.35z"/>
    </clipPath>
    <clipPath id="id3" style="clip-rule:nonzero">
     <path d="M1526.23 2667.93l60.23 -17.21 -39.98 -313.77c-5.06,-23.78 -28.85,-34.41 -47.07,-49.09l9.61 -51.11 -71.37 -9.11c-13.16,26.32 -6.07,52.13 25.82,75.91 25.81,106.28 22.77,208.51 30.87,312.25l31.88 52.13z"/>
    </clipPath>
 </defs>
 <g id="Layer_x0020_1">
  <metadata id="CorelCorpID_0Corel-Layer"/>
  <g id="_1773989652608">
   <path class="fil0 str0" d="M3523.42 1302.56l668.09 -19.74 21.26 21.25 44.03 -5.56 4.55 -37.44 49.1 -13.67 10.12 -46.05 21.26 7.08 26.82 -28.34 -14.68 -72.37 23.28 1.02 -56.68 -50.61 -155.89 -257.59 -0.51 -31.37c-35.43,-22.27 -63.78,-54.15 -80.98,-92.61l-1.52 -23.79 -23.79 -17.2 6.08 -37.96 69.85 93.12c6.07,7.09 -1.02,12.14 5.06,20.24 18.22,25.3 49.6,50.61 68.33,65.79 9.61,-3.04 20.75,-1.01 25.3,-20.24l18.23 -121.45 -81.99 -167c-55.17,38.97 -110.85,54.15 -166.01,-3.54l-66.82 6.07c-15.18,6.58 -31.88,16.7 -41,0.5l-109.32 63.76 -180.69 -40.48c-27.33,-5.57 -56.18,-14.68 -78.45,-10.63 -22.78,14.17 -39.49,3.04 -55.68,-7.59 -9.1,16.19 -19.23,32.39 -10.11,42l7.08 65.79c-16.2,25.81 -30.87,52.12 19.74,112.85l35.93 605.76z"/>
   <polygon class="fil0 str0" points="2383.62,3090.48 2246.46,3097.07 2219.13,3078.85 2260.13,2999.9 2382.61,2998.38 "/>
   <path class="fil0 str0" d="M2004.53 3162.35c0,8.09 -6.58,14.68 -14.68,14.68 -8.09,0 -14.68,-6.58 -14.68,-14.68 0,-8.11 6.58,-14.68 14.68,-14.68 8.1,0 14.68,6.57 14.68,14.68z"/>
   <path class="fil0 str0" d="M2062.23 3044.44c0,6.58 -5.06,11.64 -11.64,11.64 -6.58,0 -11.64,-5.06 -11.64,-11.64 0,-6.58 5.06,-11.63 11.64,-11.63 6.07,0 11.64,5.05 11.64,11.63z"/>
   <path class="fil0 str0" d="M5515.56 2463.47l-243.95 278.34 -95.15 -1.52c-11.63,3.54 -55.67,30.37 -80.98,52.63 -20.75,18.23 -52.64,28.85 -85.53,44.04 -19.24,0 -43.03,7.08 -56.69,-2.53 -31.88,-30.87 -68.33,-15.7 -104.77,-4.56 -12.14,21.77 -28.34,39.47 -55.16,46.56l-130.59 -20.24c-30.87,-26.82 -65.29,-49.6 -102.24,-66.81l-72.38 -5.06 0 -58.7 -57.19 -20.75 -41 -94.12 -59.21 -47.07c11.14,-17.71 -17.71,-32.38 -32.39,-48.08 -20.25,4.56 -39.99,0.51 -60.23,-10.11l17.71 -21.26 -1.01 -27.33 52.13 1.01c11.14,-7.08 23.79,-10.11 32.39,-28.33l-1.52 -152.84 24.8 -38.96 25.81 1.01 11.64 -65.28c31.38,-38.46 42.51,-85.52 94.14,-115.38l13.67 -112.85 41.5 -1.01 5.57 -13.16 20.25 0.5 17.21 28.34 24.8 -65.78c16.2,10.62 37.96,11.14 47.07,33.91l41.5 -8.09 7.09 -13.17 7.59 -1.51 10.12 17.71c13.16,-8.09 29.35,-16.2 50.61,-2.53 6.07,2.53 13.17,4.05 29.36,-5.06 16.69,9.11 26.82,27.33 50.61,26.32 53.15,46.56 105.28,95.14 150.83,150.31 -4.05,4.04 -6.07,18.72 -9.11,52.12l-19.74 35.42c-16.2,26.32 3.54,49.09 33.91,38.46l26.83 -10.12 26.82 11.14c-32.39,37.45 44.53,102.23 113.88,167l250.03 79.96 80.98 -2.53z"/>
   <path class="fil0 str0" d="M863.71 659.35l80.98 -40.49 16.7 6.07 27.84 -24.29 46.57 4.05 2.53 -21.76c96.67,4.55 116.41,-21.25 133.62,-47.07l80.99 -33.4 29.86 1.01 -15.19 -20.24 4.05 -16.2 -0.51 -26.82c31.88,-4.05 70.35,1.02 70.86,-31.88l130.58 2.02 18.23 -37.45c-25.31,-9.11 -29.36,-45.55 -26.32,-84.01 2.53,-28.85 0,-93.62 0,-93.62 -8.61,-10.63 -19.24,-20.24 -21.77,-35.43 7.09,-3.04 39.98,2.53 59.72,-24.29 10.12,-13.66 23.29,-41.5 40.5,-35.93 20.25,6.07 58.2,10.12 60.73,-2.53 2.53,-13.66 39.48,-43.52 93.12,-43.52 98.2,0 225.23,-37.45 266.74,-25.3 41.5,12.14 95.65,-16.2 119.45,-14.68 23.79,1.52 31.38,27.83 64.27,5.57 12.14,-8.61 56.69,26.32 99.21,14.17 0,0 -25.31,11.14 -26.83,36.94 -2.02,39.98 -6.07,164.47 -6.07,164.47 -4.05,-6.58 -34.41,-1.52 -38.97,18.73 -6.57,27.83 -37.46,20.24 -39.99,34.41 -5.06,27.84 19.74,53.64 48.59,78.95 7.59,6.58 -2.53,42 4.56,48.58 22.27,19.74 61.74,33.4 61.74,33.4 5.06,52.12 13.17,103.74 25.31,154.86 -42.01,3.04 -19.74,41.5 8.6,82.99l2.02 237.85c0,0 -37.96,7.59 -35.43,17.21 6.07,21.76 7.08,37.96 34.93,62.75 17.71,15.69 18.21,42.51 16.69,60.22 -2.02,20.24 18.73,29.35 23.79,29.35 41.51,-1.01 76.43,-21.26 115.9,87.05l-497.53 326.92c-73.89,31.88 -195.36,50.6 -199.91,49.09 -27.84,-12.14 4.55,-42.51 -5.06,-63.26 -9.62,-20.75 -20.76,-35.92 -52.13,-32.38 -16.71,2.02 -25.82,-19.74 -32.39,-18.73 -26.83,4.55 -33.91,-26.32 -39.99,-31.38 -23.79,-21.76 -47.08,-27.83 -41.5,-47.57l-726.3 -554.14 17.21 -150.3z"/>
   <path class="fil0 str0" d="M2423.61 4656.76c18.21,-5.06 37.95,-28.85 54.15,-9.61 16.2,-20.25 61.24,-59.72 133.62,14.68l365.43 -5.06 38.98 33.9 230.29 29.86 145.77 -32.89 -98.7 -87.55 7.59 -311.23 175.63 5.05 -19.23 -20.24 20.75 -164.47c-2.53,0.51 -5.06,-0.51 -7.59,0 -42.51,15.18 -87.57,11.63 -132.61,12.65l-15.68 30.86 -28.85 -23.78 31.89 -43.01 -43.53 -87.55 -6.58 -196.85 -74.91 5.06 0 -35.43 -33.4 -5.05 -8.6 15.69 -61.25 -3.04 -23.29 89.07c-30.36,-5.57 -58.7,-13.17 -104.26,10.11 -40.48,-13.16 -76.93,17.21 -133.62,-184.71l-21.76 -12.66 -230.8 -3.54 -104.77 35.93c26.32,75.4 81.99,118.42 79.97,230.26l-18.23 17.21c14.68,50.61 28.35,103.24 61.24,127.53 3.54,14.18 -4.05,24.29 -5.06,34.93 -3.54,38.96 -23.79,148.79 -32.89,129.55 0,0 -36.96,8.1 -40.5,37.95 -1.52,14.68 -19.74,16.71 -26.32,34.41 -18.73,50.1 -37.96,129.05 -52.13,201.41 -1.52,8.61 -12.65,4.55 -13.66,12.66 -4.05,22.77 0.51,39.47 -1.01,63.76 -0.51,7.08 -9.61,-5.06 -11.64,4.05 -1.52,10.62 7.59,42.5 5.57,50.1z"/>
   <path class="fil0 str0" d="M2449.93 3615.27l40.48 -24.79c17.22,-39.99 30.88,-28.34 44.55,-10.64 -17.21,15.69 -35.43,30.87 -36.95,58.7 4.05,38.46 -13.66,35.43 -26.32,42.01 -5.56,-10.62 -13.66,-20.24 -10.62,-32.38 -1.01,-11.64 -0.51,-23.28 -11.13,-32.9z"/>
   <path class="fil1" d="M1665.42 2640.6l-77.44 10.11 -39.98 -313.76c-5.06,-23.79 -28.85,-34.41 -47.07,-49.09l9.62 -51.11 50.11 -39.47 52.13 2.02 38.46 -61.74 86.55 13.66 0.5 68.83c24.8,26.32 20.25,61.74 1.52,72.87 1.52,32.89 -4.55,60.23 -26.32,59.71 -13.15,35.93 -24.8,78.44 -43.53,93.62l-4.55 194.33z"/>
   <g style="clip-path:url(#id0)">
    <g>
     <rect class="fil2" x="1045.67" y="2496.02" width="1286.52" height="169.21"/>
     <rect class="fil3" x="1045.67" y="2326.81" width="1286.52" height="169.21"/>
    </g>
   </g>
   <path class="fil4 str0" d="M1665.42 2640.6l-77.44 10.11 -39.98 -313.76c-5.06,-23.79 -28.85,-34.41 -47.07,-49.09l9.62 -51.11 50.11 -39.47 52.13 2.02 38.46 -61.74 86.55 13.66 0.5 68.83c24.8,26.32 20.25,61.74 1.52,72.87 1.52,32.89 -4.55,60.23 -26.32,59.71 -13.15,35.93 -24.8,78.44 -43.53,93.62l-4.55 194.33z"/>
   <path class="fil1 str0" d="M3541.14 4695.21l-53.65 30.37c-53.14,0.5 -56.18,31.37 -76.43,48.07l-15.19 -42 -200.93 17.71 -11.64 311.24 -81.99 -2.03 -5.57 224.7c22.27,27.33 53.15,57.69 68.32,77.94 15.19,20.23 5.57,57.69 -9.1,93.61 36.94,15.7 77.94,18.73 116.92,7.59 5.56,-15.18 13.66,-26.31 23.79,-31.88 16.69,-9.61 30.36,-21.76 35.42,-41.5l50.11 -42c30.87,2.53 54.66,15.18 78.96,32.39 51.12,0.51 81.49,-8.6 102.74,-19.23l10.12 -47.07 294.06 -234.82c-36.94,-26.82 -55.67,-20.75 -76.42,-25.81 -20.76,-5.06 -47.58,-43.02 -40.5,-107.79 -20.25,-4.05 -33.4,-15.19 -44.54,-28.84 -12.65,-21.26 -29.35,-19.24 -44.53,-28.34 -22.78,-31.38 -65.3,-72.88 -68.33,-97.67 -1.52,-12.14 -8.1,-11.14 -16.71,-24.8 -11.13,-15.18 -25.31,-51.11 -34.92,-69.83z"/>
   <path class="fil1 str0" d="M3914.16 3411.83l12.15 -11.63 14.67 1.01 7.59 20.75 41.51 -8.09 2.02 -26.32 52.14 -3.03c-17.21,29.85 8.61,46.56 19.23,61.73 -34.92,81.48 -64.78,110.32 -91.6,111.84 -35.94,0 -31.38,13.16 -34.92,24.8 -2.03,-33.4 -1.52,-66.8 1.51,-99.7 3.55,-36.94 -8.61,-63.76 -24.29,-71.36z"/>
   <path class="fil1 str0" d="M1211.93 2364.28c-16.2,-2.03 -21.77,-23.79 -34.93,-36.44 -25.82,-24.79 -74.91,-6.07 -114.39,17.72 -47.57,-23.79 -54.16,-45.04 -62.76,-65.28 9.62,-25.81 3.04,-59.71 16.2,-86.53 11.64,-24.3 31.37,-47.07 66.81,-66.3l43.03 -90.08c36.94,-12.14 70.35,-16.7 99.2,-26.82 27.84,-9.62 52.64,-25.81 67.83,-46.06 55.16,-33.9 123.5,-77.42 165.5,-66.8 -0.51,13.66 -0.51,27.83 8.09,39.48 14.18,9.61 11.13,25.81 8.1,42l85.03 114.37 32.39 10.63c4.55,-5.57 27.83,-33.91 39.47,28.84l19.24 4.05 -37.45 62.75 -52.64 -3.04 -50.62 39.48 -76.42 -9.11c-44.03,-0.5 -48.09,7.59 -66.82,13.16l-169.55 -5.06 14.69 129.05z"/>
   <path class="fil1 str0" d="M3024.88 2877.44c-14.68,44.03 -32.39,75.4 -50.61,123.47 -24.29,62.75 -18.73,159.92 -31.38,245.95 -63.77,28.84 -84.01,75.4 -116.91,116.9l-25.31 121.95c-46.06,45.05 -89.07,103.24 -144.75,110.32 -3.54,-68.32 -62.26,-35.43 -68.83,-8.61 -27.84,18.73 -37.46,-0.5 -53.15,-6.57 -20.25,14.68 -34.92,31.88 -35.42,56.68 3.03,39.46 -15.19,37.44 -27.84,45.04l7.59 29.86 105.27 -35.93 230.8 4.04 21.26 12.66c52.64,194.33 95.15,175.1 132.61,184.72 58.71,-24.3 74.4,-11.13 105.27,-11.13l22.78 -88.56 61.76 3.54 7.59 -16.2 34.41 5.06 0.51 35.93 74.4 -5.57 7.59 195.86 42.51 88.05 -32.39 44.03 29.35 24.8 15.7 -31.37 97.18 -1.52 35.42 -11.64 30.37 -0.5 11.14 43.51 56.68 -18.73c2.03,11.13 8.11,21.77 16.2,29.86 18.23,17.21 52.64,41 83.51,41.5 21.77,0.51 38.98,-21.76 58.21,-17.71 25.81,35.93 56.68,46.05 88.58,49.09 23.79,36.94 39.98,81.98 107.8,74.9l26.32 18.72 -2.02 -94.63c-47.07,15.18 -75.92,-6.58 -100.22,-36.94 5.06,-37.46 19.74,-71.36 36.96,-104.76 1.01,-37.96 -3.55,-75.41 -13.16,-112.34 -2.02,-8.61 9.11,-39.98 22.78,-58.2l153.86 -38.46c-15.68,-85.52 -71.35,-102.73 -87.55,-163.45 -21.26,-81.48 -27.84,-165.99 -18.73,-249.49 -3.04,-40.49 -21.26,-62.25 -48.09,-73.38l45.56 -65.28 36.94 -40.49 5.57 -141.7 51.62 -78.44 83.51 -74.9 -50.11 -32.89 0 -89.57 -103.75 -88.56c-9.11,1.01 -13.66,10.12 -20.25,15.68 -20.76,6.58 -40.5,-3.54 -60.23,-6.07 -10.62,24.29 -55.17,11.64 -60.23,-2.53 -1.51,-4.04 2.03,-12.14 -4.04,-14.17 -11.64,-15.18 -24.8,-28.85 -39.48,-41l-43.53 2.03 -14.16 16.19 -16.2 -13.16 -10.12 15.69 -20.76 -26.82 -93.64 8.1 0 15.18 -41.5 7.59 -6.59 -16.2 -106.29 37.45c-29.86,-21.77 -40.49,-9.61 -58.2,-10.63l-18.73 40.48c-88.07,-3.54 -125.02,-3.54 -139.19,-22.77 -27.84,30.87 -34.92,-7.08 -51.63,-11.64 -9.61,-45.03 -35.43,-31.37 -53.14,-46.56 -26.32,17.21 -48.59,39.99 -66.3,66.3 0.5,26.32 -3.54,53.14 -13.17,77.94z"/>
   <path class="fil1 str0" d="M5059.02 2055.58l-49.6 36.94c-8.6,25.31 -4.04,45.55 -11.13,57.19 -28.85,48.07 -24.8,52.12 -16.2,62.74 12.14,14.68 43.53,4.05 59.72,-5.56l26.32 11.13 28.85 -44.03c-17.72,-15.18 -35.93,-7.08 -53.65,-8.1 5.06,-21.76 29.35,-26.82 46.57,-37.96 10.12,-28.34 -3.04,-59.71 -30.88,-72.37z"/>
   <path class="fil1 str0" d="M781.71 2803.04l32.39 3.04 257.62 -72.88 92.12 10.12 13.66 -54.65c-3.03,-44.04 -39.98,-88.56 10.12,-130.57 4.55,-31.88 2.02,-66.8 36.44,-87.04l-11.64 -107.79c-14.17,0.5 -20.25,-14.18 -27.33,-27.33 -16.71,-28.34 -71.87,-24.8 -122.99,10.12 -24.3,-17.2 -52.64,-28.85 -62.26,-65.79 -33.91,-12.64 -60.74,-5.56 -82.5,13.16l4.05 -36.94c-5.57,-14.18 -24.8,-10.12 -47.07,-1.52 -5.57,0.5 -1.52,9.61 4.55,20.75 -8.1,2.53 -16.2,4.05 -24.8,5.06 -5.57,8.09 -14.17,13.67 -23.28,16.7 -23.28,-40.49 -36.44,-32.89 -64.28,-10.62 -9.62,7.59 -15.69,25.81 -19.23,42.01 -4.55,18.21 3.55,35.92 23.28,32.89l-2.02 24.8c14.17,6.07 11.13,9.1 -2.03,22.77 -6.07,6.07 16.7,34.92 14.17,41.5l-43.53 -8.61c-1.01,7.09 -2.53,16.71 -3.54,24.3l20.25 8.6 -15.69 42.51c2.02,3.03 -19.23,1.01 -24.8,2.02l0.51 26.82c22.27,6.07 10.12,58.2 -10.63,66.3l30.37 19.24c6.58,-5.06 25.81,-0.51 37.96,32.89 0,0 30.37,19.23 29.86,43.02 -0.51,19.23 -13.16,22.27 -16.7,36.94l-3.04 58.19z"/>
   <path class="fil1 str0" d="M4616.67 1894.15c15.7,10.62 30.88,9.12 46.57,33.41l41.51 -8.11 8.09 -13.16 6.58 -2.02 9.11 17.21c20.75,-11.13 39.48,-11.64 53.14,-1.02 8.09,6.58 19.74,-2.52 28.85,-5.56 16.2,13.16 31.88,27.33 49.6,26.82 54.66,45.55 104.77,95.65 150.83,149.79l49.1 -34.41c-7.09,-18.73 -16.2,-35.93 -49.61,-36.94 -1.51,-15.18 -8.09,-28.34 -29.35,-36.43 -4.55,-18.22 -20.25,-17.72 -32.39,-22.77 -10.12,-28.85 -35.44,-44.54 -56.18,-64.28 -23.28,5.56 -33.91,-10.12 -45.05,-24.8l-17.72 -3.54 -12.64 7.59c-13.16,-11.14 -16.71,-25.81 -20.76,-41l-19.23 -5.06 5.06 26.32c-11.64,7.08 -17.72,-12.14 -23.79,-32.39l-38.97 -56.17c-25.31,-117.4 -47.07,-132.08 -69.85,-163.96 -6.07,14.68 -7.08,32.38 -17.72,40.48l-57.19 29.85c-9.11,16.2 -23.28,20.75 -38.46,20.75 -21.26,101.72 -32.39,167.51 -31.38,250l44.04 0 4.04 -14.18 20.25 1.01 16.71 26.32 26.82 -63.76z"/>
   <path class="fil1 str0" d="M2365.39 3505.46l-152.35 -157.89 -36.43 -92.62 33.4 -31.88 9.61 -52.13 43.03 9.11c2.53,-2.53 6.07,-4.55 4.04,-9.11l-37.45 -19.23 11.64 -53.14 142.74 -7.08 0.5 -91.59 176.63 0 -13.66 19.23 -1.51 59.72c15.69,6.07 26.82,-7.09 36.94,-25.81 27.33,-4.05 76.93,20.24 63.26,67.3 -22.77,25.3 -32.89,49.09 -24.8,70.85 7.59,17.72 13.66,36.43 17.72,55.16l-13.67 125 -28.34 20.75c-12.66,-21.25 -36.44,-28.84 -69.35,-24.29 -10.12,-12.65 -20.25,-28.84 -39.48,-3.54l-73.9 45.55 6.58 60.72 -55.17 34.93z"/>
   <path class="fil1 str0" d="M56.42 1967.03l92.62 0c20.25,-26.82 49.6,-17.71 83.01,6.07l53.65 4.04 11.64 15.19 -38.97 13.66c-25.81,-5.56 -50.11,-15.18 -72.38,-29.35 -16.7,10.12 -36.44,14.68 -55.67,12.66l-10.12 16.69 -80.48 3.54 16.7 -42.51z"/>
   <path class="fil1 str0" d="M1526.74 2667.92c-8.11,10.64 -9.11,33.41 -31.38,20.25 -111.35,13.66 -155.38,60.72 -232.82,91.09l-98.19 -35.93 13.16 -54.66c-3.03,-43.51 -39.98,-88.55 10.12,-130.56 4.55,-31.88 2.02,-66.8 36.44,-87.04l-26.32 -235.33 169.55 5.06c22.78,-12.14 46.57,-13.66 70.86,-13.66 -13.16,26.83 -6.07,52.13 25.81,75.92 25.82,106.27 22.78,208.5 30.88,312.24l31.88 52.63z"/>
   <path class="fil1 str0" d="M168.79 2211.96c-3.04,9.1 -2.02,13.66 9.62,13.66 4.55,5.56 21.77,-34.92 19.23,6.07l15.18 1.52c-5.06,22.77 10.12,50.6 25.31,55.66 18.73,6.58 29.36,28.34 39.98,37.96l25.81 47.58c17.71,12.14 42.01,3.54 80.48,-48.08 -4.05,-17.21 19.74,-26.32 90.09,-21.77 57.7,41.5 75.41,90.59 53.65,145.76 25.81,-6.07 40.49,-23.79 83.51,-12.66 21.26,27.33 34.92,57.18 16.7,97.67 23.78,9.11 32.39,34.92 65.8,-9.11 -2.02,-10.12 6.07,-13.66 16.2,-6.07 6.58,4.55 17.21,-2.53 26.82,0l17.72 -45.55 -21.77 -8.61 3.54 -23.79 44.03 9.11c-3.54,-16.2 -25.31,-37.45 -9.11,-48.59 7.09,-7.58 4.05,-13.15 -3.54,-18.71l1.01 -20.75c-42.51,-5.06 -18.22,-52.64 -3.54,-76.42l-26.32 -23.79 -3.04 -52.63 -21.76 15.69 -8.1 -12.14 28.85 -26.31 -38.97 -29.86c6.58,-20.75 -2.02,-45.55 -9.11,-71.36l-27.33 -6.07c0.51,11.64 -3.54,20.75 -15.69,24.8 -10.12,-3.04 -16.2,3.54 -18.73,19.73l-48.59 -20.25 -38.46 27.84c5.06,-12.65 -7.59,-20.25 -15.69,-29.35l-21.26 14.68c-16.7,5.56 -18.73,-3.55 -18.73,-14.68 3.54,-3.55 7.59,-6.58 9.11,-12.15 -60.23,-9.11 -122.99,-5.56 -178.16,-38.46l-16.7 0 -7.59 93.12 -47.07 1.01c-45.55,16.69 -67.82,59.71 -73.39,65.28z"/>
   <path class="fil1 str0" d="M36.18 2075.83l5.57 15.68c11.64,8.09 33.91,-7.59 32.39,30.36 10.63,5.57 23.79,-5.56 31.38,20.25 13.16,6.57 46.56,-55.16 34.42,36.94l29.36 32.38c17.71,-27.32 44.03,-54.65 70.86,-64.26l48.08 -1.01 8.1 -93.13 -123.49 -0.5c-25.31,12.14 -51.12,19.23 -78.96,13.16 -18.73,6.58 -37.96,10.12 -57.7,10.12z"/>
   <path class="fil1" d="M2797.13 3043.93c-22.78,-10.12 -49.6,-32.38 -65.8,-23.78l-57.2 -20.25 -114.38 -1.52 -179.68 0 -121.97 1.52 12.66 -93.63 -32.39 -41.5 12.14 -14.68 -8.09 -12.14 -21.26 6.58c-26.32,-3.54 -35.93,-21.77 -42.02,-43.53 -14.16,-5.56 -34.41,-3.54 -34.41,-27.33 29.86,-52.12 36.44,-122.97 95.15,-151.82l2.02 -22.77 84.02 -4.05c31.38,20.24 21.26,43.01 74.4,36.43 36.94,-66.29 63.26,-188.25 111.35,-193.82 28.85,-71.86 37.46,-173.08 87.05,-214.57 24.29,-8.6 45.05,-19.23 54.15,-34.92 5.06,-9.11 6.58,-38.96 2.03,-52.12 -3.04,-9.61 -9.11,-2.02 -18.73,-14.68l-14.18 -54.66 11.64 -9.62 44.53 37.46c6.07,30.87 21.77,59.21 18.73,92.1 -3.03,48.08 -22.78,54.65 24.8,109.81 7.59,12.66 10.64,27.84 8.11,43.01l-89.58 -8.6c-10.12,24.29 -31.89,79.45 55.67,99.19l41.51 124.5 -76.94 128.54 10.63 93.62c32.39,60.23 70.35,122.47 122.99,171.56l3.04 95.65z"/>
   <g style="clip-path:url(#id1)">
    <g>
     <rect class="fil5" x="1987.52" y="2664.64" width="1286.52" height="419.06"/>
    </g>
   </g>
   <path class="fil4 str0" d="M2797.13 3043.93c-22.78,-10.12 -49.6,-32.38 -65.8,-23.78l-57.2 -20.25 -114.38 -1.52 -179.68 0 -121.97 1.52 12.66 -93.63 -32.39 -41.5 12.14 -14.68 -8.09 -12.14 -21.26 6.58c-26.32,-3.54 -35.93,-21.77 -42.02,-43.53 -14.16,-5.56 -34.41,-3.54 -34.41,-27.33 29.86,-52.12 36.44,-122.97 95.15,-151.82l2.02 -22.77 84.02 -4.05c31.38,20.24 21.26,43.01 74.4,36.43 36.94,-66.29 63.26,-188.25 111.35,-193.82 28.85,-71.86 37.46,-173.08 87.05,-214.57 24.29,-8.6 45.05,-19.23 54.15,-34.92 5.06,-9.11 6.58,-38.96 2.03,-52.12 -3.04,-9.61 -9.11,-2.02 -18.73,-14.68l-14.18 -54.66 11.64 -9.62 44.53 37.46c6.07,30.87 21.77,59.21 18.73,92.1 -3.03,48.08 -22.78,54.65 24.8,109.81 7.59,12.66 10.64,27.84 8.11,43.01l-89.58 -8.6c-10.12,24.29 -31.89,79.45 55.67,99.19l41.51 124.5 -76.94 128.54 10.63 93.62c32.39,60.23 70.35,122.47 122.99,171.56l3.04 95.65z"/>
   <path class="fil1 str0" d="M4986.66 3324.29c-11.14,17.21 -23.29,33.39 -47.58,33.9 -9.11,24.29 -20.76,46.05 -51.12,53.64 -33.41,60.23 -58.71,129.56 -100.22,180.17l-116.41 -77.94 -18.22 -67.82 -354.79 -222.66 116.91 -178.65 2.53 -100.2 -39.98 -32.89c-5.06,-38.46 -14.18,-73.39 -45.56,-87.55l41.51 -35.93 115.4 -5.06 71.87 6.07c24.8,12.66 37.96,13.17 102.75,67.32l130.58 19.74c24.29,-7.09 44.03,-24.3 54.66,-47.07 31.38,-4.55 65.3,-31.88 106.29,7.08 13.66,4.55 34.92,2.53 56.18,-0.5 -24.3,38.96 -50.11,70.33 -75.42,102.73l2.03 324.39 49.6 60.73 -1.01 0.51z"/>
   <path class="fil1 str0" d="M2430.18 360.77c0,0 12.66,49.09 -25.31,75.91 -19.23,13.66 -80.98,59.21 -80.98,59.21 5.06,27.83 11.64,97.67 -48.59,106.78 -41.5,6.58 -19.74,39.98 8.1,85.52l2.02 236.84c0,0 -36.94,7.09 -34.41,17.21 6.07,21.76 6.07,37.45 33.91,62.25 17.71,15.69 18.21,44.53 16.69,61.74 -2.02,20.25 20.76,28.85 26.32,28.85 41.51,-1.01 74.4,-20.75 113.88,87.54l195.36 6.07c22.78,4.56 46.57,39.48 46.57,39.48l111.85 -31.88 657.97 325.4 -1.01 -53.14c72.89,6.08 80.98,-2.52 80.98,-2.52l-44.54 -769.22c-26.32,-36.44 -52.64,-71.86 -20.75,-111.84 0,0 0,-42.51 -7.59,-66.8 -8.11,-25.3 14.16,-42.51 14.16,-42.51 -0.5,-32.39 -62.75,-30.36 -95.65,-31.88 -43.03,-2.03 -72.38,-8.1 -64.78,-40.49 0,0 -112.87,-40.48 -156.9,-13.66 -23.29,14.17 -72.38,36.94 -80.98,66.3 -6.07,19.73 -0.51,32.89 11.13,52.63 20.25,34.92 -48.59,154.35 -127.55,58.71 0,0 -103.76,-28.34 -161.96,-41.5 -57.19,-12.65 -96.67,-62.75 -72.89,-93.12 2.53,-3.04 -155.38,-48.58 -155.38,-48.58 -73.9,12.14 -127.04,-9.11 -139.69,-23.28z"/>
   <path class="fil1 str0" d="M781.2 2802.54l-72.37 -25.31 -255.09 -209.51 80.98 -67.82 -1.52 -24.29 39.48 -38.46c11.64,-8.09 26.32,-2.52 39.48,-1.01 33.91,49.6 24.8,72.88 15.69,98.17 19.23,5.06 33.91,36.94 65.8,-8.6 -1.01,-12.64 7.09,-12.64 20.25,-5.06l0 24.3c10.63,4.55 18.22,25.3 8.1,44.03 -5.57,10.12 -9.11,20.23 -20.75,22.27l33.41 20.24c9.62,-1.52 17.71,-8.6 37.45,33.4 4.05,6.07 54.16,26.82 12.65,76.42l-3.54 60.72 0 0.51z"/>
   <path class="fil1 str0" d="M5261.99 5420.91l242.94 -516.69c18.73,-58.19 29.36,-116.4 57.19,-175.09 18.73,-24.8 42.02,-47.57 27.33,-84.01l5.06 -50.1c2.53,-15.19 11.13,-14.68 23.79,-2.53l7.59 30.36c9.11,-3.03 17.72,-6.07 17.21,-20.75l-24.8 -267.71 -46.56 -50.1 -26.83 22.27 -7.09 68.83 -15.7 13.66c-8.09,-2.53 -20.24,-14.68 -16.69,13.16l-23.29 25.31c-26.31,-48.59 -29.86,-5.57 -22.77,15.69 -0.51,9.11 2.02,24.8 -10.63,10.62l-18.73 30.36 26.83 19.74 -15.7 0 -34.41 24.8 5.06 -30.36 -34.41 34.41 8.09 42.01 -23.28 1.01 4.55 -18.73c-21.26,-14.16 -38.98,15.69 -57.7,25.81l21.26 34.41 -26.32 2.53 -10.62 -31.38 -42.51 7.09c1.52,15.18 -15.69,19.23 -31.38,24.79l-2.53 -21.25 -23.79 23.78 -41.5 2.03 -8.11 35.43 -56.18 80.97c43.03,37.44 25.31,122.46 36.94,184.71 -15.69,50.11 -46.56,88.56 -73.89,129.05 -31.89,21.26 -46.57,42 -51.63,63.26 -4.55,20.24 -14.68,60.23 -8.61,80.46 7.08,23.79 20.25,15.69 20.75,39.48l7.59 38.96c-38.96,150.81 58.21,148.27 79.47,185.22 9.61,-4.55 21.76,3.04 30.87,-2.02 20.75,-11.14 47.07,-38.96 74.91,-29.35 23.28,6.58 41,-2.02 58.2,-10.12z"/>
   <path class="fil1 str0" d="M1106.14 1006.51l-129.06 3.54 6.07 744.43 33.91 12.14 -23.78 72.87 -380.11 -21.25 -44.03 30.36 -23.78 -8.6 -16.7 -49.09 -21.77 -6.07c-42.51,93.63 -49.6,82.49 -65.29,98.69 2.53,9.61 -3.54,18.71 -0.5,27.32 9.62,27.33 15.69,55.16 1.01,67.3 19.74,17.72 45.55,31.88 52.64,57.19 1.52,32.38 -0.5,57.18 -9.11,66.3 -8.61,9.11 1.52,28.84 19.74,13.66l17.21 -10.63c5.57,9.11 18.22,14.18 16.7,27.84l38.46 -26.32 47.07 19.74c4.56,-7.08 -1.01,-18.21 17.21,-20.75 9.62,0 16.2,-6.59 19.23,-23.28l25.82 6.07c7.09,24.29 15.18,48.58 11.13,71.35l37.96 28.84 -29.36 26.82 8.1 12.15 21.26 -14.18 3.04 51.11 26.82 24.8c11.13,-10.62 28.34,-24.8 42.01,-17.71 12.65,6.57 18.22,31.88 29.86,23.78 11.64,-8.09 14.68,-16.19 33.91,-16.19 14.68,0 -12.14,-24.8 5.57,-24.3 8.1,0 21.26,-9.61 35.93,-5.56 14.68,4.05 -3.54,55.16 6.58,44.03 25.3,-27.33 74.91,-16.69 79.97,-10.62 14.17,-50.11 -13.16,-96.16 82.5,-154.36l42.51 -89.06c56.69,-23.79 116.92,-12.66 169.06,-74.39 65.28,-43.53 130.58,-76.42 166.01,-66.8l65.8 0 36.94 -31.37 177.15 2.02c4.56,-8.6 7.08,-15.19 31.38,-27.33 0,-21.26 19.24,-22.77 32.9,-29.35l7.09 -262.65 -66.31 9.62c-26.32,-17.21 -4.05,-22.77 -4.05,-60.73 -15.18,-33.91 -33.9,-38.97 -52.63,-35.42 -16.2,3.03 -23.79,-20.25 -32.39,-18.73 -14.69,3.03 -30.88,-11.14 -41.01,-32.39 -3.54,-7.08 -12.64,-10.12 -18.73,-14.68 -13.66,-9.61 -26.31,-16.69 -22.77,-31.37 -0.51,-0.51 -316.84,-242.41 -467.16,-358.8z"/>
   <path class="fil1 str0" d="M4314.51 4020.63l50.61 165.99 -14.68 147.26c29.86,26.82 59.72,49.09 101.73,118.92 7.09,15.19 10.12,31.88 9.11,48.59l-18.21 77.93 -45.56 19.74 3.54 68.32 -24.29 0.51c12.66,-31.88 0.5,-26.32 -5.06,-27.83 -32.9,-20.76 -45.55,-51.62 -51.63,-79.46 26.83,-41.5 25.31,-74.9 22.27,-107.28l-44.54 -8.11c-34.41,8.61 -41.5,-4.04 -44.53,-15.68 -18.73,-44.03 -27.33,-26.82 -34.41,-29.86l-26.83 -36.93 47.07 -87.05 36.44 -4.04 -24.8 -32.39 21.77 -112.85 20.75 -15.18 -59.72 -118.42c16.69,15.19 35.93,20.24 80.98,27.83z"/>
   <path class="fil1 str0" d="M853.59 760.05l13.16 -100.2 78.45 -40.49 17.71 5.06 27.84 -22.77 46.06 3.54 2.53 -21.76c96.67,4.55 115.9,-21.26 133.11,-47.07l80.98 -32.89 30.37 0 -15.19 -20.24 5.06 -18.73 -2.53 -24.29c31.89,-4.05 70.86,1.01 70.86,-31.88l131.09 2.02 17.72 -40.49c-25.31,-9.11 -29.36,-45.54 -26.32,-84 2.53,-28.85 0,-93.62 0,-93.62 -8.61,-10.63 -19.24,-20.25 -21.77,-35.43 -21.25,-4.05 -47.07,-4.55 -55.67,-17.21 -28.85,-5.57 -58.71,-7.09 -88.07,-5.06 -50.11,5.06 -70.85,-13.16 -91.1,-60.22 -48.09,-3.04 -99.21,100.2 -136.15,151.82 -90.09,24.8 -154.88,65.79 -199.41,118.92 6.07,21.76 -4.55,29.86 -26.32,44.53 -14.17,9.11 -63.77,88.56 -47.07,132.59 0,34.41 -26.82,92.1 -104.26,130.56 -27.33,23.28 -58.71,40.99 -93.13,52.12 -24.29,8.1 -79.97,14.17 -96.67,29.86l348.72 25.3z"/>
   <path class="fil1 str0" d="M436.53 1292.43c10.12,-74.39 -35.94,-179.15 108.82,-181.68l30.37 -224.7 257.62 22.77 14.17 -101.21 259.65 199.39 -129.57 3.04 6.58 744.93 32.9 11.64 -22.27 72.37 -381.12 -20.76 -43.53 30.87 -23.28 -7.59 -16.7 -50.6 -23.28 -5.57c0,0 -42.01,103.75 -68.83,93.12 0,0 -11.64,-12.64 -25.31,-26.82 -11.64,-12.14 -24.8,-24.29 -33.91,-41.5 -12.66,-24.29 -21.77,-62.75 -38.97,-59.71 -37.46,6.07 -65.8,-43.53 -65.8,-43.53 0,0 -43.53,-12.14 -74.91,-3.54 -40.49,11.13 -86.04,-0.51 -94.14,5.06l36.95 -103.24 3.54 -119.93 -22.77 -35.93c12.14,-21.26 49.09,-41 24.8,-104.76 -2.53,-7.08 -15.69,-3.54 -15.69,-3.54l-15.69 -47.06 19.23 -19.24 301.15 17.72z"/>
   <path class="fil1 str0" d="M3962.75 4482.67l17.72 46.56 -1.52 23.28 61.74 4.55 145.26 56.68c14.68,80.97 5.56,148.79 -18.23,209.01 -0.5,11.63 -4.55,22.77 -3.03,33.9 2.53,20.25 12.66,48.08 1.52,71.36 -29.36,59.71 -56.18,119.43 -63.28,123.47 -24.29,13.16 -54.15,52.13 -54.66,83.5l14.68 357.79 54.67 3.54 14.68 -50.61 -21.77 8.1c3.54,-20.25 -1.01,-39.98 19.75,-60.22l176.13 -69.33c21.77,-16.2 35.43,-40.49 50.62,-62.75l-20.76 -7.09 36.44 -137.65 -18.73 -6.57 -15.19 -115.9c-49.6,-30.36 -21.26,-77.93 -1.01,-89.06l106.29 -90.08 8.61 18.22 39.47 -43.52 -8.6 -13.66 25.81 -4.56 7.59 -22.26 130.59 -64.27 32.39 0.51c24.8,-18.73 44.54,-38.98 80.47,-54.15l-2.53 -19.24 43.53 -33.39c10.63,-10.63 19.24,-26.32 32.9,-25.81l2.02 -21.77 -8.09 -9.11 23.79 -35.42 6.07 -23.79 -4.05 -15.69 -14.68 -22.27 5.06 -87.05c-11.14,-10.63 -5.06,-18.21 1.01,-25.31l-3.04 -96.15 34.92 -58.7c1.01,-16.2 2.03,-32.39 -3.54,-48.59 -53.65,31.88 -143.24,87.55 -188.78,59.21 -19.75,2.53 -42.02,2.53 -61.25,27.33 -16.2,-1.52 -30.88,-4.56 -50.62,-3.04l-64.28 11.14c-11.64,-14.17 -23.28,-27.83 -50.62,-12.66l-93.63 -3.03 -14.69 146.26c46.57,36.94 87.05,85.01 107.3,134.1 12.16,29.86 -10.12,72.88 -14.16,110.83l-46.57 20.25 2.53 65.27 -22.78 3.55c5.57,-13.66 11.64,-27.33 -8.09,-29.36 -25.31,-21.25 -44.55,-45.54 -47.08,-77.42 19.75,-31.88 27.34,-69.85 21.77,-107.29l-45.05 -8.09c-17.71,4.04 -37.95,4.04 -42.51,-10.12 -12.14,-36.94 -23.79,-38.96 -37.96,-35.43l-254.59 81.98z"/>
   <path class="fil1 str0" d="M2423.6 4656.76c3.55,47.07 8.11,94.13 51.12,127.53l178.67 317.81 4.55 146.26 31.89 67.3c1.52,26.32 -8.1,52.63 8.09,78.95l22.28 124.49 96.67 108.3c60.23,-64.77 81.99,-12.66 97.17,28.85 36.94,-3.55 73.9,-7.09 110.84,-0.51 17.21,-15.68 34.93,-30.87 62.25,-42.5l14.18 -554.15 81.99 2.53 11.64 -312.24 200.43 -17.72 15.19 42.01c14.16,-15.7 34.41,-45.05 63.77,-46.56 26.82,-1.02 39.48,-18.73 65.8,-32.39l-19.24 -27.83 -129.06 21.25 -144.25 33.4 -232.83 -31.37 -38.96 -32.89 -366.95 4.04c-17.72,-23.28 -84.02,-75.9 -132.1,-13.66 -15.7,-18.71 -35.43,5.57 -53.15,9.11z"/>
   <path class="fil1 str0" d="M1811.19 1549.01l-7.09 263.16c-11.64,6.57 -27.84,0 -32.39,28.34 -12.66,7.59 -28.85,12.64 -31.89,27.83l-177.65 -1.52 -35.93 30.37 -67.32 0.5c-2.03,14.68 -1.52,32.39 10.11,41.5 10.12,8.1 8.6,24.8 6.08,39.48l85.02 113.36 30.88 11.63c17.21,-15.18 32.89,-19.23 40.48,30.87l105.28 15.18c7.59,-16.71 5.56,-39.98 24.8,-48.59 28.85,-16.18 23.79,-44.53 34.41,-67.3 23.28,-11.13 8.6,-26.82 132.1,-25.81 31.89,20.25 62.76,26.82 96.68,67.3l24.8 1.02c0.5,-8.6 25.81,-25.81 41,-28.85 16.7,-9.1 46.06,6.59 85.03,41l69.85 6.07 67.32 -48.08 117.41 -3.04c17.72,7.09 30.88,22.78 56.69,16.2 18.73,-21.25 54.66,-41.5 95.65,-58.7 -6.57,-18.73 -13.66,-36.94 -7.59,-60.72 10.12,-8.6 22.27,-9.62 23.79,-41l141.72 -157.39 26.31 -251 20.25 -50.61c-40.48,-16.69 -68.33,-32.39 -76.93,-88.05 -5.06,-30.37 2.02,-69.83 -1.01,-126.52l-25.31 4.55c-13.66,-16.2 -27.33,-33.9 -45.05,-39.97l-198.91 -7.59 -503.6 331.97 -125.01 34.41z"/>
   <path class="fil1" d="M2144.21 2775.21l-17.21 -1.01 -5.56 29.85c-29.86,1.02 -59.23,-3.03 -87.57,-13.15 -69.85,43.53 -125.02,36.43 -153.36,-63.76 -21.77,-55.67 -56.69,-73.89 -93.64,-86.53l-121.47 0.5 5.05 -193.31c19.24,-24.3 31.38,-58.71 42.02,-94.64 32.39,-8.11 25.3,-36.44 26.82,-60.73 32.39,-21.25 11.13,-55.16 -2.02,-77.93l2.02 -63.26c2.53,-17.71 -1.52,-36.94 24.3,-53.64 10.12,-12.14 19.74,-6.07 29.86,-66.3 17.72,-13.66 36.44,-27.33 132.1,-24.29 33.4,17.71 75.92,31.88 99.2,67.82l21.77 -1.02c14.16,-9.61 18.21,-27.32 43.53,-27.83 14.68,-0.51 15.18,-14.16 83.51,39.48l71.37 6.58 66.3 -47.58 118.94 -2.53c17.21,7.09 31.38,22.78 54.16,16.2 29.86,-29.35 65.79,-45.03 99.71,-59.21 13.16,21.26 29.86,40.48 49.09,56.18l-11.13 9.11 14.18 57.69c6.58,5.06 18.73,6.58 19.23,15.69 12.66,56.18 -18.73,73.89 -56.17,86.03 -47.58,36.94 -59.73,138.66 -86.55,212.05 -53.14,15.68 -70.86,113.86 -111.35,194.83 -38.97,7.59 -49.09,-11.64 -73.89,-37.96l-85.54 5.56 -2.02 22.78c-54.66,29.35 -67.32,94.13 -95.67,154.35z"/>
   <g style="clip-path:url(#id2)">
    <g>
     <rect class="fil2" x="1499.34" y="2619.54" width="1286.52" height="225"/>
     <rect class="fil6" x="1499.34" y="2394.53" width="1286.52" height="225"/>
     <rect class="fil7" x="1499.34" y="2169.53" width="1286.52" height="225"/>
    </g>
   </g>
   <path class="fil4 str0" d="M2144.21 2775.21l-17.21 -1.01 -5.56 29.85c-29.86,1.02 -59.23,-3.03 -87.57,-13.15 -69.85,43.53 -125.02,36.43 -153.36,-63.76 -21.77,-55.67 -56.69,-73.89 -93.64,-86.53l-121.47 0.5 5.05 -193.31c19.24,-24.3 31.38,-58.71 42.02,-94.64 32.39,-8.11 25.3,-36.44 26.82,-60.73 32.39,-21.25 11.13,-55.16 -2.02,-77.93l2.02 -63.26c2.53,-17.71 -1.52,-36.94 24.3,-53.64 10.12,-12.14 19.74,-6.07 29.86,-66.3 17.72,-13.66 36.44,-27.33 132.1,-24.29 33.4,17.71 75.92,31.88 99.2,67.82l21.77 -1.02c14.16,-9.61 18.21,-27.32 43.53,-27.83 14.68,-0.51 15.18,-14.16 83.51,39.48l71.37 6.58 66.3 -47.58 118.94 -2.53c17.21,7.09 31.38,22.78 54.16,16.2 29.86,-29.35 65.79,-45.03 99.71,-59.21 13.16,21.26 29.86,40.48 49.09,56.18l-11.13 9.11 14.18 57.69c6.58,5.06 18.73,6.58 19.23,15.69 12.66,56.18 -18.73,73.89 -56.17,86.03 -47.58,36.94 -59.73,138.66 -86.55,212.05 -53.14,15.68 -70.86,113.86 -111.35,194.83 -38.97,7.59 -49.09,-11.64 -73.89,-37.96l-85.54 5.56 -2.02 22.78c-54.66,29.35 -67.32,94.13 -95.67,154.35z"/>
   <path class="fil1 str0" d="M2449.93 3615.28l-85.03 -109.82 56.68 -35.93 -6.57 -61.73 69.85 -42.01c12.14,-9.11 20.75,-31.88 42.01,1.52 36.94,-4.56 58.71,5.06 70.35,23.28l29.36 -20.25 12.14 -122.46c-0.5,-42.01 -48.08,-69.84 8.6,-130.06 9.62,-39.48 -25.81,-66.8 -64.78,-64.77 -9.61,12.14 -13.16,31.88 -36.94,26.82l1.01 -58.7 14.18 -21.26 113.87 1.52 55.17 19.74c20.25,-10.64 48.08,20.75 66.8,23.78l-3.03 -94.12c43.01,-55.16 74.91,-71.36 110.33,-79.96l54.16 24.8 66.8 -18.73c-16.2,44.03 -34.41,79.96 -51.12,123.49 -28.34,73.88 -19.23,163.96 -31.88,246.95 -61.76,27.33 -84.52,74.9 -116.42,117.41l-26.82 122.47c-58.2,62.25 -109.83,112.34 -142.73,109.81 0,-34.91 -38.47,-66.29 -69.34,-8.6 -21.77,14.18 -37.45,7.09 -53.65,-9.11 -24.3,-31.88 -31.88,-5.06 -43.03,11.14l-39.98 24.8z"/>
   <path class="fil1 str0" d="M4033.61 3272.16l-37.46 29.86 -12.65 0 -7.59 -10.63c-32.89,32.89 -57.69,70.35 -83,106.78 8.61,2.03 16.2,6.58 21.76,13.66l12.16 -11.63 14.16 1.01 7.09 19.23 43.02 -8.61 2.02 -25.81 53.15 -3.03c7.59,-11.64 16.69,-22.27 26.32,-31.88l-38.98 -78.95z"/>
   <path class="fil1 str0" d="M4047.78 3885.01l-154.37 37.95c-10.12,18.22 -17.21,28.84 -21.26,49.6 -1.01,5.56 3.54,16.19 5.06,31.37 3.03,29.86 13.15,82.49 4.05,96.65 -21.77,33.4 -35.94,94.64 -34.93,96.15 12.14,17.71 37.46,35.43 52.13,39.48 20.25,5.06 43.01,2.53 48.08,-5.06l2.53 97.17c-8.09,-6.58 -19.23,-11.13 -24.8,-18.23 -32.39,-2.52 -61.74,14.69 -108.82,-75.4 -31.37,-2.53 -62.26,-11.64 -88.58,-49.09 -13.15,-3.54 -34.41,14.16 -54.15,18.73 -55.67,-5.57 -71.88,-31.88 -86.05,-39.98 -9.11,-8.09 -15.7,-19.23 -17.71,-31.37l-57.19 19.23 -10.12 -44.54 -23.79 1.02 -20.25 165.98 18.73 18.73 -175.12 -5.06 -8.1 311.24 97.17 86.03 132.1 -20.76 19.24 28.85 8.61 19.74 103.25 1.01 14.18 12.65 19.23 -5.06c55.68,-72.88 106.29,-91.6 157.92,-115.89l2.02 -48.58c40.5,-25.31 84.02,-38.96 134.63,-29.35l-19.23 -48.08 256.61 -80.47 -27.33 -39.98 46.06 -86.03 35.93 -4.05 -23.28 -31.37 21.26 -113.86 21.26 -14.68 -42.02 -81.98 -19.23 -37.96 -98.2 -32.89c-33.4,-47.57 -41.5,-38.45 -51.62,-35.92l-33.91 -35.93z"/>
   <path class="fil1 str0" d="M105.52 1704.37c-15.18,25.81 -25.3,39.47 -25.81,60.73 -1.01,48.08 -49.09,63.76 -73.39,98.69 22.27,32.89 46.57,64.77 50.62,103.23l93.13 0c20.25,-26.82 49.6,-18.22 83,6.08l53.65 4.04 11.64 15.19 -38.97 13.66c-25.81,-5.57 -50.1,-15.68 -72.37,-29.35 -16.7,10.12 -36.44,14.68 -55.68,12.64l-10.12 16.71 -80.98 3.54c-4.55,21.76 -9.11,44.03 -5.06,65.78 19.74,-2.02 38.46,1.01 59.22,-10.12 27.84,7.09 54.16,1.02 79.46,-13.65l140.2 1.51c52.64,30.37 118.44,33.4 179.17,36.94 3.04,-31.88 20.75,-63.25 -48.59,-111.33 10.63,-13.67 6.58,-45.04 -2.53,-67.82 -5.06,-12.64 5.06,-16.7 0,-30.36 -6.58,-3.54 -14.68,-14.16 -25.31,-24.29 -13.16,-14.18 -25.81,-29.35 -37.45,-45.05 -14.68,-44.03 -33.91,-62.25 -33.91,-62.25 -45.05,7.59 -72.88,-43.51 -72.88,-43.51 -38.46,-10.63 -58.71,-2.53 -75.41,-2.03 -44.03,2.53 -52.64,7.59 -91.61,1.01z"/>
   <path class="fil1 str0" d="M453.24 2568.23l-66.3 -33.91c-7.59,-20.75 -27.84,-31.88 -48.59,-42.5 2.02,-28.85 -17.21,-35.43 -30.37,-46.06l-4.56 -69.33c29.36,11.13 55.17,-18.21 80.48,-50.61 -6.08,-25.81 51.62,-23.28 90.09,-22.27 38.46,33.4 78.96,65.8 54.16,147.27 16.2,-7.09 32.9,-13.16 50.11,-17.71l-45.55 43.01 1.52 24.29 -80.98 67.82z"/>
   <path class="fil1 str0" d="M3549.74 4714.96l25.81 51.61c8.61,9.62 19.24,18.73 18.73,34.93 20.25,34.41 45.05,58.7 67.82,87.04 17.72,5.57 32.9,13.16 43.53,27.33 10.62,13.15 22.78,25.81 44.54,29.35 -9.11,52.63 14.68,98.17 39.48,107.79 29.35,1.52 57.19,6.59 77.94,26.82 59.72,7.09 66.8,15.19 80.98,23.79 49.1,-16.2 71.87,11.14 99.71,29.86 6.58,-39.98 30.37,-62.25 56.69,-83 20.75,-30.36 40.48,-78.44 60.22,-118.41 14.69,-24.8 3.04,-51.12 -0.5,-76.93l4.05 -32.89c35.93,-90.58 25.3,-144.73 19.23,-208.5l-146.78 -56.68 -61.75 -4.55 2.03 -20.75c-52.13,-16.71 -94.64,6.07 -133.62,27.33l-1.52 48.07c-119.96,53.65 -126.53,82.49 -159.43,116.4l-18.22 5.56 -14.68 -12.66 -104.26 -1.51z"/>
   <path class="fil1 str0" d="M5097.5 2172.48l-29.86 46.56c-28.85,41.5 50.11,105.26 115.39,165.99l252.05 80.97 80.98 -3.54 -244.46 279.85 -98.7 -2.03c-31.37,17.71 -62.25,35.93 -84.52,58.71 -25.81,16.19 -54.66,25.8 -81.99,38.96 -16.7,36.94 -45.05,67.31 -70.85,99.19l1.01 324.89 49.6 62.25 113.88 -128.03 190.81 -180.16 21.76 -2.53 79.97 -75.91 3.04 -15.18c44.03,-33.41 98.69,-89.58 112.36,-116.9 24.29,-49.09 55.16,-90.07 90.08,-130.06l75.42 -217.1c15.19,-15.68 26.82,-34.41 34.93,-54.65 4.05,-22.78 17.21,-30.87 27.84,-43.53l8.6 -108.8c24.29,3.54 12.66,-44.53 14.17,-73.89 -9.61,-8.61 -19.74,-22.27 -0.5,-33.4l0 -27.33c-17.72,1.52 -35.43,-18.72 -52.64,-5.06 -22.78,21.77 -52.64,34.93 -84.02,37.96 -36.94,3.03 -66.81,24.29 -82.49,19.23 -24.81,20.75 -56.69,27.83 -98.2,15.69 -27.33,24.29 -45.55,56.17 -134.12,33.9l-56.18 40.49c-87.05,23.79 -109.83,-47.06 -153.36,-86.53z"/>
   <path class="fil1 str0" d="M4337.28 2379.47l-38.96 14.68 0 -59.73 -22.78 -43.01 -37.96 -14.68 -30.36 -169.53 -32.91 -13.16 0 28.85 -58.2 0 29.86 22.27 5.06 70.33 -87.05 111.33 -82 -53.64 -54.15 19.73 0 28.85 -47.07 15.18 -1.01 -29.85 -103.26 -3.04 0 36.94 -98.7 0 -32.89 3.03 -22.78 -43.52 -68.33 0 -73.39 144.22 0 1.52c1.01,0 2.02,0.51 2.53,1.01 10.62,14.68 15.18,32.9 64.27,27.33l28.34 25.81c-6.07,43.01 57.7,66.8 94.66,97.67l34.41 68.33c29.86,14.68 65.79,20.75 69.85,70.85 19.73,11.13 27.84,27.83 42,42.5 6.58,6.59 0.51,13.17 7.09,18.23 18.73,14.68 53.14,18.21 57.69,-3.04 0,0 31.38,12.14 54.16,9.11 14.16,-1.52 12.65,-15.19 26.82,-18.21l101.22 88.55 18.23 -13.15c69.33,16.2 139.18,7.08 208.52,-3.03l83.01 -70.86 114.89 -4.04 1.01 -59.73 -59.22 -20.24 -41 -90.08 -59.21 -50.1c10.11,-15.68 -17.72,-31.88 -31.38,-47.57 -18.73,5.06 -38.98,1.01 -60.23,-10.12l15.19 -19.23 -0.51 -27.84 54.16 -1.01c10.62,-6.58 21.76,-9.61 29.86,-25.81l0.5 -52.12z"/>
   <path class="fil1 str0" d="M4371.19 1180.09l-27.33 27.83 -22.78 -5.06 -10.62 45.55 -49.1 12.66 -4.55 36.94 -43.03 5.05 -20.75 -21.25 -668.6 20.24 8.1 167.51c-26.83,2.53 -54.16,2.02 -80.98,-1.01l1.01 53.13 7.59 316.8 -90.59 5.06 1.01 33.9 -51.63 65.8 3.54 46.56 -17.21 8.09c-1.52,29.35 -5.06,54.66 -17.21,62.75l0.51 37.95 37.96 -8.09c7.59,42.5 9.61,87.04 45.05,119.43l4.55 28.33 -16.69 2.53c28.85,35.43 61.75,68.83 79.97,109.31 -31.89,98.18 13.15,84.51 41,96.67l0 -1.52 73.39 -144.24 68.33 0 22.78 43.53 32.89 -3.04 99.21 0 0 -37.44 103.25 3.03 1.01 29.86 47.07 -15.18 0 -28.84 54.16 -19.73 81.99 53.64 87.05 -111.33 -5.06 -70.35 -29.86 -22.27 57.2 0 0 -28.84 32.89 13.16 30.37 169.53 37.96 14.68 22.78 43.01 0 59.71 38.98 -14.68 -1.01 -103.23 25.3 -37.96 25.82 0.51 12.64 -65.28c30.37,-37.44 42.51,-85.52 91.62,-112.85l15.68 -123.47c-9.1,-87.05 17.72,-162.45 30.37,-242.41 12.65,-5.06 26.83,4.56 37.45,-19.74l56.69 -28.34c11.14,-7.58 15.18,-24.79 18.22,-42.5 -7.59,-17.21 -18.73,-14.17 -28.85,-16.2 -16.71,-31.88 -44.54,-34.91 -68.33,-47.05l-33.4 -202.94 -26.32 -28.34c6.07,-73.38 -79.97,-86.03 -121.47,-129.55z"/>
   <path class="fil1 str0" d="M2817.38 5626.88l135.64 273.28 1.52 62.24c-7.09,15.18 -18.23,15.69 -30.88,13.16 -5.06,7.08 -10.12,16.2 1.52,23.28 16.71,29.86 28.85,66.3 50.62,92.11 17.71,21.26 43.53,31.88 64.28,50.1l54.16 4.05c11.14,-7.59 1.01,-18.21 41.5,-22.27l78.96 -0.51c24.8,-9.61 -3.04,-34.4 78.45,-28.33 13.15,1.51 19.24,16.19 39.98,5.05 37.95,-6.07 73.9,8.11 110.84,13.67 11.13,-8.61 6.58,-23.78 68.33,-11.64l6.07 -23.79 71.88 1.01 425.65 -395.74c67.32,-27.83 82.5,-109.82 101.23,-187.25l-53.65 -3.54c-0.5,-6.57 -51.12,29.86 -57.7,30.37 -27.33,3.03 -43.02,-6.08 -39.48,-54.15 3.04,-35.93 41.51,-64.28 51.63,-70.86 13.67,-9.1 26.82,24.3 40.49,15.7 0,0 -4.55,-152.33 -10.62,-279.85 -28.85,-17.21 -49.1,-47.58 -100.22,-30.37 -26.82,-20.24 -53.65,-17.71 -80.47,-24.29l-294.57 233.81 -10.63 48.58c-33.4,17.71 -66.8,15.19 -100.21,18.73 -23.79,-18.73 -52.13,-30.36 -82.5,-32.39l-49.1 43.01c-4.55,23.79 -18.21,25.81 -28.85,35.93 -14.16,7.59 -24.8,20.75 -28.84,35.93 -49.61,12.14 -84.53,4.04 -116.41,-7.09 6.07,-28.84 24.8,-47.57 9.11,-94.64l-68.33 -76.41 -9.11 328.94c-23.28,10.11 -44.04,24.8 -62.25,42.51 -34.43,-3.03 -63.28,-7.59 -111.35,1.01 -7.08,-35.92 -40.48,-96.14 -96.67,-29.35z"/>
   <path class="fil1 str0" d="M4058.91 5416.36l4.05 74.39c-22.27,11.14 -38.97,22.27 -57.7,33.41 -20.75,-0.5 -33.91,-6.07 -37.46,-22.77 -5.06,-26.32 -2.53,-44.54 12.66,-66.81 10.62,-16.2 29.86,-36.43 43.01,-38.96 6.58,-1.01 16.71,9.11 22.28,17.21l13.15 3.54z"/>
   <path class="fil1 str0" d="M4297.81 3223.07l-30.87 45.55 -232.82 4.05 37.95 78.44c-60.22,60.72 -21.76,72.37 -7.58,95.65 -26.32,49.09 -46.57,108.8 -99.21,111.33 -13.15,3.54 -22.78,0 -25.31,16.2 -6.07,37.96 11.13,117.4 26.32,162.95 15.7,35.42 43.53,59.21 58.71,88.56 14.18,20.25 17.21,41 23.79,61.23l32.39 36.43c13.66,-4.04 28.85,-0.5 50.11,34.92l97.18 31.88c20.75,19.23 54.16,24.8 86.55,30.36l50.61 167.51 95.15 2.53c16.2,-10.12 32.89,-9.61 49.09,11.63 35.43,-5.56 66.82,-15.18 113.37,-9.1 15.7,-18.23 39.48,-27.84 63.27,-25.31 36.43,28.85 140.7,-29.85 185.24,-59.21 -11.13,-19.73 -30.87,-30.36 -49.6,-42.51 1.52,-22.27 -7.59,-47.07 -15.7,-71.35 -9.61,-14.68 -16.7,-29.35 -10.62,-39.98l-21.77 -48.08 13.66 -4.55c-3.54,-36.44 -3.54,-71.36 18.73,-94.14 -15.18,-30.86 -66.3,-55.66 -63.26,-92.6l43.53 -122.97 -115.9 -76.92 -19.23 -68.33 -353.8 -224.18z"/>
   <path class="fil1" d="M1526.23 2667.93l60.23 -17.21 -39.98 -313.77c-5.06,-23.78 -28.85,-34.41 -47.07,-49.09l9.61 -51.11 -71.37 -9.11c-13.16,26.32 -6.07,52.13 25.82,75.91 25.81,106.28 22.77,208.51 30.87,312.25l31.88 52.13z"/>
   <g style="clip-path:url(#id3)">
    <g>
     <g>
      <rect class="fil2" x="1045.67" y="2496.02" width="1286.52" height="169.21"/>
      <rect class="fil3" x="1045.67" y="2326.81" width="1286.52" height="169.21"/>
     </g>
    </g>
   </g>
   <path class="fil4 str0" d="M1526.23 2667.93l60.23 -17.21 -39.98 -313.77c-5.06,-23.78 -28.85,-34.41 -47.07,-49.09l9.61 -51.11 -71.37 -9.11c-13.16,26.32 -6.07,52.13 25.82,75.91 25.81,106.28 22.77,208.51 30.87,312.25l31.88 52.13z"/>
   <path class="fil1 str0" d="M2354.77 14.62c-15.19,0.51 -74.91,-30.87 -108.82,18.22 0,0 -25.3,11.13 -26.82,36.94 -2.03,39.98 -6.07,164.47 -6.07,164.47 -4.05,-6.58 -34.42,-1.52 -38.97,18.73 -6.59,27.83 -37.46,20.24 -39.99,34.41 -5.06,27.84 19.74,53.64 48.59,78.95 7.59,6.58 -2.53,42 4.55,48.58 22.27,19.74 61.75,33.4 61.75,33.4 5.06,52.12 13.16,103.74 25.3,154.86 6.08,3.54 69.85,-18.22 48.09,-107.79 -2.53,-10.63 131.09,-53.64 106.79,-137.15 -2.53,-8.6 -24.29,1.52 -27.83,-14.17 -8.1,-35.43 -7.09,-44.03 -20.25,-49.6 -6.59,-2.53 -34.93,24.29 -40.5,20.75 -12.66,-7.59 -28.34,-25.3 -21.76,-34.41 12.14,-15.18 97.18,-67.81 98.19,-97.16 1.01,-43.52 -14.68,-47.57 -35.93,-59.21 -12.14,-6.58 -7.59,-27.33 -4.05,-38.97 2.53,-7.09 48.09,-22.77 43.03,-39.47 -3.55,-11.13 -10.12,-13.16 -12.65,-21.76 -2.03,-6.58 -36.44,29.86 -38.46,24.29 -5.57,-14.17 -7.09,-23.28 -14.18,-33.91z"/>
   <path class="fil1 str0" d="M3452.06 1520.67l-658.99 -324.39 -87.05 26.32c6.07,51.62 1.52,91.59 2.53,122.97 1.52,46.05 33.4,78.44 77.44,94.12l-19.23 47.57 -27.83 254.55 -137.67 151.32c-4.55,8.09 -6.58,16.69 -6.07,25.81 -3.04,7.58 -8.61,13.66 -15.7,16.69 -9.61,6.07 -5.06,16.2 -6.07,23.28 -8.09,53.64 104.27,133.09 104.27,133.09 5.56,24.3 14.17,45.55 18.73,71.36 4.55,27.33 -9.12,60.73 -5.06,84.52 5.56,34.91 44.03,37.95 38.96,91.08l-88.56 -8.09c-25.82,51.11 -7.59,84.51 55.16,99.19l41.5 123.99c66.81,-15.19 113.88,-7.08 200.94,-46.56l79.46 -7.59c14.68,-24.8 45.56,-38.46 34.92,-80.97l109.83 -12.14c8.61,-8.09 12.66,-20.24 26.82,-23.28 21.26,-0.51 27.84,-14.68 33.41,-29.35 10.12,-23.79 35.43,-32.39 54.15,-47.07 3.54,-78.44 62.76,-56.17 98.7,-70.85l-4.05 -27.33c-20.75,-22.77 -38.46,-48.08 -45.05,-119.94l-38.46 7.09 -1.01 -33.41c11.64,-12.64 20.25,-42.5 17.21,-63.76l17.71 -8.61 -4.55 -45.55 53.14 -67.81 -1.52 -33.4 91.62 -5.06 -9.62 -317.81z"/>
   <path class="fil1 str0" d="M4066 2873.38l16.71 -12.66c67.32,17.21 137.16,7.59 207.51,-2.53l42.02 -34.91c23.79,14.17 41.5,37.96 45.05,88.56l40.48 32.38 0 98.17 -150.32 226.21 -234.34 4.05 -35.93 28.84 -14.18 0.51 -8.11 -10.63 5.57 -139.67 52.64 -79.45 83.51 -74.9 -50.62 -31.88 0 -92.1z"/>
   <path class="fil1 str0" d="M436.53 1293.45c10.12,-74.39 -35.93,-179.15 108.82,-181.68l30.37 -224.69 257.62 22.77 19.74 -151.82 -344.67 -25.3c-31.89,49.09 -50.62,90.59 -98.7,109.82 -45.55,18.22 -63.26,74.39 -76.42,122.97l-135.64 155.36c-5.06,35.43 -25.31,58.7 -52.64,76.92 -23.79,31.88 -38.97,69.33 -43.53,108.3l34.42 -31.38 300.64 18.73z"/>
   <path class="fil1 str0" d="M2738.42 2554.05l-77.94 128.04 10.62 92.6c33.4,65.29 71.87,125.51 124.01,174.6 31.88,-35.94 46.06,-63.26 109.83,-79.96l55.16 24.29 62.25 -17.71c15.19,-17.72 14.18,-46.06 15.19,-72.88 21.26,-34.91 44.53,-53.14 67.32,-69.84 17.21,13.16 47.58,3.04 49.6,42.51 20.25,22.78 39.49,36.44 54.16,15.19 17.21,25.3 90.09,17.21 140.2,22.77 4.55,-14.17 11.14,-27.83 18.73,-40.49 16.7,-2.52 31.88,-9.1 57.69,9.62l106.29 -36.94 7.09 15.69 42.51 -6.58 -1.01 -15.69 93.64 -7.59 20.75 26.82 9.62 -14.68 16.2 11.64 13.66 -15.68 43.53 -1.52c-9.11,-24.8 -5.06,-54.15 -71.37,-69.83l-33.91 -69.33c-33.91,-32.89 -94.65,-47.57 -98.7,-100.2l-26.32 -25.3c-22.27,1.01 -41.5,10.62 -66.3,-29.36 -39.98,-6.07 -66.82,-12.14 -40.5,-93.11 -20.25,-49.59 -51.63,-72.87 -78.96,-110.82 -57.19,11.13 -79.96,8.09 -81.99,67.3 -18.21,14.68 -45.05,21.76 -53.14,44.54 -7.09,16.69 -13.16,29.85 -38.46,31.88 -9.62,6.57 -17.71,14.68 -25.31,23.28l-108.31 11.14c5.56,20.24 3.54,38.96 -19.74,61.73 -6.07,6.07 -10.63,13.66 -16.71,20.25l-78.96 7.59c-90.08,39.98 -135.64,31.37 -200.43,46.05z"/>
   <path class="fil1 str0" d="M3784.59 5770.1c-8.09,1.01 -16.71,2.53 -24.29,5.56 -5.57,2.03 -10.63,5.06 -15.18,8.61 -3.04,3.54 -4.56,8.1 -5.57,13.16 -1.01,4.55 -10.62,10.62 -14.16,11.63 -6.08,0.51 -11.64,0.51 -17.72,0 -9.11,1.01 -17.71,-3.03 -22.27,-11.13 -7.59,-10.12 -17.71,-18.22 -24.3,-29.85 -5.06,-6.58 -9.11,-14.18 -12.14,-21.77 -1.52,-6.57 -2.02,-13.66 -1.52,-20.24 -0.5,-8.6 4.05,-16.2 11.64,-20.25l2.53 -1.52c9.11,-4.55 11.14,-14.68 17.72,-21.25 6.57,-6.58 16.69,-13.66 24.29,-20.25 5.57,-4.04 11.13,-8.09 17.71,-11.14 8.09,-4.04 16.7,-7.08 25.81,-8.6 6.58,-1.51 14.68,-4.04 20.25,-5.56 1.01,-0.51 2.53,-0.51 3.54,-0.51l3.54 -0.5c8.6,-1.52 16.7,1.52 22.27,8.09 6.07,8.1 13.17,15.19 19.24,23.28 3.03,4.05 2.53,13.67 5.56,19.23 4.05,6.58 7.59,13.66 11.14,21.26 2.52,8.1 -1.02,16.71 -4.56,23.79 -4.05,7.59 -9.61,14.16 -16.2,19.74 -5.06,5.06 -10.62,9.61 -16.2,13.66 -4.05,1.01 -7.59,2.53 -11.14,4.55z"/>
  </g>
 </g>
</svg>
