<svg width="18" height="16" viewBox="0 0 18 16" fill="none" xmlns="http://www.w3.org/2000/svg">
<path fill-rule="evenodd" clip-rule="evenodd" d="M12.8484 0C15.5807 0 17.641 2.22933 17.641 5.18564V10.8209C17.641 12.3339 17.1061 13.7009 16.1337 14.6708C15.2615 15.5397 14.1301 16 12.8615 16H4.77703C3.51097 16 2.38031 15.5405 1.50728 14.6708C0.534974 13.7009 0 12.3339 0 10.8209V5.18564C0 2.22933 2.06031 0 4.79262 0H12.8484ZM12.8484 1.23077H4.79262C2.72903 1.23077 1.23077 2.89395 1.23077 5.18564V10.8209C1.23077 12.0049 1.63774 13.0626 2.37621 13.7986C3.01292 14.4345 3.8441 14.7692 4.77949 14.7692H12.8484C12.8501 14.7676 12.8566 14.7692 12.8615 14.7692C13.7977 14.7692 14.6281 14.4345 15.2648 13.7986C16.0041 13.0626 16.4103 12.0049 16.4103 10.8209V5.18564C16.4103 2.89395 14.912 1.23077 12.8484 1.23077ZM14.1415 5.02876C14.3557 5.29214 14.3155 5.67943 14.0521 5.8944L10.4057 8.85809C9.94462 9.22404 9.39323 9.40702 8.84267 9.40702C8.29374 9.40702 7.74646 9.22568 7.28862 8.86302L3.60862 5.89604C3.34359 5.68271 3.30256 5.29461 3.51508 5.0304C3.72923 4.76702 4.11651 4.72517 4.38072 4.93768L8.05744 7.90137C8.51938 8.26732 9.17005 8.26732 9.63528 7.89809L13.2751 4.93932C13.5393 4.72353 13.9266 4.76455 14.1415 5.02876Z" fill="#282828"/>
</svg>
