<svg width="14" height="17" viewBox="0 0 14 17" fill="none" xmlns="http://www.w3.org/2000/svg">
<path fill-rule="evenodd" clip-rule="evenodd" d="M5.54355 14.4609C5.93561 14.8976 6.43894 15.1376 6.96118 15.1376H6.96194C7.48645 15.1376 7.99205 14.8976 8.38487 14.4602C8.59528 14.2278 8.95404 14.2089 9.1864 14.4185C9.41952 14.6282 9.43844 14.9877 9.22879 15.2201C8.61723 15.899 7.81267 16.2729 6.96194 16.2729H6.96042C6.11196 16.2721 5.30892 15.8982 4.69963 15.2193C4.48997 14.9869 4.5089 14.6274 4.74201 14.4185C4.97513 14.2081 5.33389 14.227 5.54355 14.4609ZM6.99887 0C10.3632 0 12.6232 2.62031 12.6232 5.0673C12.6232 6.32599 12.9434 6.85959 13.2832 7.42573C13.6193 7.98431 14 8.61857 14 9.81747C13.7358 12.8806 10.538 13.1303 6.99887 13.1303C3.45971 13.1303 0.261143 12.8806 1.00183e-05 9.86591C-0.00225051 8.61857 0.378459 7.98431 0.714513 7.42573L0.83315 7.22604C1.12525 6.724 1.37451 6.17791 1.37451 5.0673C1.37451 2.62031 3.63455 0 6.99887 0ZM6.99887 1.13532C4.35358 1.13532 2.50983 3.20765 2.50983 5.0673C2.50983 6.64085 2.07311 7.36821 1.6871 8.01004C1.37754 8.52548 1.13307 8.93268 1.13307 9.81747C1.25947 11.2449 2.20178 11.995 6.99887 11.995C11.7695 11.995 12.7413 11.2116 12.867 9.76827C12.8647 8.93268 12.6202 8.52548 12.3106 8.01004C11.9246 7.36821 11.4879 6.64085 11.4879 5.0673C11.4879 3.20765 9.64416 1.13532 6.99887 1.13532Z" fill="#282828"/>
</svg>
