<svg width="16" height="16" viewBox="0 0 16 16" fill="none" xmlns="http://www.w3.org/2000/svg">
<path fill-rule="evenodd" clip-rule="evenodd" d="M7.51966 0C11.666 0 15.0387 3.3727 15.0387 7.51907C15.0387 9.47532 14.288 11.2595 13.0595 12.5986L15.4768 15.0109C15.7031 15.2371 15.7039 15.6031 15.4776 15.8294C15.3649 15.9436 15.2159 16 15.0676 16C14.9201 16 14.7719 15.9436 14.6584 15.8309L12.2118 13.3912C10.9248 14.4219 9.29301 15.0389 7.51966 15.0389C3.37329 15.0389 -0.000183105 11.6655 -0.000183105 7.51907C-0.000183105 3.3727 3.37329 0 7.51966 0ZM7.51966 1.15821C4.01184 1.15821 1.15802 4.01125 1.15802 7.51907C1.15802 11.0269 4.01184 13.8807 7.51966 13.8807C11.0267 13.8807 13.8805 11.0269 13.8805 7.51907C13.8805 4.01125 11.0267 1.15821 7.51966 1.15821Z" fill="#5C5C5C"/>
</svg>
