<?xml version="1.0" encoding="UTF-8"?>
<svg xmlns="http://www.w3.org/2000/svg" width="199" height="54" viewBox="0 0 199 54" fill="none">
  <path d="M116.158 16.9984C116.158 22.042 114.386 26.0633 110.842 29.1303C107.298 32.1974 102.595 33.765 96.8017 33.765H88.4866V53.9394H74.5827V13.0454C74.5827 6.77495 72.8787 3.09449 69.5391 2.00398V0.300064H96.8017C102.595 0.300064 107.23 1.79951 110.842 4.86656C114.386 7.93361 116.158 11.9549 116.158 16.9984ZM101.913 17.2029C101.913 14.8856 101.232 13.1135 99.8006 11.8185C98.3693 10.5236 96.4609 9.91016 93.9392 9.91016H88.4866V24.4957H93.9392C96.4609 24.4957 98.3693 23.8823 99.8006 22.5873C101.232 21.2923 101.913 19.4521 101.913 17.2029Z" fill="#162a72"></path>
  <path d="M137.082 53.9394H123.178V13.0454C123.178 6.77497 121.474 3.0945 118.135 1.93584V0.300079H137.082V53.9394Z" fill="#162a72"></path>
  <path d="M198.354 53.9394H184.859L180.429 42.4209H159.641L155.484 53.9394H142.125L163.526 0.300064H176.203L198.354 53.9394ZM176.953 33.356C176.953 33.356 170.137 15.7716 169.865 13.9996L162.981 33.356H176.953Z" fill="#162a72"></path>
  <path d="M27.963 26.4041H8.19759C3.90372 26.4041 0.427734 29.8801 0.427734 34.1739V53.9394H20.1932C24.487 53.9394 27.963 50.4634 27.963 46.1695V26.4041Z" fill="#D41F35"></path>
  <path d="M7.99254 22.9962L31.8474 22.5191L31.3703 46.3739C31.3703 48.6913 30.3479 50.8041 28.7122 52.2354C32.7334 50.6678 36.2776 47.5326 36.6865 42.0801L40.0943 14.3403L12.3546 17.7481C6.90203 18.1571 3.76682 21.7012 2.19922 25.7225C3.56235 24.0186 5.67521 22.9962 7.99254 22.9962Z" fill="#FFCF01"></path>
  <path d="M12.3559 14.5448L44.3214 10.0465L39.8231 42.0119C39.4823 45.6242 37.9828 48.3505 35.87 50.3952C41.1862 48.0097 46.5706 44.3293 47.5929 37.3091L54.136 0.231903L17.0587 6.77494C10.0386 7.72914 6.35814 13.1817 3.97266 18.4979C5.9492 16.4532 8.74362 14.8856 12.3559 14.5448Z" fill="#00694B"></path>
</svg>
